<?xml version="1.0" standalone="no"?>
<!DOCTYPE svg PUBLIC "-//W3C//DTD SVG 1.1//EN" "http://www.w3.org/Graphics/SVG/1.1/DTD/svg11.dtd" >
<svg xmlns="http://www.w3.org/2000/svg" xmlns:xlink="http://www.w3.org/1999/xlink" version="1.1">
<metadata>
Created by FontForge 20200427 at Mon Aug  1 20:00:20 2016
 By www
2012 H. A. Simon published by FSI FontShop International GmbH
</metadata>
<defs>
<font id="MarketW03-Bold" horiz-adv-x="334" >
  <font-face 
    font-family="MarketW03-Bold"
    font-weight="700"
    font-stretch="normal"
    units-per-em="1000"
    panose-1="3 1 8 0 2 1 1 1 1 1"
    ascent="800"
    descent="-200"
    x-height="453"
    cap-height="639"
    bbox="-643 -438 1732 1022"
    underline-thickness="50"
    underline-position="-125"
    unicode-range="U+000D-FEFF"
  />
<missing-glyph horiz-adv-x="420" 
d="M21 0v700h378v-700h-378zM85 64h250v572h-250v-572z" />
    <glyph glyph-name="f_i.liga" unicode="fi" horiz-adv-x="488" 
d="M411 431q19 12 30 30q9 15 24.5 22.5t32.5 7.5q29 0 46 -12q4 -3 7.5 -10.5t3.5 -14.5q0 -13 -9 -32.5t-30.5 -50.5t-24.5 -38l-58 -139q-7 -17 -15 -47t-8 -50q0 -10 1.5 -15t6.5 -5q12 0 57 32q32 23 53 23q24 0 35.5 -8.5t11.5 -20.5q0 -16 -16 -31l-41 -38
q-18 -17 -46 -32.5t-55 -15.5q-39 0 -67 32q-37 42 -37 96q0 35 16 81l17 49l25 58q8 16 8 21q-1 4 -4 4q-5 0 -15 -5q-24 -12 -43 -16l-21 -8q-4 -2 -25.5 -9t-32 -14t-12.5 -14q-5 -15 -28 -82t-38 -118t-26 -102.5t-15 -103.5q-1 -8 -10.5 -18t-20.5 -14q-31 -11 -40 -11
q-15 0 -29 12q-7 7 -11.5 15.5t-4.5 29.5q0 27 15.5 73t21.5 76q5 28 43 141q34 102 34 117q0 8 -21 29.5t-25 34.5q-5 17 -5 25q0 10 5.5 17t17.5 7q11 0 18 -3q24 -9 29.5 -10t8.5 -1q8 0 16 19q44 105 78.5 181t75.5 142q6 9 23.5 17t35.5 8q22 0 40 -15t18 -32
q0 -11 -14 -28.5t-15 -27.5l-5 -19q-11 -24 -54 -78.5t-52 -88.5q-4 -15 -11 -31q-3 -6 -11.5 -24.5t-8.5 -20.5q0 -3 3 -4q20 0 84 27q45 19 63 31zM585 704q14 0 31.5 -5t26.5 -14q13 -13 13 -35q0 -15 -6 -21q-1 -1 -13 -14.5t-26.5 -24.5t-30.5 -11q-21 0 -36.5 9.5
t-19.5 17.5q-8 15 -8 36q0 27 13 43q8 9 23.5 14t32.5 5z" />
    <glyph glyph-name="f_l.liga" unicode="fl" horiz-adv-x="500" 
d="M315 717q6 9 21.5 14.5t34.5 5.5q25 0 43 -13.5t18 -36.5q0 -17 -11.5 -41t-33.5 -49q-27 -31 -55 -74t-36 -66q-8 -22 -15 -35q-3 -5 -11.5 -23.5t-8.5 -21.5t3 -4q19 0 77 24q30 12 58.5 32t43.5 44l103 169q0 1 1.5 3t12 31t24.5 41t30 12l34 1q14 0 26.5 -5.5
t15.5 -11.5q9 -20 9 -31q0 -19 -11 -36q-22 -34 -85.5 -130.5t-101.5 -164t-63 -132.5q-3 -8 -15 -36t-17 -50.5t-5 -49.5q0 -22 9 -22l8 3q22 15 55.5 50.5t51.5 47.5t36 12q13 0 28.5 -7t18.5 -14.5t3 -10.5q0 -11 -9 -19.5t-10 -9.5q-57 -70 -79 -89t-43.5 -30.5
t-44.5 -11.5l-18 2q-20 4 -42.5 14.5t-40.5 29.5q-14 14 -19 29t-5 38q0 27 7 55t34 97l16 38q13 28 13 33q-1 4 -4 4q-6 0 -16 -5t-28.5 -10.5t-25.5 -8.5q-4 -2 -25.5 -9t-32 -14t-12.5 -14q-5 -15 -28 -82t-38 -118t-26 -102.5t-15 -103.5q-1 -8 -10.5 -18t-20.5 -14
q-31 -11 -40 -11q-15 0 -29 12q-7 7 -11.5 15.5t-4.5 29.5q0 27 15.5 73t21.5 76q5 28 43 141q34 102 34 117q0 8 -21 29.5t-25 34.5q-5 17 -5 25q0 10 5.5 17t17.5 7q11 0 18 -3q24 -9 29.5 -10t8.5 -1q8 0 16 19q44 105 78.5 181t75.5 142z" />
    <glyph glyph-name="f_r.liga" unicode="fr" horiz-adv-x="556" 
d="M249 320q-60 -161 -100 -304q-4 -14 -14 -50t-16.5 -57t-13.5 -33q-11 -19 -19.5 -28.5t-22.5 -9.5q-17 0 -29.5 6t-17.5 18q-2 4 -8.5 13t-8.5 17l-3 19q0 16 15 46q9 19 20 46t16 45l25 76q17 55 43 126q24 67 24 76q0 1 -0.5 2t-3.5 3.5t-20 7t-23.5 7.5t-11 5.5
t-8.5 6.5t-6 9q-2 4 -6 9.5t-5.5 11t-1.5 12.5q0 11 8.5 18.5t34.5 7.5l49 -1q17 0 25.5 1t11.5 11q65 178 141 289q7 11 27 18.5t38 7.5q30 0 45 -19q9 -12 9 -25t-13 -35t-15 -27q-11 -30 -47 -76t-46 -66q-19 -39 -26 -56l-4 -11q1 -4 4 -4q57 8 72 8q40 0 71 -18
q13 -7 26.5 -18t17.5 -33q1 -4 4 -6q3 0 9 6q16 16 49.5 39.5t62 35t45.5 11.5q21 0 43 -6.5t37 -19.5q9 -7 9 -26q0 -17 -11 -32t-32 -15q-14 0 -23.5 4t-19.5 4q-4 0 -14 -5q-32 -16 -67 -43t-67.5 -66t-59 -89t-44.5 -109q-6 -19 -10 -31t-12 -21q-20 -24 -46 -24
q-3 0 -11 1t-19 7.5t-13 7.5q-22 8 -22 30q0 21 20 56q27 48 39 81l19 52q29 91 29 123q0 22 -16 22q-9 0 -27 -4.5t-19 -4.5l-48 -9q-3 0 -7.5 -2t-10.5 -19z" />
    <glyph glyph-name="f_r_period.liga" unicode="fr&#x2e;" horiz-adv-x="730" 
d="M249 320q-60 -161 -100 -304q-4 -14 -14 -50t-16.5 -57t-13.5 -33q-11 -19 -19.5 -28.5t-22.5 -9.5q-17 0 -29.5 6t-17.5 18q-2 4 -8.5 13t-8.5 17l-3 19q0 16 15 46q9 19 20 46t16 45l25 76q17 55 43 126q24 67 24 76q0 1 -0.5 2t-3.5 3.5t-20 7t-23.5 7.5t-11 5.5
t-8.5 6.5t-6 9q-2 4 -6 9.5t-5.5 11t-1.5 12.5q0 11 8.5 18.5t34.5 7.5l49 -1q17 0 25.5 1t11.5 11q65 178 141 289q7 11 27 18.5t38 7.5q30 0 45 -19q9 -12 9 -25t-13 -35t-15 -27q-11 -30 -47 -76t-46 -66q-19 -39 -26 -56l-4 -11q1 -4 4 -4q57 8 72 8q40 0 71 -18
q13 -7 26.5 -18t17.5 -33q1 -4 4 -6q3 0 9 6q16 16 49.5 39.5t62 35t45.5 11.5q21 0 43 -6.5t37 -19.5q9 -7 9 -26q0 -17 -11 -32t-32 -15q-14 0 -23.5 4t-19.5 4q-4 0 -14 -5q-32 -16 -67 -43t-67.5 -66t-59 -89t-44.5 -109q-6 -19 -10 -31t-12 -21q-20 -24 -46 -24
q-3 0 -11 1t-19 7.5t-13 7.5q-22 8 -22 30q0 21 20 56q27 48 39 81l19 52q29 91 29 123q0 22 -16 22q-9 0 -27 -4.5t-19 -4.5l-48 -9q-3 0 -7.5 -2t-10.5 -19zM669 101q8 -16 8 -27q0 -7 -3 -19.5t-4 -20.5q-2 -15 -18.5 -30t-40.5 -15q-18 0 -35 8l-23 10q-10 4 -16.5 15
t-6.5 22q0 18 8 34l13 25q5 15 15.5 25.5t34.5 10.5q17 0 37.5 -10t30.5 -28z" />
    <glyph glyph-name="f_r_period_b_period.liga" unicode="fr&#x2e;b&#x2e;" horiz-adv-x="1374" 
d="M249 320q-60 -161 -100 -304q-4 -14 -14 -50t-16.5 -57t-13.5 -33q-11 -19 -19.5 -28.5t-22.5 -9.5q-17 0 -29.5 6t-17.5 18q-2 4 -8.5 13t-8.5 17l-3 19q0 16 15 46q9 19 20 46t16 45l25 76q17 55 43 126q24 67 24 76q0 1 -0.5 2t-3.5 3.5t-20 7t-23.5 7.5t-11 5.5
t-8.5 6.5t-6 9q-2 4 -6 9.5t-5.5 11t-1.5 12.5q0 11 8.5 18.5t34.5 7.5l49 -1q17 0 25.5 1t11.5 11q65 178 141 289q7 11 27 18.5t38 7.5q30 0 45 -19q9 -12 9 -25t-13 -35t-15 -27q-11 -30 -47 -76t-46 -66q-19 -39 -26 -56l-4 -11q1 -4 4 -4q57 8 72 8q40 0 71 -18
q13 -7 26.5 -18t17.5 -33q1 -4 4 -6q3 0 9 6q16 16 49.5 39.5t62 35t45.5 11.5q21 0 43 -6.5t37 -19.5q9 -7 9 -26q0 -17 -11 -32t-32 -15q-14 0 -23.5 4t-19.5 4q-4 0 -14 -5q-32 -16 -67 -43t-67.5 -66t-59 -89t-44.5 -109q-6 -19 -10 -31t-12 -21q-20 -24 -46 -24
q-3 0 -11 1t-19 7.5t-13 7.5q-22 8 -22 30q0 21 20 56q27 48 39 81l19 52q29 91 29 123q0 22 -16 22q-9 0 -27 -4.5t-19 -4.5l-48 -9q-3 0 -7.5 -2t-10.5 -19zM845 23l-18 -2q-24 0 -34 15l-12 18q-5 6 -5 18t7 32q51 144 90 234l163 379q12 28 24 41t35 13q13 0 24.5 -4
t21.5 -6q31 -8 31 -29q0 -13 -13 -33t-14 -24q-3 -10 -18 -30t-19 -28q-28 -54 -44.5 -92t-21.5 -49l-6 -15q0 -4 5 -4q18 6 37 6q21 0 39 -8q23 -10 37 -35q2 -4 9 -15t12 -21.5t5 -21.5q0 -43 -25 -117t-70 -143t-92 -104q-27 -20 -59 -20q-20 0 -38.5 9t-34.5 26
l-6.5 6.5t-9.5 3.5zM1067 380q-12 0 -29 -15q-52 -45 -74 -96l-25 -57q-19 -43 -19 -60q0 -3 3 -8.5t3 -11.5q0 -5 -3 -18t-3 -24q0 -19 5 -19t17 14q58 68 94 144.5t36 125.5q0 25 -5 25zM1313 105q9 -15 9 -27q0 -6 -4 -18.5t-4 -21.5q-1 -15 -18 -30t-41 -15q-16 0 -35 8
l-23 10q-11 5 -17 15.5t-6 21.5q0 18 10 36.5t11 22.5q5 15 15.5 25.5t34.5 10.5q17 0 36.5 -9t31.5 -29zM669 101q8 -16 8 -27q0 -7 -3 -19.5t-4 -20.5q-2 -15 -18.5 -30t-40.5 -15q-18 0 -35 8l-23 10q-10 4 -16.5 15t-6.5 22q0 18 8 34l13 25q5 15 15.5 25.5t34.5 10.5
q17 0 37.5 -10t30.5 -28z" />
    <glyph glyph-name=".notdef" horiz-adv-x="420" 
d="M21 0v700h378v-700h-378zM85 64h250v572h-250v-572z" />
    <glyph glyph-name="glyph1" horiz-adv-x="0" 
 />
    <glyph glyph-name="glyph1" horiz-adv-x="0" 
 />
    <glyph glyph-name="uni000D" unicode="&#xd;" horiz-adv-x="246" 
 />
    <glyph glyph-name="space" unicode=" " horiz-adv-x="246" 
 />
    <glyph glyph-name="exclam" unicode="!" horiz-adv-x="320" 
d="M350 624q30 -12 30 -39q0 -16 -14.5 -48t-15.5 -37q-54 -185 -69.5 -229t-30.5 -79q-3 -6 -9.5 -11.5t-14.5 -5.5q-7 0 -19 5q-14 7 -16 17q-2 12 -14.5 23.5t-12.5 21.5l4 17l9 42q5 21 33 120.5t33 145.5q5 41 18.5 62t31.5 21q9 0 18.5 -5t10.5 -5q10 -3 17.5 -9
t10.5 -7zM200 94q15 -1 22 -10.5t7 -19.5q0 -12 -8 -36q-14 -39 -39 -39l-31 -1q-23 0 -35 13q-20 23 -20 52q0 18 9 35q1 2 3.5 10.5t8.5 12.5t17 4q17 0 35.5 -10t30.5 -11z" />
    <glyph glyph-name="quotedbl" unicode="&#x22;" horiz-adv-x="356" 
d="M319 460l23 95q20 83 20 93t10 16.5t26 6.5q33 0 47 -18q3 -3 13 -13.5t10 -22.5q0 -5 -2 -19.5t-12 -44.5t-11 -35l-35 -139q-3 -10 -12.5 -15t-21.5 -5q-17 0 -37 7q-13 4 -22 15.5t-9 19.5q0 7 13 59zM157 435l35 139q9 34 13 81q1 8 7.5 16t20.5 8q12 0 27.5 -7
t18.5 -8q36 -8 36 -37q0 -2 -1 -9t-10.5 -41.5t-13.5 -50.5l-31 -133q-2 -9 -13 -16.5t-25 -7.5l-35 7q-12 0 -24 12.5t-12 19.5q0 6 3 15z" />
    <glyph glyph-name="numbersign" unicode="#" horiz-adv-x="650" 
d="M503 260h39q84 0 86 -15q0 -3 6 -9t6 -12q0 -5 -4 -14.5t-5 -12.5q-4 -22 -26 -22l-82 3q-43 0 -51 -2q-4 -1 -9 -14q-3 -8 -10 -26t-24.5 -56.5t-23.5 -51.5q-18 -42 -24.5 -52.5t-11.5 -13.5q-4 -3 -15 -3t-24 3t-18 8q-1 1 -7 5.5t-11 11t-5 14.5q0 6 8 28
q3 9 10.5 20t8.5 15l38 98q0 7 -5 7l-52 -3q-10 -1 -14 -12q-42 -109 -69 -162q-8 -17 -14.5 -25t-16.5 -8l-31 6q-38 4 -38 31q0 3 3 15.5t19.5 48t19.5 43.5l22 57q0 6 -6 6q-67 -5 -80 -5q-33 0 -33 26l3 13l-1 18q0 7 10.5 19.5t28.5 12.5h90q13 0 19 2t9 10l29 67
q0 6 -5 6h-67q-34 0 -43 5q-14 8 -14 19q0 7 5 20t5 16q0 29 49 29l78 -4q15 0 21.5 1.5t12.5 17.5l53 135q0 1 0.5 2.5t7 19.5t17.5 32t24 17l15 2q8 0 16.5 -3t9.5 -3q11 0 21 -5t15 -16.5t5 -22.5q0 -5 -5 -13l-25 -38q-13 -24 -53 -118q0 -4 4 -4q57 0 61 3q4 4 9 17
l53 130q5 12 15.5 30t11.5 30q1 6 9 9.5t19 3.5q29 0 54 -16q23 -15 23 -28q0 -10 -6 -19l-32 -51q-10 -19 -25.5 -54t-18.5 -45q0 -3 4 -4l74 3q22 0 32 -1t15 -11q8 -18 8 -27t-8 -15.5t-9 -10.5q-4 -11 -10.5 -16t-47.5 -5q-87 0 -91 -4l-6 -9q-12 -25 -29 -70q0 -4 4 -4
zM326 253l53 3q3 0 8 1t10 14l25 63q0 6 -6 6q-47 0 -58 -3q-5 -1 -9 -12l-26 -69q0 -3 3 -3z" />
    <glyph glyph-name="dollar" unicode="$" horiz-adv-x="462" 
d="M399 513l-35 -106q-12 -34 -12 -43q0 -7 7 -22l25 -56q0 -1 1 -2.5t11 -23t21 -50.5t17.5 -53.5t7.5 -38t1 -18.5q0 -70 -63 -107q-8 -5 -27.5 -8t-39.5 -3q-14 0 -28.5 1t-42.5 6q-1 0 -2.5 -1t-2.5 -17q-4 -46 -17.5 -55.5t-27.5 -9.5l-25 4q-4 1 -15 2t-14 7
q-5 11 -5 25q0 27 14 59q4 9 4 14q-1 4 -8 8q-38 22 -73 62q-5 6 -16.5 17t-19.5 21q-9 11 -16 30.5t-7 35.5q0 23 13 36q3 3 6 4.5t6.5 2t4.5 0.5q14 3 25 3q5 0 14 -2t17 -5.5t9 -3.5q20 -5 31.5 -17t11.5 -24l-4 -22q0 -8 5.5 -21.5t20.5 -26.5q7 -6 10 -6l5 10l57 181
q3 10 3 15q0 10 -12 35q-39 84 -49.5 116t-10.5 59q0 33 11.5 59.5t48.5 55.5q28 22 72 22q20 0 35 -2.5t17 -2.5q4 0 7 8q14 39 14 47t10.5 16t35.5 8q20 0 36 -7t16 -19q0 -7 -4.5 -19t-4.5 -18q0 -7 -17 -34q-9 -12 -9 -16q0 -2 14 -11q21 -14 43.5 -35t32.5 -36t10 -23
q0 -7 -2.5 -11.5t-5.5 -7t-3 -3.5q-3 -5 -14.5 -12t-12.5 -8q-4 -4 -13 -4l-15 3l-15 4q-9 1 -15 6t-12.5 12.5t-9.5 10.5l-13 18l-4 3q-3 0 -8 -16zM293 180l-30 -98l-4 -16q0 -1 4.5 -4.5t24.5 -3.5q41 0 41 33q0 46 -15 89q-7 21 -12 21q-3 -2 -9 -21zM300 479
q3 11 13.5 41t12.5 35l7 22l-5 6q-7 4 -17 4q-32 0 -32 -58q0 -17 11 -48q3 -9 6 -11q2 0 4 9z" />
    <glyph glyph-name="percent" unicode="%" horiz-adv-x="780" 
d="M456 548q-5 0 -5 -6q0 -45 -17 -92.5t-47 -84.5q-26 -32 -50 -43t-48 -11q-34 0 -63 14t-57 51t-28 78q0 14 5 37t34 78q15 28 38 51.5t49 33t49 9.5q35 0 56 -17q9 -8 18 -10q61 -15 84 -15q49 0 80 5.5t43 20.5q11 14 25 14q34 0 50 -12q21 -15 21 -39q0 -23 -19 -40
q-8 -7 -18.5 -18t-30.5 -42l-275 -435l-57 -86q-3 -5 -12.5 -10.5t-26.5 -5.5q-10 0 -25 5t-23 11q-2 2 -7.5 10.5t-5.5 24.5q0 10 4 19.5t9 11.5q10 4 17 16q13 20 21 24q7 4 29 39q28 44 104.5 168.5t128.5 205.5q19 29 19 32q-1 4 -5 4l-18 -1q-13 0 -46 5zM703 297
q49 -29 49 -85q0 -86 -56 -172q-34 -53 -111 -53q-70 0 -106 36q-11 11 -24.5 36t-13.5 42q0 65 41 135q30 51 56 71.5t68 20.5q21 0 42 -5.5t55 -25.5zM344 569q-8 3 -12.5 9.5t-4.5 12.5l-2 2q-5 0 -15 -13q-34 -45 -50.5 -85.5t-16.5 -67.5q0 -20 8 -36q6 -12 18 -12
t28 26q30 51 42.5 83t12.5 54q0 24 -8 27zM644 244q-3 2 -7.5 6t-6.5 7l-5 5q-4 0 -14 -14q-34 -49 -50 -90t-16 -69q0 -17 5.5 -30.5t11.5 -13.5q15 0 34.5 28.5t37 77t17.5 72.5q0 5 -2 12.5t-5 8.5z" />
    <glyph glyph-name="ampersand" unicode="&#x26;" horiz-adv-x="528" 
d="M420 199q13 12 32.5 24t34.5 12t22 -5q14 -9 14 -45q0 -17 -4.5 -30.5t-25.5 -25.5q-6 -4 -18 -13t-34 -23q-10 -6 -10 -12l2 -8l20 -53q6 -14 6 -23q0 -13 -15 -13q-9 0 -14.5 2t-8.5 2l-16 -3q-14 0 -29.5 7.5t-19.5 13t-4 7.5l-5 14q-4 8 -7 8t-26 -9.5t-34 -12.5
q-56 -14 -95 -14q-28 0 -53 8q-12 4 -23 12t-21.5 23.5t-15.5 20.5q-8 7 -13 22.5t-5 28.5q0 21 9 40q12 27 31 53t65 73l64 59q12 12 12 20l-2 14q-9 39 -9 82q0 38 5 56q2 9 7.5 23t8.5 20q41 75 120 75q29 0 54 -11q10 -4 17 -12t11 -11q33 -27 33 -64q0 -25 -16 -67
q-5 -14 -25 -39t-82 -87q-7 -7 -7 -12l3 -15q7 -25 20.5 -65.5t16.5 -50.5q4 -13 8 -13t22 17zM248 230q-19 -19 -54 -67q-31 -40 -31 -66q0 -14 17 -14q13 0 46 8.5t73 26.5q9 4 9 7l-4 17l-32 95q-2 6 -5 8q-4 0 -19 -15zM342 453q5 6 15.5 21t16.5 32t6 18q7 14 7 25
q0 10 -5 10t-16 -6.5t-18 -17.5q-17 -28 -23 -45t-6 -40q0 -12 3 -18q1 0 3.5 1.5t16.5 19.5z" />
    <glyph glyph-name="quotesingle" unicode="'" horiz-adv-x="232" 
d="M171 446l31 129q8 36 12 81q3 24 29 24q19 0 33 -9.5t15 -9.5q35 -10 35 -39q0 -4 -1 -11.5t-9.5 -32.5t-14.5 -54l-27 -125q-3 -13 -14.5 -22t-26.5 -9q-9 0 -21.5 4t-15.5 4q-12 0 -24 14t-12 21q0 6 5 18t6 17z" />
    <glyph glyph-name="parenleft" unicode="(" horiz-adv-x="330" 
d="M151 -83q-28 4 -41.5 47.5t-13.5 99.5q0 108 24 205q24 100 83 216t134 207q5 6 18 14.5t18 13.5q13 13 32 13q12 0 26 -7.5t20.5 -21t6.5 -28.5q0 -13 -4.5 -33t-8.5 -28q-9 -20 -35 -20q-4 0 -11 -1.5t-19 -16.5q-39 -48 -74.5 -113.5t-58.5 -119.5
q-25 -61 -39.5 -131.5t-14.5 -129.5q0 -49 3 -62q3 -12 16 -33t13 -47q0 -13 -10 -24.5t-32 -11.5q-9 0 -19.5 6t-12.5 6z" />
    <glyph glyph-name="parenright" unicode=")" horiz-adv-x="330" 
d="M259 494q0 32 -2.5 76t-5.5 57q-2 9 -13.5 29t-11.5 32q0 13 5 18.5t10 6.5q1 0 15.5 9.5t28.5 9.5q12 0 28 -7t29 -22q6 -7 10 -21t8 -51q6 -49 6 -103q0 -116 -29.5 -228.5t-86.5 -202.5q-67 -106 -160 -177q-4 -3 -11.5 -7.5t-24.5 -4.5q-21 0 -31.5 9t-16 22.5
t-6.5 15.5q-8 14 -8 20q0 7 14 15.5t18 12.5q32 32 47 32q5 0 19 14q30 30 49.5 57.5t49.5 83.5q38 72 54 146t16 158z" />
    <glyph glyph-name="asterisk" unicode="*" horiz-adv-x="414" 
d="M481 546q17 0 26 -3q7 -2 12.5 -6.5t7.5 -13.5t2 -10l1 -7q0 -1 -9 -22q-5 -11 -12.5 -15.5t-40.5 -4.5q-3 0 -11.5 -0.5t-28 -4t-25.5 -4.5l-12 -4l6 -11q2 -3 12.5 -23t19.5 -30q13 -14 13 -24q0 -13 -9 -21l-7 -7t-14.5 -11t-17.5 -5t-18 5.5t-12 9.5q-21 27 -35 54
q-8 15 -10 15q-4 -4 -12 -17q-12 -20 -17 -34q-5 -12 -25 -24q-10 -6 -26 -6q-20 0 -37.5 9.5t-17.5 23.5q0 5 7 15l47 70l9 14l-3 2q-49 0 -73 4q-19 3 -27.5 9.5t-8.5 20.5l5 32q0 4 8 12q11 11 25 11q7 0 11 -1.5t7 -2.5q18 -3 39 -3l29 -2l3 3l-8 23q-6 14 -15.5 35.5
t-9.5 30.5q0 12 8 18q7 5 21 16.5t26 11.5q9 0 18 -4.5t12 -10.5q5 -9 7.5 -17t10.5 -38q4 -14 7 -17q3 1 11 11l24 30q15 22 23 28t20 6q34 0 48 -6q13 -5 19 -9.5t6 -10.5q0 -11 -11 -26q-6 -8 -17 -19l-13 -13q-28 -31 -30 -37l2 -2q45 7 60 7z" />
    <glyph glyph-name="plus" unicode="+" horiz-adv-x="590" 
d="M392 315l4 -3q17 0 54.5 4.5t55.5 4.5q27 0 43 -11t16 -24q0 -2 -1 -8t-7 -18.5t-6 -13.5q-5 -13 -17 -13l-16 2l-26 -2l-120 -11q-12 -1 -14 -8q-15 -44 -32 -142q-4 -24 -13 -29.5t-26 -5.5l-20 -5q-22 0 -33.5 8.5t-11.5 14.5q0 34 11.5 74t15.5 57l4 21q0 5 -5 5
q-29 0 -68.5 3t-49.5 8q-26 12 -26 65q0 7 10 15q12 9 25 9l21 -3q7 -1 36 -3t48 -2q27 0 33 2q5 1 7 8q21 61 28 90q6 29 12 42t14 15q39 14 50 14q17 0 31 -7t14 -16q0 -6 -9 -33l-13 -41z" />
    <glyph glyph-name="comma" unicode="," horiz-adv-x="260" 
d="M-18 -102l64 109l52 98q6 10 13.5 17.5t23.5 7.5q34 0 52 -28q0 -1 11.5 -15t11.5 -21t-4 -12l-128 -194q-15 -23 -36 -23l-34 7q-17 2 -25 13.5t-8 20.5q0 7 7 20z" />
    <glyph glyph-name="hyphen" unicode="-" horiz-adv-x="456" 
d="M445 294q0 -51 -24 -60q-5 -2 -22.5 -4.5t-23.5 -4.5q-10 -3 -49 -3h-24q-35 0 -89.5 3.5t-59.5 3.5q-11 0 -18.5 5t-18.5 32q-5 13 -5 24q0 17 10.5 24.5t33.5 7.5l165 -4l74 3q26 0 38.5 -6.5t12.5 -20.5z" />
    <glyph glyph-name="period" unicode="." horiz-adv-x="284" 
d="M221 101q8 -15 8 -31q0 -18 -8.5 -40.5t-20.5 -30.5q-16 -10 -38 -10q-40 0 -71 41q-9 12 -9 24q0 9 9 22.5t11 24.5q6 38 43 38q19 0 42.5 -10t33.5 -28z" />
    <glyph glyph-name="slash" unicode="/" horiz-adv-x="400" 
d="M466 695q20 0 42.5 -18.5t22.5 -31.5q0 -18 -13 -32q-4 -4 -23 -21t-24 -25q-25 -38 -67.5 -107.5t-135 -235t-118.5 -210.5q-53 -92 -74 -92q-15 0 -24.5 2t-20.5 9q-13 9 -20 16t-7 17q0 11 19 47l33 49l311 538q10 18 30 45t31 36q16 14 38 14z" />
    <glyph glyph-name="zero" unicode="0" horiz-adv-x="440" 
d="M361 573q2 0 6.5 2.5t9.5 2.5q19 0 47 -14q36 -19 44 -34q24 -48 24 -108q0 -84 -47 -194q-1 -1 -6.5 -18.5t-14 -36t-23 -44t-38.5 -62.5q-28 -44 -71 -72t-80 -28q-13 0 -40 10t-59.5 34.5t-46.5 52.5q-4 6 -9.5 31.5t-5.5 50.5q0 38 14 94.5t40 114.5q20 43 53.5 94
t104.5 134q10 11 42 11q19 0 30 -5q5 -2 14.5 -9t11.5 -7zM174 47q13 0 34.5 15.5t42.5 43t36 54.5q2 4 12.5 20t14.5 25q0 1 2 5t25.5 59.5t34.5 100t11 72.5q0 20 -7 40t-23 30l-8 3q-5 0 -11 -9q-50 -56 -93.5 -126t-67.5 -136q-7 -18 -10 -33.5t-3 -16.5
q-11 -44 -11 -97l5 -30q1 -2 5 -8.5t6.5 -9t4.5 -2.5z" />
    <glyph glyph-name="one" unicode="1" horiz-adv-x="440" 
d="M263 111q60 229 63.5 244t6.5 28q0 3 -3 3l-10 -10q-69 -85 -112 -132.5t-68 -70.5t-26 -25q-2 -4 -11.5 -7t-19.5 -3q-20 0 -30 10q-3 3 -11.5 8.5t-11.5 8.5q-15 16 -15 25q0 7 18 25q4 4 15 14.5t45 34.5q22 17 44 39q67 73 193 223q34 41 75 110q6 9 26 9
q18 0 38.5 -7.5t30 -19.5t9.5 -22q0 -7 -3 -13q-21 -52 -44.5 -129t-54.5 -207t-39 -161q-10 -30 -10 -60q0 -22 -9 -35t-23 -13l-27 -2q-34 0 -56 19q-6 6 -6 21q0 2 0.5 8t3 17t2.5 12q2 14 10 32.5t10 25.5z" />
    <glyph glyph-name="two" unicode="2" horiz-adv-x="440" 
d="M376 565q-51 0 -107 -80q-1 -2 -12.5 -13.5t-14.5 -18.5q-3 -6 -8 -12.5t-20 -8.5l-24 -4q-26 0 -40 14q-19 19 -19 45q0 3 2 11t13 23t12 16q23 33 90 73q25 15 49.5 23t77.5 8q25 0 55.5 -20t45 -40t14.5 -31q0 -36 -14 -80.5t-46 -94t-73 -93.5q-4 -4 -15.5 -16
t-99.5 -99t-88 -99l7 -4q12 -3 57 -3q47 0 76 7.5t45 45.5q13 31 16 34q5 5 18.5 10t26.5 5q29 0 49 -23q2 -3 4.5 -10t2.5 -11q0 -24 -13.5 -61t-21.5 -47q-12 -14 -44 -23t-139 -9q-91 0 -129.5 6t-52.5 17q-41 33 -41 68q0 12 34 51q21 23 106 108q124 124 178.5 203
t54.5 116q0 17 -12 17z" />
    <glyph glyph-name="three" unicode="3" horiz-adv-x="440" 
d="M340 543q-29 -15 -55.5 -34.5t-26.5 -29.5q0 -12 -12 -20t-15 -12t-14 -6.5t-22 -2.5q-23 0 -31 9q-7 6 -15.5 21.5t-8.5 20.5q0 28 64 82q4 4 19.5 8t18.5 6q74 46 126 46q35 0 52 -14l13 -5q6 -2 18 -9.5t19 -21.5q6 -10 6 -22q0 -15 -10 -35q-9 -23 -10 -24
q-47 -83 -102 -140q46 -9 70 -39.5t24 -79.5q0 -50 -36 -126q-37 -78 -81 -114t-104 -36q-41 0 -89 29t-99 89q-15 17 -15 35q0 12 7 17.5t25 5.5q13 0 25 1.5t16 1.5q19 0 29 -12q4 -5 19 -19t15 -25q0 -4 7 -12.5t22 -18t28 -9.5q8 0 17 5q28 18 47 43t37 65q8 19 17 46
t9 35q0 21 -11 37q-5 8 -17 8q-7 0 -21 -6l-29 -9q-1 0 -2.5 -1t-18.5 -11.5t-35.5 -16.5t-34.5 -6q-15 0 -27 4q-11 3 -19.5 17.5t-8.5 25.5q0 8 5 13q12 11 42 28q2 1 7.5 5t11 9.5l6.5 6.5q30 20 62 51t54.5 64.5t40.5 69.5l4 12l-3 3z" />
    <glyph glyph-name="four" unicode="4" horiz-adv-x="440" 
d="M238 148q0 5 -7 5q-103 0 -149 21q-20 8 -39.5 39t-19.5 40q0 21 12 34q7 8 65 74.5t113.5 125t112.5 107.5q16 13 21 21q15 23 39 23q14 0 28 -5q39 -15 39 -42q0 -12 -8.5 -34.5t-8.5 -28.5q0 -24 -8 -51l-46 -156q-14 -53 -14 -63q0 -5 4 -5q28 6 42 7.5t22 1.5
q37 0 52 -16q4 -2 10 -15q8 -17 8 -28q0 -8 -8 -13.5t-36.5 -7.5t-37.5 -3q-46 -7 -69 -12q-13 -29 -20 -88t-8 -65q-3 -22 -19 -22q-9 0 -19.5 2t-18.5 5.5t-35 20.5q-14 8 -14 28q0 11 8 57l6 28zM292 431q-70 -80 -151 -179l-4 -8q0 -6 14 -9q15 -3 57 -3l39 3q3 1 6.5 2
t5.5 9q6 42 42 161l9 35l-1 5q-2 0 -17 -16z" />
    <glyph glyph-name="five" unicode="5" horiz-adv-x="440" 
d="M241 404q29 12 69 12q36 0 68 -13.5t52 -42.5q21 -28 21 -77q0 -71 -54 -172q-41 -73 -88 -108.5t-96 -35.5q-83 0 -178 99q-14 17 -20 25t-6 16q0 10 10 14q4 2 17 14.5t30 12.5q5 0 18.5 -3t25.5 -10q18 -11 30 -32t19 -28q15 -15 25 -22.5t21 -7.5q8 0 22 13
q50 43 86 133l15 53q11 30 11 62q0 19 -5.5 28.5t-13.5 9.5q-17 0 -49 -17.5t-70 -55.5q-14 -14 -33 -14q-24 0 -54 18q-20 11 -20 20l3 9q13 42 40.5 132.5t39.5 126.5q3 10 25.5 22t37.5 12q12 0 28 -6q11 0 29 3q44 8 101 14.5t74 6.5q14 0 33.5 -8t36 -24.5t16.5 -28.5
q0 -11 -12 -21t-32 -10q-3 0 -19.5 2.5t-29.5 2.5q-37 0 -99 -7.5t-90 -15.5q-3 -1 -6.5 -2.5t-5.5 -9.5l-20 -61l-7 -25q0 -3 4 -3z" />
    <glyph glyph-name="six" unicode="6" horiz-adv-x="440" 
d="M423 537q-4 0 -15 -8q-104 -83 -176 -210q-5 -9 -5 -14l3 -2q6 1 12 5q17 10 69 25q27 8 59 8q29 0 55 -31q30 -36 33.5 -43.5t3.5 -14.5q0 -10 -7 -30q-22 -64 -67.5 -123t-116.5 -106q-14 -9 -34 -14t-38 -5q-24 0 -50.5 8t-45.5 23q-6 5 -22.5 17t-22.5 18
q-21 21 -21 60q0 25 8 49q36 107 78 186t76 121t63 67q5 5 31 30t53 43t55 18q24 0 47 -13t27 -23q4 -9 4 -20q0 -25 -32 -25zM317 235q-43 -17 -84 -41t-58 -51q-2 -3 -15 -20.5t-13 -39.5q0 -13 6 -23.5t15 -10.5q13 0 35.5 14.5t48.5 39.5q39 36 83 114q7 12 7 17
q0 6 -4 6q-8 0 -21 -5z" />
    <glyph glyph-name="seven" unicode="7" horiz-adv-x="440" 
d="M187 257q-21 0 -43.5 7t-28.5 17q-9 18 -9 41q0 26 23 26q17 0 31 -5q4 -2 22 -4t24 -2q39 0 42 4l12 13q6 8 30.5 41t45 62.5t40.5 68.5q5 10 5 17t-29 7q-40 0 -72 -6t-53 -24q-9 -8 -12.5 -25.5t-8 -22.5t-11.5 -7t-15 -2q-36 0 -52 21q-7 9 -10 29t-7 27q-5 11 -5 21
q0 11 10.5 21.5t34 16.5t62.5 12l54 7q28 5 91 5q34 0 60.5 -3.5t34.5 -8.5q22 -13 39.5 -31t17.5 -30q0 -11 -5 -26t-19.5 -36.5t-17.5 -25.5q-16 -26 -57 -77l-20 -27q0 -3 6 -3q52 0 77 -26q11 -12 11 -27q0 -8 -4 -16.5t-14 -8.5l-30 3q-33 0 -69.5 -8.5t-49.5 -10.5
q-60 -87 -97 -157t-37 -102q0 -5 -3 -10.5t-8 -5.5q-3 0 -12.5 -8.5t-19.5 -8.5q-14 0 -26 5q-16 9 -26 20q-19 21 -20 24.5t-1 4.5q0 25 28.5 78t94.5 152q0 4 -4 4z" />
    <glyph glyph-name="eight" unicode="8" horiz-adv-x="440" 
d="M190 341l-1 43q0 82 17 139t48.5 89.5t74.5 32.5q25 0 64 -13q14 -5 21.5 -14.5t10.5 -10.5q25 -11 54.5 -43.5t50.5 -85.5q6 -14 6 -29q0 -18 -10.5 -35.5t-28.5 -27.5q-136 -68 -156 -77.5t-43 -19.5q-3 -4 -3 -10q0 -5 4.5 -63t4.5 -98q0 -42 -5.5 -76t-16.5 -50.5
t-25 -18.5q-1 0 -11.5 -3t-18.5 -3q-23 0 -38 2.5t-32 12.5q-36 21 -69.5 54.5t-49.5 67.5t-16 62q0 38 20 65.5t74.5 58.5t63.5 37q3 1 6.5 3.5t3.5 10.5zM355 555q-30 -21 -47 -67q-11 -38 -11 -88l2 -5q6 1 26 12q9 5 45.5 21t50.5 28q13 10 13 29q0 22 -16 38
q-10 10 -14 10l-9 -3q-9 0 -17 7t-11 17q-2 4 -5 4zM182 58q3 2 4 6q10 31 10 79q0 23 -4 73q-2 13 -5 13l-11 -6q-22 -14 -35.5 -33.5t-13.5 -40.5q0 -27 14 -49q17 -23 27 -32z" />
    <glyph glyph-name="nine" unicode="9" horiz-adv-x="440" 
d="M298 279l-8 -3q-4 -2 -15.5 -7.5t-30 -9t-20.5 -4.5q-21 -8 -46 -8q-4 0 -18 3.5t-34 18.5q-5 3 -20 13.5t-24 28.5q-2 3 -11.5 17.5t-9.5 29.5q0 17 6 30q20 37 56 73.5t123.5 84t93.5 50.5q12 7 40.5 15.5t50.5 8.5q26 0 36 -10q6 -6 19 -14t20 -14q31 -21 31 -33
q0 -7 -2.5 -20.5t-19.5 -37.5q-7 -8 -13 -22q-14 -38 -54.5 -115t-57.5 -132q-5 -17 -25.5 -73.5t-29 -88t-11.5 -55.5q-1 -8 -15 -18t-31 -10q-15 0 -28 9q-17 12 -28.5 22t-11.5 20q0 4 8 26l82 221zM399 522q-115 -54 -159.5 -88t-74.5 -76q-11 -15 -11 -19q0 -6 10 -6
t25 5q75 25 133 69.5t84 91.5q12 22 12 26l-3 3z" />
    <glyph glyph-name="colon" unicode=":" horiz-adv-x="290" 
d="M331 366l-3 -34q-1 -6 -9 -22t-18 -24.5t-19 -8.5q-17 0 -44 9q-45 15 -45 53q0 15 9 35q2 5 7 12t6 9q6 13 13 20.5t24 7.5q10 0 21.5 -2.5t33.5 -21.5q9 -8 16.5 -18t7.5 -15zM204 144q15 0 27.5 -7.5t22.5 -17t11 -10.5q21 -16 21 -59q0 -13 -3.5 -24.5t-8.5 -14.5
q-28 -14 -53 -14q-11 0 -20.5 3t-17 12.5t-9.5 11.5t-13.5 14t-11.5 22q0 3 2.5 12.5t3.5 21.5q1 8 8.5 22t18.5 21t22 7z" />
    <glyph glyph-name="semicolon" unicode=";" horiz-adv-x="280" 
d="M184 112q26 -10 26 -40q0 -4 -1 -14t-9 -18t-10 -12q-20 -32 -64 -106.5t-72 -116.5q-10 -14 -28 -14l-39 4q-14 1 -24.5 11t-10.5 29q0 8 11 25q39 59 83.5 143.5t56.5 105.5q7 12 16.5 18t17.5 6q9 0 26 -9.5t21 -11.5zM298 357q4 -5 4 -19t-6 -30.5t-15 -24.5t-17 -8
l-37 -1q-41 0 -59 17q-12 11 -12 29q0 17 6.5 34t13.5 28q11 15 19 21.5t20 6.5q33 0 53 -25q4 -5 15.5 -14t14.5 -14z" />
    <glyph glyph-name="less" unicode="&#x3c;" horiz-adv-x="590" 
d="M429 130q8 -2 21.5 -3.5t19.5 -6t9 -6.5q12 -11 12 -21q0 -2 -1.5 -7.5t-12.5 -16.5l-12 -12q-14 -19 -41 -19q-12 0 -27 4.5t-37.5 17t-27.5 15.5q-32 17 -92 55.5t-95 60.5q-23 15 -23 32q0 10 7 27q2 4 7 10t7 11q1 3 5 9t57 37q15 9 75 42.5t86 49.5q6 3 20 12
t43 26.5t40 19.5q1 0 12 4t19 4l13 -1q5 -1 12 -4.5t12 -9.5t9 -17t5 -14q4 -8 4 -19q0 -13 -10 -20q-2 -2 -6 -2t-15.5 -5.5t-30.5 -17.5q-6 -3 -24.5 -9.5t-39.5 -18.5l-137 -79q-21 -12 -29.5 -17t-8.5 -8q3 -4 17 -13q16 -9 48 -29.5t52 -31.5q44 -24 58 -29z" />
    <glyph glyph-name="equal" unicode="=" horiz-adv-x="590" 
d="M314 371l77 4q1 0 3.5 0.5t54 6t81.5 5.5q26 0 39.5 -9t13.5 -29t-10 -38q-2 -4 -9 -7.5t-15 -3.5q-31 0 -62 -3l-152 -14l-24 -1q-33 0 -84.5 3.5t-69.5 8.5q-15 4 -21.5 19.5t-6.5 30.5q0 16 4 23q10 16 31 16q4 0 41 -6.5t79 -6.5zM286 245q93 0 164 10q33 5 58 5
q33 0 45 -12q14 -14 14 -21q0 -10 -5.5 -27t-5.5 -18q-3 -11 -19 -11l-22 2q-4 0 -54 -6t-97 -7.5t-88 -1.5q-115 0 -130 10q-13 9 -23.5 27t-10.5 31q0 7 4.5 12t4.5 6q2 11 23 11q1 0 47.5 -5t94.5 -5z" />
    <glyph glyph-name="greater" unicode="&#x3e;" horiz-adv-x="590" 
d="M417 293q-114 70 -126 75t-35 19t-27 16q-26 12 -26 38q0 5 1.5 12t3.5 10q1 1 6.5 14.5t13 18.5t17.5 5q11 0 24 -9.5t16 -11.5q15 -7 26 -17t22 -16q68 -38 204 -123q24 -15 24 -36q0 -5 -2.5 -12.5t-5.5 -11.5l-17 -20q-10 -21 -57 -46q-3 -2 -14 -8t-80 -45t-98 -58
q-20 -13 -44.5 -25.5t-57.5 -12.5q-18 0 -33.5 6t-18.5 19q-2 10 -6 18t-4 12q0 10 15 20l43 19l41 22q44 23 168 93q20 11 28.5 16t8.5 9t-10 10z" />
    <glyph glyph-name="question" unicode="?" horiz-adv-x="360" 
d="M364 262q10 -5 14.5 -9.5t7.5 -11.5q6 -15 6 -21q0 -15 -23 -19q-1 0 -12.5 -3.5t-19.5 -3.5q-94 0 -147 22q-6 2 -16.5 8.5t-22.5 26.5q-11 19 -11 35q0 11 7 18l6 12q13 23 30 45t33.5 41.5t37.5 41t24 24.5q29 31 50.5 56.5t21.5 34.5q0 8 -8 16.5t-18 8.5
q-8 0 -16 -5q-24 -14 -24 -34l1 -24q0 -25 -32 -25q-34 0 -56 28q-7 9 -7 39q0 19 7 37.5t16 27.5q16 15 40 23.5t49 8.5q54 0 95 -24q28 -17 41.5 -39t13.5 -42q0 -31 -18.5 -59.5t-90.5 -97.5q-38 -37 -66.5 -73t-28.5 -42t21 -6l33 2q34 0 62 -17zM183 110q9 0 27.5 -8.5
t39 -26t20.5 -27.5q0 -28 -10 -38q-11 -11 -26.5 -19.5t-30.5 -8.5t-32 8t-20 13q-1 1 -11 13.5t-10 18.5q0 16 4 28q7 23 17 35t32 12z" />
    <glyph glyph-name="at" unicode="@" horiz-adv-x="700" 
d="M454 186q-6 -9 -20.5 -20.5t-30 -17t-27.5 -5.5q-23 0 -48 15l-23 14q-21 13 -31.5 35t-10.5 48q0 24 9.5 59.5t29 73t34.5 54.5q69 77 125 77q12 0 31 -7.5t38.5 -23t26.5 -25.5q4 -6 5.5 -17t12.5 -17q15 -9 15 -24q0 -8 -5 -18q-20 -40 -34.5 -81t-14.5 -64
q0 -20 7 -20q6 0 18 10q22 18 42 57.5t28.5 79t8.5 67.5q0 29 -8 57.5t-26 50t-48.5 34t-71.5 12.5q-53 0 -111.5 -37.5t-107.5 -117.5q-32 -53 -48.5 -115t-16.5 -106q0 -46 17 -80.5t49 -55t78 -20.5q33 0 69 12.5t68 35.5q15 11 37 11q17 0 35 -9.5t25 -26.5q1 -3 5.5 -8
t5.5 -10.5t1 -14.5t-17.5 -14t-21.5 -8q-85 -59 -192 -59q-36 0 -82.5 15.5t-72.5 36.5q-57 45 -81 96t-24 117q0 71 20 137t67 140q21 33 50.5 64t65 53t74.5 34.5t76 12.5q66 0 115 -19.5t95 -63.5q77 -76 77 -181q0 -58 -22 -116.5t-55 -99.5q-45 -56 -99 -56
q-16 0 -38 7t-40 18q-19 12 -24 28l-2 4zM490 445q-11 0 -29 -15q-16 -13 -37 -41t-40.5 -66.5t-23.5 -58.5q-3 -15 -3 -28l2 -6l8 5l16 15q32 32 57.5 65.5t25.5 42.5q0 2 -3 5.5t-3 11.5q0 10 14 24q22 22 22 36q0 10 -6 10z" />
    <glyph glyph-name="A" unicode="A" horiz-adv-x="510" 
d="M325 167q-19 -7 -68.5 -23t-86.5 -24q-3 -1 -6.5 -2.5t-6.5 -8.5q-10 -26 -12.5 -38.5t-3.5 -26.5t-1 -31l2 -29q0 -6 -7 -10q-2 -1 -11.5 -9t-16.5 -11t-13 -3q-9 0 -19 5l-12 6q-11 6 -20 15.5t-11.5 23t-2.5 35.5q0 30 9 71l2 12q-1 3 -6 6q-30 17 -30 33q0 10 3.5 26
t11.5 29q6 9 18 9q13 0 32 -10l8 -3q4 2 9 11q150 271 274 451q11 17 44 20q2 0 13 2t18.5 3t13.5 1q26 0 40 -11q3 -3 7.5 -11.5t4.5 -11.5q0 -8 -7 -48t-7 -46l-3 -32q-7 -40 -14 -125.5t-7 -99.5q0 -9 5 -9q16 3 31 3q22 0 44 -5.5t34 -19.5q8 -9 8 -16q0 -6 -5 -13
q-11 -14 -26 -21.5t-44 -7.5q-36 0 -48 -12q-4 -4 -6 -22q-6 -66 -6 -163q0 -20 3 -38.5t9.5 -33.5t6.5 -17q0 -13 -12 -25.5t-26 -12.5q-17 0 -36 5.5t-30 16.5q-8 8 -14 47t-6 75q0 22 2.5 70.5t2.5 50.5q0 9 -3 9q-8 0 -22 -6zM369 521q-84 -141 -154 -281q-7 -14 -7 -17
q2 -3 5 -3q4 0 29.5 7t38.5 12l64 24q8 3 8 12q0 8 14 123t14 122l-2 12q-4 -1 -10 -11z" />
    <glyph glyph-name="B" unicode="B" horiz-adv-x="574" 
d="M459 386q30 0 45 -6q24 -10 48.5 -30.5t34.5 -40.5q8 -16 8 -37q0 -55 -36 -126q-6 -13 -31.5 -52.5t-31.5 -49.5q-22 -36 -66.5 -57t-100.5 -21q-23 0 -54 4.5t-49 11.5q-25 10 -41 20t-21 10q-15 0 -27 4.5t-47 33.5q-2 1 -4.5 4.5t-4.5 13t-3 10.5q-2 3 -15 15.5
t-18 19t-5 9.5q0 8 -8 21t-8 24q0 8 11 16t38 8l28 -2q8 0 11 15q29 141 77 272q9 25 9 29q0 5 -4 12q-7 13 -7 31q0 7 10 11q14 6 24 18t26 55q10 28 18.5 39t25.5 11t41 -12.5t29 -12.5q9 0 19 5q38 18 72 18q27 0 57.5 -9.5t52.5 -28.5q23 -20 23 -37l-2 -15
q-7 -23 -23 -51.5t-53 -73.5t-48 -60q-10 -14 -10 -16q0 -3 10 -3zM444 321q-43 0 -121 -52q-20 -13 -43.5 -23t-38.5 -10q-5 0 -9 -12q-8 -24 -17.5 -72t-9.5 -60q0 -6 8 -13q30 -27 54.5 -39.5t56.5 -12.5q23 0 45 23t42 59t40 76q9 18 17 46t8 51q0 17 -5.5 28t-26.5 11z
M282 359q20 28 25 34q7 7 31.5 33.5t44.5 49.5t30 37q16 23 31.5 50.5t15.5 34.5q0 5 -6 5q-7 0 -34.5 -8t-49.5 -21q-25 -15 -37 -32q-7 -10 -18 -38l-37 -100q-14 -35 -21 -63l2 -3q2 0 11 8.5t12 12.5z" />
    <glyph glyph-name="C" unicode="C" horiz-adv-x="472" 
d="M396 557q-22 -21 -38 -38.5t-71 -92.5q-77 -104 -124 -265q-4 -16 -4 -44q0 -31 11 -42q14 -14 20 -18t14 -4q17 0 45 14q20 10 46.5 30t61 52.5t36.5 34.5q4 3 12 7.5t36 4.5q35 0 51 -26q7 -11 7 -19q0 -4 -6 -9t-8 -7q-3 -3 -36 -38t-66 -61.5t-71 -43t-79 -16.5
q-19 0 -46 4.5t-42 11.5q-28 13 -54 36t-31 46q-6 28 -6 61q0 24 4.5 55t9.5 44q33 92 77 173.5t100.5 145.5t123.5 102q14 8 40 13.5t47 5.5q26 0 49 -9q3 -1 10.5 -4.5t13.5 -11t10 -11.5q39 -35 39 -61q0 -13 -17 -51q-20 -45 -27 -65q-8 -23 -39 -23l-18 2q-17 3 -25 6
t-18 11q-17 13 -17 29q0 14 17 38.5t18 35.5q1 6 7 18l5 12l-4 3q-6 0 -25.5 -9t-38.5 -27z" />
    <glyph glyph-name="D" unicode="D" horiz-adv-x="554" 
d="M93 124q29 119 91 277q8 21 8 26l-3 4l-18 -3q-14 0 -25.5 10.5t-11.5 32.5q0 27 10 40q5 7 12 13.5t51 36.5q44 31 102 53t111 22q36 0 68.5 -9.5t79.5 -44.5q38 -29 50.5 -55.5t12.5 -55.5q0 -26 -8.5 -55.5t-19.5 -51.5l-18 -41q-42 -89 -81.5 -152t-85.5 -109
t-101 -72q-17 -8 -30.5 -12.5t-33.5 -4.5q-12 0 -25.5 1.5t-41.5 7.5q-2 0 -7.5 -3t-26.5 -3q-20 0 -44 17q-10 7 -17 15.5t-15 11.5q-31 12 -55 31t-24 40q0 22 29 22l40 -3l15 -3q2 0 5 1t7 16zM366 536l1 -7q0 -5 -8.5 -15.5t-10.5 -13.5q-88 -194 -109 -253.5
t-31 -100.5q-18 -71 -18 -88q0 -2 1.5 -4t16.5 -2q9 0 21 3q36 7 65 36q125 125 201 318q11 29 17 46.5t6 31.5q0 32 -16 53.5t-48 21.5q-10 0 -25 -3t-36 -11t-22 -8q-4 -1 -5 -4z" />
    <glyph glyph-name="E" unicode="E" horiz-adv-x="508" 
d="M332 416q47 18 92 18q51 0 89 -23q20 -12 20 -37q0 -6 -8.5 -11.5t-24.5 -9t-23 -3.5l-32 3q-20 0 -42.5 -4.5t-62 -19t-56.5 -19.5q-9 -2 -18 -5.5t-13 -12.5q-1 -1 -2.5 -5t-16 -37t-21 -49t-14.5 -38.5t-12.5 -42t-4.5 -35.5q0 -12 3.5 -20.5t8.5 -8.5q8 0 30.5 5.5
t38.5 12.5l65 27q2 1 7.5 3.5t62 36t93.5 33.5l14 -2q7 -2 15 -10q33 -26 33 -35q0 -3 -3.5 -7.5t-8.5 -6.5q-13 -5 -19 -11q-15 -15 -27 -21q-116 -62 -173.5 -78t-92.5 -19.5t-59 -3.5q-13 0 -45 14t-46 34q-10 14 -10 45q0 48 23 123q6 20 21 58.5t18 46.5q-5 6 -9 16
t-4 18q0 7 4.5 13t19.5 10q8 2 14 4.5t13 17.5q20 46 33 82l5 17l-3 4l-20 -2q-16 0 -32 13q-8 7 -16 21.5t-8 24.5q0 11 11 14l42.5 12.5t134.5 47.5q44 16 124.5 34t138.5 18q36 0 52 -8q24 -12 39.5 -29t15.5 -31q0 -19 -21 -20q-8 -1 -16 -4t-11 -3q-5 0 -21.5 6.5
t-34.5 6.5q-63 0 -220 -47q-8 -2 -11 -11l-32 -84q-11 -28 -11 -31l2 -2q3 0 22 7z" />
    <glyph glyph-name="F" unicode="F" horiz-adv-x="446" 
d="M206 476q-38 -18 -54 -18q-20 0 -37.5 16t-17.5 27q0 6 6.5 18.5t7.5 15.5q1 6 11 9q63 15 151 52q19 8 147 41q25 6 60 11t59 5q111 0 111 -74q0 -1 -0.5 -4t-8.5 -7q-24 -13 -42 -13t-30 13q-8 9 -23 9q-7 0 -30.5 -5.5t-30.5 -6.5q-23 -3 -62 -13.5t-51 -12.5
q-5 -1 -6 -12.5t-3 -15.5q-42 -76 -65 -136q-6 -16 -6 -20l3 -3l22 4q15 4 56 11.5t65 11.5q1 0 9 2t15 2q10 0 31 -10q19 -9 30.5 -17.5t11.5 -24.5q0 -14 -17 -18q-21 -4 -90.5 -17.5t-104.5 -21.5t-53 -13q-11 -3 -14 -11q-7 -17 -23.5 -69t-18.5 -57q-5 -13 -5 -19
q0 -3 -3 -15.5t-4.5 -30t-1.5 -38.5q0 -13 -4 -20.5t-17 -7.5q-43 0 -77 21q-12 8 -12 18q0 19 4.5 48.5t18 77.5t14.5 53l4 19q-2 4 -5 4q-15 0 -27.5 12.5t-12.5 26.5q0 3 -3.5 9t-3.5 8q0 6 9 9l65 17q5 2 10 12l54 134q6 14 6 17l-2 3q-3 0 -15 -6z" />
    <glyph glyph-name="G" unicode="G" horiz-adv-x="596" 
d="M545 425q-22 6 -32.5 18t-10.5 23q0 7 11 21t13 19q3 9 8.5 17.5t6.5 9.5q7 14 7 35q0 19 -14 19l-25 -3q-15 -3 -34 -12t-40 -26.5t-39.5 -36.5t-22.5 -23l-26 -25q-63 -61 -110.5 -147.5t-66.5 -170.5q-7 -35 -7 -51q0 -18 8 -34q2 -5 7 -12.5t17 -7.5q14 0 45.5 13
t54.5 34q54 49 98 84.5t50 41.5q7 7 20 23t13 19l-3 2l-13 -4q-32 -13 -57 -13q-9 0 -23.5 2.5t-22.5 8.5q-19 14 -24.5 20.5t-5.5 16.5q0 13 2.5 20t21.5 10l43 7q27 6 63.5 18t54.5 12q29 0 57 -27q25 -24 25 -44q0 -13 -15 -43q-18 -37 -34.5 -87t-24.5 -97.5t-8 -75.5
q0 -7 -16.5 -17t-32.5 -10q-8 0 -16.5 3t-9.5 3q-16 2 -25 6t-9 23q0 23 12 73l-2 3l-10 -8q-57 -55 -113 -76q-15 -6 -43.5 -12t-43.5 -6q-58 0 -101 43q-19 19 -33 39.5t-14 47.5q0 63 23 138t65.5 147t100.5 137q35 39 90 81t100 59q29 11 65 11q27 0 65 -13.5t57 -27.5
q33 -25 33 -68q0 -18 -5 -37.5t-12 -39t-8 -22.5q-2 -6 -11 -17.5t-20 -18t-21 -6.5q-7 0 -18.5 5.5t-13.5 5.5z" />
    <glyph glyph-name="H" unicode="H" horiz-adv-x="562" 
d="M343 237l-96 -18q-7 -1 -10 -7q-12 -22 -22 -70q-9 -44 -14 -56t-5 -21q0 -4 3 -20.5t3 -27.5q0 -14 -6.5 -22.5t-28.5 -8.5q-10 0 -21 3t-15 7q-3 3 -16.5 10t-15.5 11q-1 3 -6 4q-6 1 -8.5 6.5t-2.5 10.5q0 25 3 34l4 17l2 16l10 52l3 21q0 3 -3 4l-31 -2q-52 0 -77 29
q-4 5 -8 22t-4 24q0 9 6.5 14t16.5 5t30 -5l15 -4q5 0 34 5t45 8q6 1 9 8q8 17 20 58t18 57q27 67 61 140.5t65 130.5q4 8 16 11.5t18 3.5q18 0 31 -8q4 -3 20 -9.5t21 -13.5t5 -15q0 -9 -4 -14q-17 -24 -57.5 -105.5t-68.5 -148.5q-20 -47 -20 -56q0 -5 4 -5l20 3
q52 9 108 25q8 2 11 9q11 24 25.5 61t34 96t23.5 72q3 9 8 12q21 15 30 15q2 0 13 -2t23 -2q20 0 33 -11t13 -21q0 -9 -1 -17.5t-4.5 -17.5t-4.5 -12q-8 -25 -29 -73t-24 -55l-7 -19l3 -3l8 2q33 11 55 11q9 0 18.5 -1.5t15.5 -4.5t7 -3t6 -1t10 -3t11 -6t12 -12t12 -19
q4 -8 4 -16q0 -19 -18 -19q-21 0 -45.5 -3t-66 -12t-54.5 -11q-11 -2 -14 -8q-15 -29 -25 -65.5t-10 -37.5q-11 -30 -19 -68t-19 -131q-1 -8 -10 -12.5t-23 -4.5q-19 0 -46 10q-13 4 -21 19.5t-8 41.5q0 15 3 24q8 26 23 90.5t23 90.5l3 13q0 4 -6 4q-10 0 -24 -3z" />
    <glyph glyph-name="I" unicode="I" horiz-adv-x="254" 
d="M132 -28q-3 0 -10.5 -9t-16.5 -9q-7 0 -14.5 5.5t-9.5 5.5t-6 1.5t-12.5 7.5t-10.5 7q-8 3 -11.5 6t-3.5 8q0 7 6 36t12 39q4 7 8 23q23 93 76 248.5t63 186.5q4 14 9.5 23.5t10 19.5t9.5 24l10 28q3 8 15 12t25 4q29 0 55.5 -11.5t26.5 -26.5q0 -18 -2.5 -28t-14 -22
t-18.5 -26l-9 -17q-35 -93 -94.5 -264.5t-59.5 -187.5l2 -15q0 -30 -10 -49t-25 -20z" />
    <glyph glyph-name="J" unicode="J" horiz-adv-x="400" 
d="M496 544q-106 -225 -161 -404q-8 -28 -25.5 -66.5t-30.5 -59.5q-19 -30 -44 -54.5t-47.5 -34.5t-39.5 -10q-22 0 -46 12.5t-28 13.5q-23 7 -42 28t-28.5 59t-9.5 79q0 51 8 85q5 23 18 40t26 17q10 0 19.5 -2t14.5 -2q10 0 21 -6t19 -18t8 -21t-8.5 -25.5t-10.5 -23.5
q-2 -10 -7.5 -20.5t-5.5 -42.5q0 -36 9 -60t17 -24q26 0 58 52q14 21 25.5 45t34.5 89q5 13 16.5 47t39 110t81.5 194q15 34 15 35q0 4 -5 4l-73 -18l-14 -7q-23 -14 -67 -14q-30 0 -44.5 6.5t-17.5 18.5q0 2 -5.5 7.5t-5.5 13.5q0 2 0.5 7.5t3 16.5t3.5 14q2 12 19 12
q36 0 123 19q111 24 147 24q14 0 26.5 -4t32.5 -18q25 -18 25 -31t-4.5 -24t-19.5 -30t-20 -29z" />
    <glyph glyph-name="K" unicode="K" horiz-adv-x="532" 
d="M297 396l19 7q71 35 114.5 62.5t81 60t118.5 115.5q5 5 16 5q7 0 20 -3.5t19 -6.5l27 -15q8 -2 14 -8.5t6 -12.5q0 -5 -10 -17q-94 -115 -231 -196q-32 -19 -59.5 -33.5t-53.5 -27.5l-34 -17q-11 -5 -11 -16q0 -8 7 -22q6 -11 10 -25.5t7 -20.5q24 -49 77.5 -122
t97.5 -111q6 -5 25 -16.5t25.5 -20t6.5 -17.5t-5.5 -16t-15.5 -8q-6 0 -11.5 -3.5t-17.5 -3.5q-29 0 -62.5 17t-64.5 54q-1 1 -3.5 4t-24.5 27t-38 44q-61 78 -99 171q-6 14 -8.5 20.5t-5.5 6.5q-1 0 -2.5 -1.5t-12.5 -24.5q-49 -107 -68 -210q-2 -13 -21 -24q-14 -8 -22 -8
q-14 0 -24 10q-7 7 -14 10q-16 6 -26.5 14t-10.5 20q0 4 4.5 16t5.5 16q33 106 91.5 249t133.5 288q7 13 12.5 16.5t6.5 5.5q7 9 19.5 17t23.5 8q10 0 20 -5q4 -2 8 -7t7 -6q4 -1 12.5 -3.5t15.5 -9.5q8 -8 8 -19q0 -10 -7 -21q-57 -89 -88 -156l-11 -26z" />
    <glyph glyph-name="L" unicode="L" horiz-adv-x="450" 
d="M247 73q83 24 166 59q8 3 17 3q12 0 31 -6t36 -18.5t17 -22.5l5 -19q0 -9 -4 -14q-6 -9 -31 -10.5t-32 -3.5q-18 -4 -110 -35t-130 -35t-53 -4q-51 0 -96 63q-5 6 -5 18q0 13 9.5 39.5t10.5 32.5q3 16 9 35q19 55 50 129.5t91 201t76 162.5q2 5 12.5 9.5t21.5 4.5
q13 0 25 -6.5t13 -6.5q40 -10 40 -34q0 -8 -6 -22t-6 -15q0 -2 -1 -8t-8 -12q-25 -22 -48 -83q-3 -8 -12.5 -25t-14.5 -29q-61 -133 -129 -321q-8 -22 -8 -31t6 -9q18 1 58 13z" />
    <glyph glyph-name="M" unicode="M" horiz-adv-x="654" 
d="M509 312q-4 -4 -17.5 -18.5t-44.5 -51t-32 -37.5q-8 -9 -16 -9q-6 0 -23 4t-20 5q-45 10 -57 30q-18 31 -20 89l-1 43q0 6 -3 6q-2 0 -4 -3t-14 -28q-21 -45 -42 -105q-30 -86 -45.5 -144t-15.5 -95q0 -12 -16.5 -17.5t-17.5 -6.5q-10 -7 -18 -7t-23.5 8t-16.5 8
q-16 3 -23.5 19.5t-7.5 26.5q0 23 15 51.5t18 39.5q16 62 47.5 142t95.5 214t87 189q5 12 8.5 18t10.5 6l29 -5q27 -3 47 -12.5t20 -23.5q0 -15 -9 -45l-17 -51q-6 -20 -8 -53q-3 -51 -3 -84l2 -82q0 -4 3 -7q4 0 20 17l16 16t87 82t104.5 104.5t41.5 50.5q4 5 8.5 9.5
t16.5 4.5q9 0 24 -4t18 -4q16 0 27 -18t11 -31q0 -3 -1 -7.5t-11 -19.5q-132 -197 -169 -510l-9 -88q-1 -16 -15 -16q-5 0 -12 2.5t-8 2.5l-12 -2q-6 0 -21 5t-34 19q-10 7 -10 14l3 27q22 134 38 212q14 69 31 114l4 14l-2 4z" />
    <glyph glyph-name="N" unicode="N" horiz-adv-x="598" 
d="M482 4q-27 -27 -53 -27q-9 0 -23.5 4t-23.5 9q-23 13 -35 23t-22 42q-12 38 -22.5 97t-21 128.5t-12.5 85.5q-2 15 -3.5 23t-4.5 8q-2 0 -4.5 -5t-8.5 -26q-4 -12 -13 -43t-26.5 -91t-30.5 -120q-14 -65 -14 -95q0 -26 -12 -36t-34 -10q-14 0 -23 2q-2 0 -7 1.5
t-11.5 5.5t-9.5 6q-21 12 -21 22q0 4 5 28t9 40q15 56 52 179t42 143l7 26q0 1 2 7t18.5 70.5t21.5 89.5q2 8 11 11.5t9 6.5q-17 38 -17 47q0 15 15 22q6 3 24 6.5t32 3.5q22 0 31 -9q7 -6 9 -14q10 -31 24.5 -91t31.5 -210.5t33 -220.5q4 -17 8 -23q5 6 13 24q6 14 22 55
t83 264l18 54q4 16 8 52.5t9 53.5q4 15 9 20t17 5q13 0 29 -4q5 -1 18.5 -3t20.5 -8q28 -22 28 -41q0 -10 -11 -32q-4 -8 -14 -38t-47.5 -149t-65.5 -197.5t-54 -143.5q-9 -22 -15 -28z" />
    <glyph glyph-name="O" unicode="O" horiz-adv-x="490" 
d="M456 598q72 -64 72 -171q0 -35 -10 -77q-50 -209 -131 -312q-18 -22 -57.5 -42.5t-85.5 -20.5q-35 0 -68 11q-15 5 -34.5 21t-29.5 31q-18 26 -25.5 52t-7.5 63q0 95 30.5 177.5t88.5 168.5q47 70 84 98q47 36 66 36q12 0 31 -8q29 -12 43 -14q17 -2 22.5 -5t11.5 -8z
M368 536q-3 0 -7 -3t-17 -16q-102 -108 -143 -241q-17 -55 -17 -127q0 -19 5.5 -39.5t13.5 -33.5q13 -20 31 -20q14 0 31 9.5t27 24.5q30 46 61.5 119t47 134.5t15.5 103.5q0 29 -9 52.5t-25 28.5q-5 2 -9 5t-5 3z" />
    <glyph glyph-name="P" unicode="P" horiz-adv-x="490" 
d="M226 204q-18 -56 -35 -126.5t-17 -85.5q0 -6 -9 -14q-4 -3 -14 -6t-19 -3q-16 0 -25 9q-3 3 -22 13t-19 21l4 20q1 6 5 22t11.5 47t17.5 55q4 10 5 21q0 4 2 13.5t15 46.5t14 41l5 19q0 3 -7 10q-15 15 -15 28q0 4 1.5 6.5t6 4t5.5 2.5q11 7 21 10l5 2.5t6 9.5l23 66
l4 13q0 4 -12 11q-11 7 -20 18.5t-11 13.5q-4 4 -4 13q0 16 36 40q87 58 142.5 84t100.5 35t80 9l21 -1q34 0 62 -23q19 -16 27.5 -32t8.5 -45q0 -25 -6.5 -50t-38.5 -85q-29 -55 -77.5 -110.5t-95.5 -90.5q-14 -11 -45 -21t-61 -10q-14 0 -29 3.5t-21 8.5q-12 10 -16 10
q-3 0 -10 -23zM489 582q-16 -5 -50.5 -14t-57 -18.5t-42.5 -29.5q-2 -7 -31 -83.5t-38 -112.5l-1 -9q0 -6 4 -9q4 -4 17 -12.5t18 -8.5q7 0 27 15q38 28 74.5 71t60.5 86q15 28 30.5 66t15.5 57q0 2 -0.5 4t-6.5 2q-7 0 -20 -4z" />
    <glyph glyph-name="Q" unicode="Q" horiz-adv-x="554" 
d="M387 41q-36 -32 -73.5 -46t-69.5 -14q-35 0 -52 7q-11 4 -32 19t-27 18q-36 17 -49 74q-10 47 -10 82q0 59 19 121q20 63 65 131.5t100 114.5q2 2 40 27q36 24 79.5 37t66.5 13q20 0 40.5 -8.5t22.5 -9.5q47 -16 67 -34q19 -17 28.5 -47t9.5 -83q0 -48 -31.5 -120
t-84.5 -149q-6 -9 -16 -21.5t-10 -16.5t9 -19q31 -55 71.5 -107.5t69.5 -73.5q17 -12 17 -18q0 -11 -13 -16.5t-29 -5.5q-19 0 -42 7t-36 18q-28 24 -58.5 58t-49.5 61l-9 10zM419 252q45 64 67 128.5t22 104.5q0 29 -9 51q-1 3 -4 7.5t-10 4.5q-25 0 -61 -17
q-95 -46 -173 -162q-30 -44 -49 -98t-19 -105q0 -45 12 -75t22 -30q22 0 60 26.5t57 49.5q6 7 6 14q0 4 -6 16q-54 108 -58 124l-5 25q0 22 34 22q14 0 29.5 -5.5t19.5 -5.5q27 0 35 -24l15 -49q3 -8 7 -10q3 1 8 8z" />
    <glyph glyph-name="R" unicode="R" horiz-adv-x="494" 
d="M204 192q-9 -39 -18 -94.5t-9 -79.5q0 -10 -16 -16.5t-32 -6.5q-15 0 -25 5q-20 10 -30 18t-10 18l4 28q23 147 96 359q3 8 12 26t12 27l8 25q0 3 -7 9q-11 8 -19 21t-8 22t8 15q25 19 63 37t77.5 26.5t70.5 8.5q30 0 66 -6.5t55 -21.5q30 -23 39 -41q16 -31 16 -66
q0 -46 -23.5 -94.5t-55.5 -82.5q-14 -14 -38.5 -31.5t-110.5 -43.5q-9 -3 -12.5 -4.5t-3.5 -4.5q0 -5 12 -25l52 -82l10 -12q18 -23 53 -58q27 -27 63 -35q14 -3 28 -21t14 -34q0 -12 -9.5 -19.5t-29.5 -7.5q-45 0 -100 34q-45 28 -87.5 77t-87.5 134q-12 24 -16 27
q-2 0 -4 -5t-7 -25zM263 327q12 0 27 6q6 2 18.5 5.5t26.5 11.5q49 30 80.5 78.5t31.5 112.5q0 15 -8.5 20.5t-23.5 5.5q-27 0 -57 -11q-9 -3 -12 -9q-49 -84 -87 -197q-5 -15 -5 -19q1 -4 9 -4z" />
    <glyph glyph-name="S" unicode="S" horiz-adv-x="432" 
d="M340 508q0 -46 13 -101q1 -4 4.5 -17.5t30.5 -112t35 -146.5q7 -42 7 -60q0 -72 -64 -96q-13 -5 -44 -5q-52 0 -103.5 22t-88.5 54t-60 60l-29 34q-13 18 -21 42.5t-8 40.5q0 14 5.5 26t16.5 17l12 2q28 0 59 -18q13 -8 26 -21t13 -19l-5 -35q0 -11 11.5 -29.5t37 -41
t46.5 -34.5q37 -21 51 -21q12 0 20.5 9.5t8.5 22.5q0 48 -4 74q-9 59 -38 159t-38 149q-10 52 -10 75l3 23q0 2 4 22.5t11 36t16.5 22.5t18.5 10t20 3q87 0 137.5 -39.5t62.5 -106.5q5 -28 5 -29q0 -21 -29 -21q-8 0 -23 4q-7 2 -15 6t-15.5 10.5t-15 14l-8.5 8.5
q-3 3 -8.5 25.5t-9.5 30.5q-3 7 -9 11t-10 4q-6 0 -12.5 -20.5t-6.5 -44.5z" />
    <glyph glyph-name="T" unicode="T" horiz-adv-x="388" 
d="M203 510q-55 0 -73 22q-5 6 -5 22q0 13 2.5 26.5t5.5 16.5q11 11 23 11q7 0 23.5 -3.5t44.5 -3.5q26 0 69.5 4.5t74.5 10.5q82 16 149 16q15 0 38.5 -8t46 -25t22.5 -26q0 -24 -21 -39q-5 -3 -16 -7t-17 -4q-12 0 -26 14q-2 2 -13 6t-15 4q-65 0 -132 -15l3 -8
q0 -1 -0.5 -2.5t-11 -20.5t-23.5 -42q-96 -177 -135 -382q-4 -21 -4 -57q0 -17 -8.5 -27t-24.5 -10q-25 0 -64 23q-9 5 -13.5 15.5t-4.5 21.5q0 18 4 34q60 240 140 411l8 20q0 4 -5 4z" />
    <glyph glyph-name="U" unicode="U" horiz-adv-x="600" 
d="M185 90q2 0 9 5t10 9l15 16q203 207 319 395l24 46q19 29 46 29l24 -3q9 -1 15 -4t12 -11l14 -21q6 -10 6 -17t-4 -14.5t-5 -9.5q-7 -20 -28.5 -58.5t-30.5 -61.5q-37 -99 -53.5 -200.5t-16.5 -216.5q0 -7 -6 -11t-15 -4q-6 0 -11 1t-11.5 4t-8.5 4q-7 2 -39 21
q-5 3 -13.5 8.5t-8.5 15.5q0 16 4 23q4 6 5 15q1 11 7.5 72t10.5 84l3 20l-2 2l-15 -16q-113 -135 -194 -205q-10 -8 -25 -13.5t-27 -5.5q-23 0 -43 13.5t-32 16.5q-30 8 -37 24q-5 12 -5 64q0 74 26 155q20 61 67 180t59 153q1 3 3.5 9t6 12t4.5 7q15 30 36 30q10 0 20 -5
t18 -8q13 -5 25 -13.5t12 -35.5q0 -5 -5 -14.5t-5 -10.5q-16 -40 -80 -180.5t-78 -236.5q-4 -27 -4 -52z" />
    <glyph glyph-name="V" unicode="V" horiz-adv-x="470" 
d="M258 145q21 28 40 64q55 104 139 253q38 67 38 119l-2 21q0 21 30 21h11q32 0 39 -9t10 -11q25 -17 25 -36q0 -20 -14 -66t-31 -72q-15 -23 -33.5 -56t-49.5 -92t-43 -80q-43 -80 -94 -150t-75 -70q-6 0 -15 3t-11 3q-3 0 -8.5 -3t-12.5 -3q-11 0 -28 7t-32.5 21.5
t-15.5 25.5q0 6 -6.5 19t-6.5 19l3 19l4 27q6 65 29 216t27 225q0 8 3.5 26t3.5 28q0 29 30 29l24 -1q28 -3 34 -5.5t10.5 -7t7.5 -10.5q6 -12 7 -29l-1 -21q-7 -48 -30 -185.5t-31 -205.5l-6 -56q0 -4 3 -7q6 0 28 30z" />
    <glyph glyph-name="W" unicode="W" horiz-adv-x="684" 
d="M205 130q6 3 20 20q94 113 132 198q11 26 13 33q13 63 23 70q5 4 12 4q1 0 5.5 -0.5t13.5 -3t10 -2.5q21 -3 34 -18q18 -21 18 -44q0 -10 -3 -19q-27 -87 -27 -178q0 -32 3 -65.5t7 -33.5q1 0 3.5 1t13.5 17q46 70 79 159.5t60 196.5q8 32 8 71q0 34 -11 59t-11 44
q0 29 23 29l30 -3q46 0 60 -32q14 -30 14 -86q0 -63 -20 -157q-48 -221 -165 -387q-25 -35 -54 -35q-14 0 -21.5 3.5t-12.5 3.5q-9 1 -19 3t-26 15q-2 1 -13.5 6t-17.5 10t-9 10q-7 15 -12 31t-12 74q-2 16 -5 17q-2 0 -9 -8.5t-11 -12.5q-22 -22 -51.5 -59.5t-52.5 -55.5
q-7 -5 -18 -10t-19 -5q-18 0 -53 28q-1 1 -17.5 6.5t-18.5 15.5q-4 15 -4 32q0 4 0.5 16t5 38t5.5 33q5 41 8 54q16 71 62.5 232t51.5 178q6 22 34 22q9 0 26 -4q10 -2 21 -6.5t25 -24.5q4 -5 4 -9q0 -5 -5 -17q-60 -144 -105 -336q-14 -59 -24 -115z" />
    <glyph glyph-name="X" unicode="X" horiz-adv-x="482" 
d="M209 167q-92 -102 -108 -175q-1 -3 -2.5 -6.5t-15.5 -8.5q-4 -2 -10.5 -8t-13.5 -6q-20 0 -41 9.5t-30.5 20t-9.5 17.5q0 11 4 24.5t16.5 35t15.5 27.5q3 7 14 24q17 26 42 55.5t75 77.5t68 67q13 14 13 20l-10 58q-20 126 -20 171q0 27 6 37q3 5 3 10l-3 20
q0 9 10.5 16.5t35.5 7.5q39 0 49 -18q2 -4 13 -18t11 -20q0 -2 -2 -10.5t-5 -22t-3 -41.5q0 -4 0.5 -15t8.5 -81q2 -17 5 -17q1 0 2.5 1t24.5 21q49 43 128 117t96 93q11 13 24 13q9 0 32 -8.5t24 -8.5q15 -5 24 -17t9 -23q0 -7 -3 -11q-15 -21 -65 -57.5t-66 -51.5l-44 -39
l-159 -137l-7 -7t-4 -9q0 -6 7 -39t26.5 -108t26.5 -106q2 -10 15 -29t13 -28t-9.5 -18t-27.5 -9q-25 0 -65 15l-9 4.5t-12 15.5q-14 29 -23 57.5t-20 101.5q-7 46 -8 52.5t-4 6.5t-8 -5.5t-17.5 -19.5t-16.5 -18z" />
    <glyph glyph-name="Y" unicode="Y" horiz-adv-x="502" 
d="M326 190q-17 -11 -40 -19.5t-43 -8.5q-17 0 -28 5q-14 6 -33.5 19t-28.5 21q-17 15 -29.5 32.5t-12.5 28.5l6 105q0 3 2 14t2 21q0 12 5 27t5 19q1 9 8 50.5t18 93.5t21 69q1 2 4 5.5t16 3.5q10 0 33 -4.5t27 -4.5q11 -1 19 -12.5t8 -25.5t-10 -38t-12 -33
q-34 -172 -40 -238l-5 -64q0 -3 0.5 -7.5t4.5 -4.5q8 0 19 7q62 39 111.5 89t105.5 156q2 3 12.5 24.5t19.5 36.5q20 35 34 53l5 5t10 3q16 0 38 -6.5t36 -21.5q2 -2 7.5 -12t5.5 -20q0 -7 -6 -15q-103 -144 -171 -353.5t-106 -496.5q-4 -33 -8 -38q-2 -3 -10 -3q-2 0 -32 5
q-24 4 -40.5 13t-19.5 22q-3 15 -3 29q0 13 3 32t10.5 48.5t9.5 39.5l11 59q17 91 67 264l8 30l-2 2z" />
    <glyph glyph-name="Z" unicode="Z" horiz-adv-x="560" 
d="M540 365q25 -4 47 -14t34 -25q6 -7 6 -19q0 -10 -6.5 -18.5t-17.5 -8.5q-2 0 -9 1t-18 1.5t-25 0.5q-46 0 -123 -16.5t-91 -18.5q-20 -17 -98 -72.5t-102 -103.5q-4 -8 -4 -16q0 -3 12 -9t23 -6q9 0 28 -4.5t28 -4.5q39 0 83.5 12t92 29.5t60.5 21.5q15 5 30 5
q14 0 29.5 -4t19.5 -12q3 -5 18 -25t15 -29q0 -4 -4 -8.5t-13 -4.5l-15 3q-1 0 -3.5 -2.5t-8.5 -5.5t-9 -4q-136 -57 -257 -57q-118 0 -209 58q-10 6 -28 33.5t-18 41.5q0 21 6 32q21 37 114 114q13 10 13 13q0 2 -6.5 4t-9.5 3q-20 7 -26 15q-10 13 -10 23l3 24
q0 10 8.5 19t25.5 9q10 0 42 -9t37 -9q11 0 38 4t32 7q204 127 263 215q5 8 5 13q0 6 -34 11t-63 5q-35 0 -63.5 -7.5t-44 -20t-21.5 -24.5q-5 -10 -28 -10q-18 0 -38 8.5t-29 25.5q-2 4 -7.5 19t-5.5 26q0 8 6 12q34 22 90.5 37.5t116.5 15.5q107 0 189 -47q10 -6 33.5 -29
t23.5 -35q0 -21 -5.5 -36.5t-43.5 -53.5q-3 -3 -12.5 -13.5t-24 -24.5t-41.5 -36q-15 -12 -15 -15q0 -1 1 -2t6.5 -1.5t7.5 -0.5z" />
    <glyph glyph-name="bracketleft" unicode="[" horiz-adv-x="326" 
d="M432 807l42 1q88 0 94 -25q1 -2 4 -6.5t3 -12.5t-7 -22t-14 -19q-10 -7 -34 -7l-51 2q-37 0 -47 -4.5t-19 -26.5q-43 -101 -131 -375.5t-115 -351.5q-13 -37 -13 -55q0 -3 1.5 -6.5t17.5 -3.5l86 4q46 0 46 -38q0 -4 -2.5 -16.5t-8.5 -20.5q-6 -7 -17 -14t-44 -7h-33
q-56 0 -94 3q-16 1 -33.5 13.5t-29.5 34.5t-12 32q0 6 1.5 20t19.5 68l218 657q22 68 36 98.5t26 46t30 23.5t80 8z" />
    <glyph glyph-name="backslash" unicode="\" horiz-adv-x="374" 
d="M265 680q14 -13 14 -37q0 -11 -4 -31.5t-4 -27.5q0 -36 4 -67q8 -60 34 -219.5t37 -247.5q7 -55 7 -87q0 -17 -2.5 -24t-9.5 -7q-2 0 -14.5 -5.5t-22.5 -5.5q-9 0 -22 5q-15 6 -25 25.5t-10 42.5q0 24 -5 60l-75 508q-4 27 -4 70q0 25 2 31q7 22 16 27.5t24 5.5l18 -1
q24 0 42 -15z" />
    <glyph glyph-name="bracketright" unicode="]" horiz-adv-x="326" 
d="M304 704q0 3 -3 7t-27 4l-76 -3q-44 0 -44 39q0 12 6 27t24 23q13 6 66 6q45 0 102 -3q26 0 52 -32q23 -28 23 -59q0 -16 -20 -76l-219 -656q-27 -82 -46.5 -120.5t-44.5 -47.5q-7 -3 -26 -6.5t-91 -3.5q-97 0 -100 24q0 3 -3.5 9t-3.5 10q0 9 7 23t14 19q8 7 34 7l52 -2
q29 0 42 2.5t24 27.5q26 59 58.5 153t96 294t91.5 281q12 35 12 53z" />
    <glyph glyph-name="asciicircum" unicode="^" horiz-adv-x="550" 
d="M439 587q-2 4 -6 5l-8 -3q-135 -81 -154 -98q-6 -7 -16 -7q-4 0 -17.5 4.5t-27.5 20.5q-10 13 -10 28q0 3 0.5 10t5 14.5t4.5 8.5q2 5 11.5 11t39.5 21l171 84q12 6 25 6q12 0 23.5 -6t17.5 -15q1 -2 6.5 -7.5t7.5 -9.5l85 -186q10 -20 10 -27q0 -11 -10 -15
q-1 0 -11.5 -10.5t-20.5 -10.5t-24.5 8t-20.5 21z" />
    <glyph glyph-name="underscore" unicode="_" horiz-adv-x="626" 
d="M-119 -96h700v-64h-700v64z" />
    <glyph glyph-name="grave" unicode="`" horiz-adv-x="510" 
d="M356 838l47 -35l85 -59q18 -13 23.5 -18.5t5.5 -11.5q0 -3 -3 -14t-3 -17t-7.5 -11.5t-15.5 -5.5q-21 0 -43 14l-100 64q-26 16 -50 26q-7 3 -13.5 9t-6.5 31q0 13 12.5 29.5t29.5 16.5q7 0 20 -6q9 -4 19 -12z" />
    <glyph glyph-name="a" unicode="a" horiz-adv-x="468" 
d="M320 124l-11 -9l-42 -40q-42 -40 -80.5 -59.5t-60.5 -19.5q-14 0 -33 12q-18 12 -49 37q-12 10 -19 26t-7 32q0 30 23 84t71.5 113.5t108.5 102.5q79 56 159 78q15 4 27 4q19 0 39 -9.5t35 -24.5q11 -11 17 -23q4 -8 17 -11q36 -9 36 -27q0 -9 -4 -14q-93 -122 -114 -205
q-13 -52 -13 -84q0 -44 19 -72l3 -10q0 -7 -7.5 -12.5t-19.5 -6.5q-2 0 -9 -2t-13 -2q-16 0 -34 8t-24 20q-4 8 -9.5 27.5t-5.5 41.5q0 9 0.5 18t1.5 24zM423 407q-8 0 -20 -7q-141 -73 -219 -168q-2 -2 -21 -29t-35.5 -59t-16.5 -48q0 -14 6 -14q4 0 16 6.5t23 17.5
q19 18 113.5 99t128.5 145q11 19 28 36q6 6 6 12q0 9 -9 9z" />
    <glyph glyph-name="b" unicode="b" horiz-adv-x="386" 
d="M180 101q30 39 53.5 80.5t43.5 115.5q4 15 4 35q0 16 -8 34t-8 34q0 4 4 16t14 24t19 12q10 0 21 -8q13 -10 25 -26q20 -26 37 -26q42 0 143 26q28 7 35 7l16 -2q13 0 26 -12.5t13 -27.5t-14 -18q-20 -3 -89.5 -27t-103.5 -24l-27 2l-5 -4l1 -19q0 -6 -3 -17t-4 -19
q-5 -28 -21.5 -62.5t-20.5 -43.5q-12 -29 -37.5 -64.5t-50 -54.5t-44 -25.5t-34.5 -6.5q-20 0 -35 6q-20 7 -41.5 22.5t-27.5 35.5q-7 25 -7 54q0 28 14 81.5t38 109.5q17 40 41.5 90.5t58 112t76.5 135t49 84.5q14 24 30 34t35 10q20 0 40 -7q13 -5 20 -12t8 -23
q0 -11 -5 -19.5t-24 -26.5t-25 -28q-3 -5 -67.5 -103.5t-82.5 -141.5q-8 -19 -45 -96.5t-48.5 -123.5t-11.5 -85q0 -24 5 -24q8 0 20 16z" />
    <glyph glyph-name="c" unicode="c" horiz-adv-x="346" 
d="M295 360l13 26q0 3 -4 3q-78 -91 -117 -160q-9 -16 -24.5 -48.5t-24 -59t-8.5 -39.5q0 -3 0.5 -7t9.5 -4q40 0 121 60q89 67 126 67q22 0 41 -20q9 -10 9 -18l-3 -9q0 -5 -2 -7.5t-9 -5.5q-27 -9 -107 -74q-91 -74 -152 -74q-21 0 -46.5 8.5t-46.5 24t-25 23.5
q-11 22 -11 47q0 30 17 75q1 2 4 16.5t7 22.5q15 32 47.5 87.5t68 100t63.5 64.5q24 17 49 17q15 0 41 -6.5t52 -21.5t30 -28q3 -10 3 -19q0 -7 -17 -48.5t-17 -54.5q0 -9 -8 -15t-18 -6q-20 0 -37 13l-23 18q-11 10 -11 22q0 14 9 30z" />
    <glyph glyph-name="d" unicode="d" horiz-adv-x="496" 
d="M407 423q18 19 47 56.5t86 137t93 149.5q3 4 9 9t21 5q22 0 43 -15t21 -29q0 -30 -19 -56q-4 -6 -11 -20t-12 -22q-1 -2 -73 -113t-91 -165l-15 -43q-74 -211 -74 -271q0 -21 4 -37t4 -17q0 -6 -6.5 -14t-12.5 -12q-10 -8 -23 -8q-17 0 -37 10t-22 18q-5 24 -5 57
q0 62 27 141l8 27l-2 2l-21 -23q-101 -128 -196 -183q-14 -8 -36 -8q-19 0 -50 14t-37 23q-16 27 -16 60q0 40 34 104q17 32 52.5 78t77.5 86.5t83.5 60.5t74.5 20q28 0 41 -7zM363 367q-2 5 -6 5q-5 0 -18 -5q-67 -35 -124.5 -99t-94.5 -142q-8 -17 -8 -26l3 -5q6 1 11 5
q43 34 93.5 87t124.5 150q19 22 19 30z" />
    <glyph glyph-name="e" unicode="e" horiz-adv-x="366" 
d="M411 98q-50 -46 -148 -102q-19 -11 -44 -11q-38 0 -109 37q-17 9 -31.5 29t-22.5 44q-13 37 -13 70q0 20 6 41q35 123 169 266q19 20 48.5 33.5t65.5 13.5q34 0 67 -12q16 -6 28 -22t12 -45q0 -27 -17 -63t-36 -60q-114 -140 -222 -205q-3 -2 -7 -4.5t-4 -7.5t6 -15.5
t12 -13.5q10 -5 19 -5q6 0 13 1.5t17 5t20 9t19 11.5t10 6q31 18 82 61.5t74 57.5q13 8 26 8q14 0 25.5 -9t11.5 -20q0 -8 -0.5 -15.5t-6.5 -13.5q-11 -10 -33.5 -33.5t-36.5 -36.5zM331 429q0 6 -5 6q-11 0 -42 -31q-33 -33 -61 -68.5t-50 -81.5q-11 -23 -11 -28l3 -3
q5 1 17 12q69 63 112 121q8 11 12.5 21t9.5 18q15 24 15 34z" />
    <glyph glyph-name="f" unicode="f" horiz-adv-x="268" 
d="M436 418q22 0 35.5 -9t13.5 -20q0 -17 -38 -32q-11 -5 -56.5 -25.5t-73.5 -25.5q-7 -1 -21 -8q-4 -2 -25.5 -9t-32 -14t-12.5 -14q-5 -15 -28 -82t-38 -118t-26 -102.5t-15 -103.5q-1 -8 -10.5 -18t-20.5 -14q-31 -11 -40 -11q-15 0 -29 12q-8 6 -12 14.5t-4 30.5
q0 27 15.5 73t21.5 76q5 28 43 141q34 102 34 117q0 8 -21 29.5t-25 34.5q-5 17 -5 25q0 10 5.5 17t17.5 7l18 -3q24 -9 29.5 -10t8.5 -1q2 0 6 2t6 8q56 134 88.5 203t69.5 129q6 9 23.5 17t35.5 8q22 0 40 -15t18 -32q0 -11 -14 -28.5t-15 -27.5l-5 -19q-11 -24 -54 -78.5
t-52 -88.5q-4 -15 -11 -31q-3 -6 -11.5 -24.5t-8.5 -20.5q0 -3 3 -4q20 0 77 24q51 21 95 21z" />
    <glyph glyph-name="g" unicode="g" horiz-adv-x="422" 
d="M205 87q-15 -15 -41.5 -29t-49.5 -14q-20 0 -34 7q-18 9 -43 29t-28 32t-3 22q0 20 12 51.5t26 55.5q31 50 88 113q83 89 153 116q29 11 53 11q31 0 62.5 -16t43.5 -33q10 -14 10 -42q0 -25 -6 -35q-60 -105 -106 -198l-9 -21l1 -2q5 2 20 14q54 44 115 80q7 4 13.5 7.5
t17.5 3.5q22 0 35 -11.5t13 -22.5q0 -13 -9 -21q-143 -106 -216.5 -181t-109.5 -159q-12 -29 -43.5 -103.5t-38.5 -87.5q-11 -21 -26.5 -33.5t-57.5 -12.5q-20 0 -39.5 11t-24.5 27q-2 6 -2 17q0 23 13 53t53 86l87 123q7 10 21 32.5t59 117.5q8 16 9 25l-1 2zM116 141
q4 0 18 10q42 29 100 87t119 144l9 16q0 9 -11 9q-2 0 -7.5 -1.5t-29.5 -18.5q-6 -4 -19 -12t-22 -16q-43 -40 -90 -98.5t-64 -100.5l-5 -16z" />
    <glyph glyph-name="h" unicode="h" horiz-adv-x="418" 
d="M287 229q-17 -23 -68 -98.5t-77 -105.5q-9 -10 -26 -18t-31 -8q-8 0 -17 3t-26 11.5t-23.5 18.5t-6.5 16q0 5 4.5 13.5t5.5 12.5q12 56 36.5 118.5t69 154.5t57.5 121q27 59 38 78q88 155 129 237q9 17 33 17l21 -2q17 -3 26 -7t18 -13q11 -13 11 -27q0 -23 -30 -58
q-15 -17 -37 -47t-59 -93.5t-147 -299.5q-9 -19 -9 -24l1 -2q7 3 12 10q34 48 80.5 106t81.5 93q24 24 29 25q20 6 29 6q8 0 23.5 -3t22.5 -6q11 -4 16.5 -13t5.5 -19q0 -23 -29 -74q-5 -8 -6.5 -11.5t-19.5 -47.5q-20 -48 -35 -105t-15 -105q0 -34 7 -46t19 -14
q29 -4 29 -17q0 -6 -5 -16q-4 -8 -24.5 -17t-34.5 -9q-20 0 -40 8q-56 23 -56 101q0 74 31 156l4 14l-2 3q-5 -3 -16 -17z" />
    <glyph glyph-name="i" unicode="i" horiz-adv-x="220" 
d="M207 109q25 17 34.5 20t18.5 3q24 0 35.5 -8.5t11.5 -20.5q0 -16 -16 -31l-41 -38q-20 -17 -47 -32.5t-54 -15.5q-39 0 -67 32q-37 42 -37 96q0 35 16 81l17 49q71 165 78 181t17 36q8 17 24 23.5t33 6.5q29 0 46 -12q4 -3 7.5 -10.5t3.5 -14.5q0 -13 -9 -32.5
t-30.5 -50.5t-24.5 -38l-58 -139q-7 -17 -15 -47t-8 -50q0 -10 1.5 -15t6.5 -5q12 0 57 32zM317 704q14 0 31.5 -5t26.5 -14q13 -13 13 -35q0 -15 -6 -21q-1 -1 -13 -14.5t-26.5 -24.5t-30.5 -11q-21 0 -36.5 9.5t-19.5 17.5q-8 15 -8 36q0 27 13 43q8 9 23.5 14t32.5 5z
" />
    <glyph glyph-name="j" unicode="j" horiz-adv-x="238" 
d="M206 233q34 31 59 47q23 13 36 13q16 0 26 -4.5t10 -17.5q0 -23 -13 -35l-33 -29q-81 -70 -180 -210q-19 -26 -32 -56q-19 -47 -54 -144.5t-57 -151.5q-5 -13 -17.5 -26t-30.5 -13q-8 0 -21.5 4.5t-14.5 4.5q-14 4 -25 16.5t-11 34.5q0 12 5 27q21 54 75.5 161t70.5 149
t21 59q2 8 23 64q1 2 46.5 122.5t63.5 179.5q3 10 19 24q3 3 10.5 6.5t33.5 3.5q31 0 41 -11q13 -15 13 -26q0 -4 -9 -22q-26 -54 -69 -155q-8 -19 -8 -26l2 -3q5 0 20 14zM381 640q0 -20 -14.5 -33t-16.5 -20q-4 -12 -10.5 -18.5t-24.5 -6.5t-40.5 10.5t-32.5 28.5
q-2 3 -5.5 15.5t-3.5 28.5q0 2 2 7.5t5 8.5q10 11 27 20t35 9q30 0 59 -24q20 -17 20 -26z" />
    <glyph glyph-name="k" unicode="k" horiz-adv-x="376" 
d="M263 373q66 49 88.5 75t33.5 43q7 11 21 23t34 12q16 0 41 -14q23 -13 23 -23q0 -12 -16.5 -36t-28.5 -33q-9 -7 -16.5 -16t-11.5 -13q-81 -66 -157 -112q-6 -4 -6 -11q0 -3 2.5 -9t2.5 -7l16 -50q4 -14 27 -61t29 -55q13 -17 25 -29t34 -23q12 -6 20 -6q10 0 15 -6
t5 -13q0 -13 -10 -20l-15 -13q-10 -10 -32 -10q-52 0 -100 48q-2 2 -8 6.5t-9.5 9t-6.5 9.5q-45 81 -73 162q-1 4 -3.5 10.5t-5.5 6.5q-4 0 -11 -20q-22 -62 -33 -112q-1 -3 -4 -22t-7 -30q-11 -34 -34 -34l-28 -3q-19 0 -32 11q-16 11 -16 31q0 13 10 44q9 28 39.5 112.5
t109 264t96.5 222.5l13 34q1 4 4.5 9t18.5 5l34 -3q51 -7 51 -41q0 -25 -22 -56q-22 -30 -33 -49q-20 -34 -56 -116t-36 -83q-8 -17 -8 -21l2 -2q5 0 24 14z" />
    <glyph glyph-name="l" unicode="l" horiz-adv-x="232" 
d="M142 61l8 3q22 15 55.5 50.5t51.5 47.5t36 12q13 0 28.5 -7t18.5 -14.5t3 -10.5q0 -11 -9 -19.5t-10 -9.5q-57 -70 -79 -89t-43.5 -30.5t-44.5 -11.5l-18 2q-20 4 -42.5 14.5t-40.5 29.5q-14 14 -19 29t-5 38q0 27 7 55t34 97q58 146 205 395q0 1 1.5 3t12 31t24.5 41
t30 12l34 1q14 0 26.5 -5.5t15.5 -11.5q9 -20 9 -31q0 -19 -11 -36q-22 -34 -85.5 -130.5t-101.5 -164t-63 -132.5q-3 -8 -15 -36t-17 -50.5t-5 -49.5q0 -22 9 -22z" />
    <glyph glyph-name="m" unicode="m" horiz-adv-x="684" 
d="M141 96q68 41 123.5 109.5t86.5 144.5q3 7 9 15t12 12q21 16 47 16q14 0 31 -7t29 -19q6 -6 6 -13l-4 -14q-9 -25 -41.5 -70t-42.5 -64q-17 -33 -30 -66t-13 -51q0 -5 3 -8l11 5q16 9 28 23q22 26 84.5 85t83 90.5t29.5 55.5q5 15 19.5 28t36.5 13l17 -2q3 -1 10 -4
t11 -4q15 -2 24 -5.5t17 -19.5q5 -10 5 -16q0 -11 -16 -24.5t-20 -19.5q-40 -66 -54 -105.5t-14 -72.5q0 -50 29 -93q5 -8 10 -11q15 -10 15 -21q0 -9 -9.5 -15.5t-23.5 -6.5q-4 0 -43 8q-18 4 -32.5 22.5t-24.5 40.5q-12 26 -16 52q-2 11 -3 16t-4 5t-19 -17
q-46 -49 -81 -68t-68 -19q-29 0 -58 14q-39 19 -47 38l-5 7q-4 0 -11 -7l-35 -26q-46 -31 -66 -31q-15 0 -37.5 5t-43.5 17.5t-25 27.5q-6 22 -6 49q0 60 44 138.5t55 103.5q10 23 26.5 51.5t24.5 51.5q4 12 22 23t49 11q17 0 32 -6t17 -16q0 -35 -11 -50q-52 -73 -86 -133
t-65 -143q-9 -23 -11 -35l3 -3z" />
    <glyph glyph-name="n" unicode="n" horiz-adv-x="420" 
d="M134 115q62 89 130 160q36 37 54.5 57.5t25.5 35.5q12 27 19.5 36.5t21.5 9.5q11 0 23 -4.5t15 -4.5q18 -2 26.5 -14t8.5 -23q0 -8 -10 -26q-48 -79 -68 -145q-4 -13 -8 -42.5t-4 -45.5q0 -13 7 -40q3 -12 31 -31q8 -5 13 -14t5 -17q0 -9 -8.5 -17t-24.5 -8
q-17 0 -37 4.5t-29 13.5q-5 5 -20.5 17t-20.5 19q-17 25 -17 68l1 26l-2 4q-4 -3 -14 -16l-52 -72q-10 -14 -22.5 -23.5t-17.5 -15.5q-12 -14 -37 -14q-7 0 -17 2.5t-15 5.5q-17 9 -35.5 22.5t-25.5 22.5q-3 4 -6 13t-3 16q0 12 5 33.5t6 28.5q1 5 3 13.5t7 23.5t12.5 32.5
t16 38t10.5 25.5q43 103 96 182q1 2 6.5 11t9.5 12q13 11 45 11q17 0 31.5 -6t19.5 -17q5 -10 5 -23q0 -18 -26 -48q-37 -40 -68 -99q-25 -46 -66 -153l-12 -34l1 -2q4 1 11 11z" />
    <glyph glyph-name="o" unicode="o" horiz-adv-x="368" 
d="M354 455q11 -29 19 -37.5t25 -8.5q5 0 29.5 1.5t44.5 1.5q33 0 55.5 -11t22.5 -24q0 -11 -18 -18q-6 -2 -12.5 -6.5t-14.5 -6.5q-11 -2 -35.5 -8.5t-37.5 -8.5q-14 -2 -37 -2q-6 0 -9 -11q-20 -83 -49 -146.5t-73 -111.5q-33 -36 -55 -48.5t-43 -12.5q-6 0 -16.5 2.5
t-16.5 5.5q-67 33 -80 67q-15 38 -15 82q0 41 18 93.5t68 128.5l24 29q66 94 123 94q16 0 35 -6t33 -18q11 -10 15 -20zM270 403q-8 0 -17 -12q-32 -42 -62.5 -93t-45.5 -94t-15 -71q0 -15 5 -29q2 -6 7.5 -13.5t8.5 -7.5q11 0 25 21q10 16 27 41.5t38.5 63.5t32.5 78.5
t11 74.5q0 25 -4 28q-6 5 -8 10z" />
    <glyph glyph-name="p" unicode="p" horiz-adv-x="440" 
d="M162 94q-4 0 -18 -27q-25 -50 -56 -132t-53 -168q-1 -4 -1.5 -17.5t-2.5 -17.5q-2 -5 -21.5 -10.5t-26.5 -5.5q-34 0 -45 19q-2 4 -8 12t-6 19q0 6 4 19q22 74 83.5 237.5t91 259t44.5 177.5q2 9 7.5 16t24.5 14q11 4 25 4q19 0 34.5 -8t15.5 -20q0 -7 -1 -17.5
t-11 -48.5l-4 -21l2 -4q5 2 14 12q46 50 82 71q13 7 29 7q31 0 88 -38q13 -9 19.5 -25t6.5 -33q0 -23 -8 -50q0 -2 -1 -15.5t-4 -22.5q-2 -6 -20.5 -55.5t-34.5 -84.5t-37.5 -66t-49.5 -56q-10 -9 -30 -9q-34 0 -65 19.5t-53 51.5q-3 5 -6.5 9.5t-7.5 4.5zM343 349
q-66 -58 -114 -136q-6 -10 -6 -24q0 -17 8 -40.5t19 -39.5q5 -7 11 -9q5 0 11 7q30 36 61 123q25 77 31 109l4 22l-2 4q-4 0 -23 -16z" />
    <glyph glyph-name="q" unicode="q" horiz-adv-x="386" 
d="M144 38q-10 -3 -23 -3q-12 0 -29 5t-25 10l-14 9q-37 24 -37 71q0 24 9 46q37 97 117 177.5t170 108.5q25 8 49 8q26 0 50.5 -10t35 -25.5t10.5 -29.5q0 -7 -3 -16.5t-23 -41.5q-3 -5 -3 -10q0 -7 4 -12t4 -9q0 -6 -7 -15q-67 -89 -122.5 -199t-92.5 -212t-60 -181
q-1 -3 -1.5 -18t-2.5 -27t-6 -22q-5 -15 -13 -25t-21 -10q-32 0 -68 25q-7 5 -7 17q0 7 12 54q18 70 55 177l14 42q7 30 21.5 62t15.5 34l6 19l-3 3zM340 384q-5 -4 -13 -6t-14 -6q-44 -27 -90 -70.5t-72 -83.5t-35 -68q-7 -20 -7 -34q0 -7 6 -7q8 2 29 15q38 24 78 69
t62 77q5 7 6 13q0 1 -2.5 4.5t-2.5 8.5q0 7 23 32t32 37q10 14 10 20l-2 2z" />
    <glyph glyph-name="r" unicode="r" horiz-adv-x="300" 
d="M228 353l10 6q43 32 76.5 48.5t50.5 16.5q9 0 30 -3.5t35.5 -13t21.5 -17.5q8 -9 8 -21q0 -9 -6 -21.5t-17 -19t-23 -6.5q-5 0 -21 4.5t-21 4.5q-4 0 -27.5 -12t-43.5 -25q-78 -50 -123 -114t-61 -137q-6 -26 -27 -44q-9 -8 -22 -8q-21 0 -45 27q-8 9 -13.5 20.5
t-5.5 19.5q0 10 4.5 22.5t23.5 40t24 41.5q40 114 60 190q10 37 10 50q0 4 -4.5 11t-4.5 12q0 10 16 18.5t36 8.5q14 0 27 -6t16 -10q16 -27 16 -54l-2 -26z" />
    <glyph glyph-name="s" unicode="s" horiz-adv-x="296" 
d="M258 421q-17 -20 -28 -41q-15 -27 -15 -58q0 -47 20 -171q17 -106 17 -126q0 -6 -8.5 -19t-30 -25.5t-44.5 -12.5q-15 0 -29 6q-49 20 -86.5 56.5t-63.5 80.5q-7 12 -7 18q0 12 13.5 26t35.5 14q16 0 25 -4q18 -9 24 -16q5 -8 22.5 -38t29.5 -44l13 -12l2 3l-13 77
q-9 47 -16 106.5t-7 73.5q0 24 10.5 61t25.5 61q19 31 46.5 48.5t48.5 17.5q42 0 68 -11t44 -31q10 -11 15.5 -31t5.5 -36q0 -21 -7.5 -43.5t-21.5 -40.5q-3 -3 -7.5 -8t-14.5 -5q-5 0 -20 3t-29 14q-3 3 -10 11.5t-7 21.5q0 9 3 13q17 31 17 48q0 9 -3 15q-3 7 -7 7
q-5 -2 -11 -9z" />
    <glyph glyph-name="t" unicode="t" horiz-adv-x="262" 
d="M264 381l-3 -11l2 -2l10 2q31 7 65 20t54 26q8 5 18 5q19 0 42 -11t23 -24q0 -11 -10 -22.5t-25 -17.5l-45 -21q-23 -9 -76.5 -23t-74.5 -22q-9 -3 -16 -12.5t-16 -42.5l-12 -35q-2 -13 -22 -74.5t-23 -88.5q-3 -24 -16.5 -36.5t-30.5 -12.5q-12 0 -26 4.5t-23 10.5
q-15 10 -15 34q0 13 4 25q9 27 31.5 104.5t36.5 113.5q6 15 6 18t-8 8q-15 8 -31 29t-26 29q-9 8 -9 15q0 10 13.5 17t32.5 7q12 0 19 -2q6 -2 20.5 -7.5t18.5 -5.5q7 0 10 10l16 46q2 4 33 85.5t49 121.5q7 15 20 17q3 1 12 3t13 2q24 0 49 -9q18 -7 18 -16l-4 -24
q-5 -23 -18 -54.5t-39.5 -82t-31.5 -61.5z" />
    <glyph glyph-name="u" unicode="u" horiz-adv-x="420" 
d="M251 50q-27 -28 -54 -48t-45 -20q-10 0 -32.5 6t-39.5 16q-20 12 -29.5 27.5t-9.5 51.5q0 35 23 113l16 62q5 13 20 61t26 75t23 48q8 14 21.5 22t28.5 8q12 0 29 -6.5t22 -17.5q0 -1 5.5 -11t5.5 -16q0 -7 -5.5 -16t-15.5 -16q-20 -14 -27 -43q-9 -34 -38.5 -124.5
t-35.5 -130.5l-2 -18l2 -5q5 0 16 11q18 18 28 31.5t16 19.5q105 112 146 219q1 4 5 10.5t15 12.5q14 8 25 8q2 0 8.5 -1t16 -6t11.5 -6q29 -11 29 -29q0 -14 -6 -26q-24 -48 -44 -107.5t-28 -113.5q-6 -43 -6 -57q0 -25 9 -47q10 -25 10 -35q0 -8 -5.5 -16t-22.5 -8
q-23 0 -52 19q-5 3 -14 7t-14 17q-10 24 -10 57l2 38l-3 3q-4 -2 -20 -19z" />
    <glyph glyph-name="v" unicode="v" horiz-adv-x="378" 
d="M164 88q4 0 14 14q53 71 89 160q23 57 23 90q0 7 -2.5 14.5t-6.5 11.5q-16 16 -16 33q0 12 10.5 19.5t28.5 7.5q25 0 41.5 -7.5t27.5 -25.5q15 -25 32 -25q11 0 26 5q4 1 37 14.5t59 13.5q29 0 59 -17q19 -11 19 -25q0 -8 -11 -14q-30 -17 -109 -39l-22 -7q-13 -6 -31 -6
q-9 0 -22 2.5t-16 2.5q-4 0 -7 -2q-1 -1 -3 -3.5t-4 -13t-3 -12.5q-32 -119 -130 -240q-3 -3 -10 -11.5t-16 -17t-12 -11.5q-7 -7 -20 -13t-25 -6q-9 0 -19 3.5t-23.5 14t-17.5 13.5q-17 11 -26 19t-14 25q-4 13 -4 32q0 5 3.5 23.5t6.5 29.5l17 74q3 11 9.5 38t20.5 87
t21 110q4 27 38 27l20 -2q26 0 39 -13q9 -9 9 -29q0 -4 -2.5 -18t-15.5 -48.5t-14 -40.5q-7 -42 -25 -118.5l-22 -93.5l-3 -22z" />
    <glyph glyph-name="w" unicode="w" horiz-adv-x="540" 
d="M227 79q-1 0 -10.5 -12t-21.5 -24q-28 -28 -56 -28q-13 0 -30 9q-8 4 -27 13t-27.5 15.5t-11 16t-2.5 20.5q0 6 5 27q12 50 54.5 168t51.5 181q1 5 8.5 12t13.5 9q15 5 39 5q28 0 43 -10.5t15 -23.5q0 -10 -8 -22q-1 -1 -3 -4.5t-6 -13.5t-4 -11q-28 -65 -83 -236l-6 -22
l2 -2q4 3 13 14q46 62 76 111.5t52 100.5q8 18 31 18l23 -2q20 0 35.5 -12t15.5 -27q0 -4 -2 -13t-32 -60q-11 -19 -19 -49q-1 -2 -10 -31t-16.5 -60.5t-7.5 -51.5q0 -19 6 -19q10 0 27 22q19 24 35 62t24 77.5t8 54.5l4 37q0 11 -9.5 39.5t-9.5 40.5q0 16 12 26q4 4 21 6.5
t28 2.5q15 0 32.5 -13.5t18.5 -14.5q17 -12 55 -12q20 0 69 6.5t61 6.5q47 0 47 -38q0 -11 -11.5 -19.5t-40.5 -15.5q-7 -2 -47 -14t-72 -12q-8 0 -18.5 1t-22.5 3t-13 2q-5 0 -5 -5l1 -45q0 -35 -15 -87.5t-41.5 -98t-58.5 -77.5q-9 -9 -23.5 -14t-26.5 -5q-19 0 -45.5 9
t-51.5 23q-15 9 -23 20.5t-8 42.5z" />
    <glyph glyph-name="x" unicode="x" 
d="M241 319q4 0 17 11l131 100q3 2 9 5.5t20 3.5q15 0 30.5 -7.5t25 -23t9.5 -25.5q0 -2 -2 -4.5t-8 -5.5t-7 -4q-83 -48 -199 -149q-7 -6 -12.5 -12t-5.5 -23q0 -37 6 -105t6 -99q0 -42 -5 -72q-3 -13 -29 -13l-20 1q-16 2 -22 7t-10 7q-14 8 -20.5 15t-6.5 26q0 23 9 45
l3 11l-3 24l-4 58q0 10 -3 10q-4 -1 -8 -6q-36 -42 -39 -49.5t-3 -9.5q-2 -10 -18.5 -23.5t-35.5 -13.5q-6 0 -14.5 3t-12.5 6q-32 25 -32 42q0 11 10 23q11 12 62 68t75 86q9 11 9 31q0 19 -5.5 64t-14.5 65q-3 6 -5 9t-6 5t-6 5q-6 8 -6 15q0 13 14 23t34 10q26 0 48 -17
t32.5 -51.5t10.5 -59.5z" />
    <glyph glyph-name="y" unicode="y" horiz-adv-x="436" 
d="M152 114q6 1 12 5q25 16 37 27.5t27 28.5l36 39q6 7 33.5 36t50 66.5t41.5 89.5q3 10 12 22t24 12q6 0 18 -4.5t22 -5.5q12 -1 20 -4t14 -13q7 -11 7 -21q0 -22 -19 -50l-24 -35q-30 -44 -59 -126l-54 -148l-8 -26q1 -4 6 -5q8 -2 15 -7.5t7 -14.5q0 -11 -8 -22
q-83 -111 -117 -276q-10 -51 -15.5 -67t-14.5 -27.5t-18.5 -16.5t-19.5 -6l-35 -3q-18 0 -32 9q-18 12 -18 41q0 30 19 73q41 93 84 168q6 30 62 207l5 18q0 3 -3 4q-3 0 -26 -18q-16 -13 -36 -24.5t-28 -11.5q-71 0 -111 46q-9 10 -9 35q0 28 11.5 78t27.5 96q4 11 29 75.5
t35 98.5q3 11 15 22t28 11l12 -1q37 -6 46 -13q2 -2 8 -9t6 -19q0 -16 -11 -36q-3 -6 -12.5 -18t-12.5 -19q-23 -51 -43.5 -118t-25.5 -82q-13 -41 -13 -57q0 -3 3 -4z" />
    <glyph glyph-name="z" unicode="z" horiz-adv-x="384" 
d="M377 307q3 -3 14 -5q17 -3 36 -12t26 -17q10 -11 10 -20q0 -6 -8.5 -12t-22.5 -6q-26 0 -73.5 -8t-87.5 -20q-12 -4 -23 -8.5t-43 -38.5l-67 -72q-11 -11 -11 -20q0 -7 7 -11q11 -5 20 -5q7 0 24 5q21 7 38 7q15 0 49 16.5t48.5 19t20.5 2.5q29 0 56 -23q4 -3 7.5 -8.5
t3.5 -10.5t-4 -10.5t-11 -8.5q-5 -2 -37 -15t-65 -24.5t-62.5 -16t-50.5 -4.5q-28 0 -60 8.5t-54 21.5q-19 11 -27 30t-8 36q0 18 4 26q3 7 10.5 18.5t45.5 54.5q14 16 14 17l-6 4q-27 9 -35 26q-12 24 -12 34q0 9 10.5 16.5t25.5 7.5q13 0 34.5 -7t35.5 -7q18 0 38 11
t49.5 40t42.5 36q28 15 43 40l-3 3l-12 -3q-15 -5 -29 -7q-23 -3 -46 -15.5t-40 -31.5q-5 -5 -12 -5q-21 0 -38 18.5t-17 43.5q0 12 6.5 22t17.5 13t43 11.5t61.5 14.5t56.5 6q30 0 61 -9t41 -20q2 -3 13.5 -13t13.5 -17q4 -11 4 -21t-7 -24.5t-51 -45.5z" />
    <glyph glyph-name="braceleft" unicode="{" horiz-adv-x="346" 
d="M228 300q22 -4 33 -17.5t11 -34.5q0 -36 -10 -66l-68 -216q-10 -32 -10 -43q0 -15 10 -24q9 -8 27 -8l30 1q28 0 39 -15q9 -12 9 -23q0 -15 -19 -34q-3 -3 -6.5 -9t-12 -8.5t-34.5 -2.5q-29 0 -58 6t-54.5 22.5t-36 39.5t-10.5 42q0 34 9 61l64 204q19 60 19 67
q0 9 -3.5 13t-27.5 4q-26 0 -37 6q-5 2 -6.5 7.5t-2.5 6.5q-1 2 -4 5t-4 6t-1 8l6 23q6 19 16 24t43 5q28 0 43 10t26.5 31.5t25.5 64.5l72 213q15 45 39.5 77.5t64 47.5t91.5 15q71 0 71 -23q0 -3 3.5 -9.5t3.5 -10.5q0 -9 -5 -18q-7 -14 -13.5 -20t-41.5 -6
q-24 0 -45.5 -5.5t-34.5 -21t-25 -46.5q-24 -59 -78 -233q-12 -39 -25 -62t-34.5 -36.5t-48.5 -17.5z" />
    <glyph glyph-name="bar" unicode="|" horiz-adv-x="270" 
d="M412 777q12 -11 12 -25q0 -22 -27 -49q-2 -2 -7 -9t-18 -39q-42 -104 -133 -390.5t-121 -370.5l-7.5 -22.5t-12.5 -32.5t-13.5 -25t-22.5 -12q-29 0 -46 14q-3 3 -13.5 8t-13.5 9t-3 10q0 23 7 44q2 6 11 23t12 26l258 774q18 55 33 75.5t42 20.5q11 0 24 -3t39 -26z" />
    <glyph glyph-name="braceright" unicode="}" horiz-adv-x="346" 
d="M221 310q-37 9 -37 55q0 26 11 60l70 220q14 45 14 52q0 9 -6 15t-35 6q-52 0 -66 8t-14 23q0 10 8 27.5t9 19.5q4 13 66 13h27q29 0 58.5 -14t47 -37t17.5 -56q0 -35 -21 -98l-57 -171q-17 -51 -17 -67q0 -8 6 -12t36 -4q28 0 39 -9q8 -7 8 -18q0 -9 -4 -19t-9 -20
l-6 -12q-7 -14 -49 -14q-31 0 -53 -24t-42 -82l-71 -210q-18 -55 -36 -82.5t-56.5 -43.5t-105.5 -16q-45 0 -62 7t-17 21q0 12 7.5 26.5t8.5 19.5q5 17 40 17q34 0 54 2t31 11.5t24 48.5l79 238q18 53 28 72t27 30.5t48 16.5z" />
    <glyph glyph-name="asciitilde" unicode="~" horiz-adv-x="550" 
d="M564 326q2 -5 7 -10t5 -10q0 -13 -13 -25q-44 -40 -80 -58.5t-59 -18.5q-35 0 -63.5 11.5t-66.5 53.5q-25 27 -41 27q-19 0 -61 -35q-16 -14 -49 -14q-12 0 -22 4t-14 16.5t-5 15.5t-6 8t-5 12q0 14 12 24q13 12 41.5 28.5t58.5 25.5t52 9q37 0 63 -18q15 -11 36.5 -34
t33.5 -32q14 -11 29 -11q13 0 27 8t38 28.5t34 20.5q15 0 29 -6.5t19 -19.5z" />
    <glyph glyph-name="uni00A0" unicode="&#xa0;" horiz-adv-x="246" 
 />
    <glyph glyph-name="exclamdown" unicode="&#xa1;" horiz-adv-x="320" 
d="M70 -138q0 35 11 66q4 11 15 22q3 3 7 19q14 58 41 141t49 161q7 23 27 23q7 0 22 -4q19 -5 34 -24.5t15 -31.5q0 -11 -7 -30q-3 -9 -4.5 -18.5t-4.5 -19.5q-49 -154 -60 -205q-2 -10 -5.5 -29t-9.5 -36q-2 -7 -11 -32.5t-12.5 -37t-4.5 -16.5t-8 -8.5t-19 -3.5
q-11 0 -20 2.5t-19 10t-15 10.5q-10 5 -15.5 13t-5.5 28zM318 470q10 -1 23 -10.5t13 -23.5q0 -12 -11 -38q-9 -22 -21 -29t-43 -7q-34 0 -46 24q-8 16 -8 33q0 21 15 49q7 12 23 12q12 0 30 -5t25 -5z" />
    <glyph glyph-name="cent" unicode="&#xa2;" horiz-adv-x="434" 
d="M360 379q-3 -1 -7 -12q-33 -92 -89 -275l-4 -16q0 -4 4 -4l13 4q17 7 30 20.5t16 15.5q18 13 38.5 21.5t34.5 8.5q8 0 19 -4t18 -9q17 -14 17 -24q0 -13 -21 -27q-96 -66 -151 -81q-18 -5 -34 -5q-3 0 -6.5 -2.5t-4.5 -5.5l-18 -52q-5 -14 -15 -23t-19 -9q-8 0 -16 4.5
t-16 11.5t-9 8q-16 12 -16 25q0 11 8 23q10 14 14 27l2 7l-6 4q-20 8 -42.5 27t-37.5 48.5t-15 54.5q0 61 18 102q25 58 56 105t76 81q40 30 60.5 35t32.5 5q10 0 12 8q13 43 25 55t29 12l23 -2q8 0 22.5 -6t14.5 -15q0 -7 -6 -15q-12 -16 -16 -25q-11 -23 -11 -28
q0 -3 15 -9q18 -7 29 -18q25 -25 34 -38.5t9 -31.5q0 -2 -1 -9.5t-8 -34t-8 -30.5q-7 -33 -14 -40q-8 -8 -25 -8q-26 0 -48.5 16.5t-22.5 30.5q0 11 10 40q14 41 14 52q0 2 -2.5 4.5t-4.5 2.5zM251 356q-50 -67 -67 -115q-21 -59 -24.5 -76t-3.5 -30q0 -22 8 -40q4 -8 8 -9
q1 0 2.5 1t6.5 17q35 112 82 252l3 12l-1 2q-4 0 -14 -14z" />
    <glyph glyph-name="sterling" unicode="&#xa3;" horiz-adv-x="490" 
d="M69 66v11q0 17 17 58l34 80l6 17q-1 3 -4 3q-11 0 -21 5.5t-14 12.5q-4 6 -5.5 18.5t-3.5 17.5q-5 13 -5 20t6 11t35 4l48 5q9 1 11 7l13 29q31 69 69 135t88.5 110.5t125.5 44.5q24 0 42.5 -7.5t28.5 -19.5q5 -7 20 -22.5t20.5 -27t5.5 -24.5q0 -8 -3 -20.5t-12 -34.5
t-11 -30q-1 -2 -3 -11.5t-4.5 -15.5t-6 -11t-10.5 -9t-17 -4q-6 0 -19.5 4t-16.5 5q-20 5 -30 12.5t-10 31.5q0 11 11 30t12 32q1 6 6 20t5 21q0 5 -4 5q-6 0 -19 -7q-31 -17 -67.5 -62t-66.5 -109l-14 -30l-7 -18l3 -3l12 2q42 8 54 8q27 0 49 -22q19 -19 19 -37
q0 -9 -3.5 -16t-15.5 -9.5t-13 -2.5q-17 -5 -28 -5q-15 0 -55 -8.5t-50 -9.5q-7 -1 -13.5 -2.5t-12.5 -15.5q-28 -63 -59 -149l-4 -14l4 -4l28 5q162 31 173 40t57 9q19 0 27 -2q9 -2 17 -7.5t16.5 -17t10.5 -13.5q4 -4 9.5 -10t5.5 -19q0 -12 -6.5 -19t-28.5 -7
q-35 0 -43 -1q-39 -6 -125 -24t-130 -25q-16 -2 -57.5 -5t-60.5 -3l-23 1q-17 2 -26.5 10t-14 23.5t-5.5 17.5q-7 18 -7 22q0 10 11 17.5t25 7.5l26 -2q3 0 4 3z" />
    <glyph glyph-name="currency" unicode="&#xa4;" horiz-adv-x="508" 
d="M310 478q8 2 25 2q32 0 54 -8l20 -6q4 1 9 7q16 19 47 45.5t53 42.5q16 11 37 11q19 0 33 -10t14 -25q0 -8 -7 -31q-6 -17 -24 -25q-10 -4 -39 -26t-45 -38l-5 -8l3 -9q14 -36 14 -64q0 -40 -20 -84.5t-44 -68.5q-6 -6 -6 -10t17 -50.5t23 -51.5q10 -9 10 -23
q0 -3 -1.5 -9.5t-15 -13.5t-17.5 -10q-9 -6 -19 -6q-16 0 -33 11q-10 7 -19 19t-9 18q0 12 -21 67q-3 9 -9 9q-19 -5 -47 -5q-29 0 -52 9l-12 4q-3 0 -12 -9q-108 -108 -129 -108q-24 0 -40 13t-16 28q0 10 8 28.5t20 20.5q7 1 53 43t46 51q0 3 -4 11q-11 22 -11 49
q0 42 22.5 89t48.5 73l4 7l-3 9q-31 73 -31 117q0 23 13 38t35 15q17 0 32 -9q13 -8 19.5 -15.5t6.5 -29.5l2 -18v-11q0 -5 0.5 -13t9.5 -30q5 -12 12 -12zM244 244q0 -4 5 -7q10 -6 16 -22q1 -2 2 -10.5t4.5 -11.5t8.5 -3q10 0 20 5q13 7 27.5 19t30 35t17.5 26
q7 11 15 33.5t8 39.5q0 13 -6 19l-22 21q-4 4 -4.5 11.5t-2.5 9.5t-13 2q-34 0 -69 -56q-13 -20 -25 -51t-12 -60z" />
    <glyph glyph-name="yen" unicode="&#xa5;" horiz-adv-x="474" 
d="M341 267q2 0 22 3t34 3q29 0 43 -12q9 -7 9 -17q0 -7 -3 -19.5t-7 -17.5q-1 -2 -4 -8.5t-7 -8.5t-11 -2q-1 0 -8 1t-22 1l-46 -4l-46 -4q-6 -1 -8 -7l-7 -18q0 -3 6 -3q72 7 87 7q9 0 20.5 -3.5t13.5 -6.5q11 -15 11 -26t-9 -32q-6 -14 -19 -14l-35 3l-31 -3l-66 -5
q-4 0 -8 -10q-6 -15 -14.5 -46t-8.5 -35l1 -14q0 -6 -7 -18.5t-9 -32.5q-1 -8 -15 -15.5t-27 -7.5q-10 0 -19 4.5t-11 4.5q-9 1 -24.5 9t-15.5 15q0 6 8 31.5t13 35.5l16 56l4 13q-1 3 -6 3l-31 -1q-32 0 -42 5q-13 7 -23 23t-10 28q0 6 3.5 11t3.5 7q2 11 22 11q11 0 34 -3
t51 -3q6 0 15 0.5t11 5.5l5 19q0 3 -6 3h-14q-53 0 -67 4q-11 5 -17.5 20t-6.5 29q0 16 9 23q1 1 3.5 4t5 4.5t6 2.5t10.5 1q1 0 31.5 -4.5t48.5 -4.5q5 0 11.5 0.5t6.5 8.5v122l3 122l-5 81q0 29 6 37t29 11l28 2q24 0 37 -12q6 -5 11 -20.5t5 -22.5l-9 -193l2 -16
q5 2 18 15q75 75 120 125q49 53 58 92q1 3 2.5 15.5t7.5 17.5t18 5l37 -4q9 0 15 -4t9 -4q24 0 24 -34q0 -19 -21.5 -57.5t-51.5 -68.5q-99 -99 -135 -137q-21 -22 -51 -48q-13 -11 -16 -16q1 -2 5 -2z" />
    <glyph glyph-name="brokenbar" unicode="&#xa6;" horiz-adv-x="292" 
d="M212 102q-17 -20 -27 -47l-91 -238q-7 -17 -24 -17q-11 0 -19.5 3t-12 10t-5.5 8q-28 15 -28 36q0 2 0.5 6.5t4.5 14.5t5 13q6 17 8 30t4 19l70 208q10 31 21 45t27 14t24.5 -3t18.5 -5q17 -3 29 -13t12 -32q0 -14 -6 -30t-11 -22zM186 424l21 62q46 133 60 170.5
t29 63.5q6 11 26 11q11 0 24.5 -5t16.5 -6q39 -9 39 -37q0 -7 -3 -19t-3 -16q0 -7 -9 -19q-23 -30 -44 -83q-4 -9 -59 -164q-6 -22 -11 -33t-11 -14q-4 -2 -14 -2q-11 0 -24.5 6t-16.5 13q-8 15 -19 22.5t-11 13.5q0 7 9 36z" />
    <glyph glyph-name="section" unicode="&#xa7;" horiz-adv-x="406" 
d="M300 48q-8 -8 -31.5 -16t-28.5 -8q-4 0 -4 -6l2 -54q0 -37 -15 -61q-25 -42 -67 -75q-23 -19 -77 -19q-34 0 -65 14.5t-49 47t-18 63.5q0 15 5 27t12 16q2 1 13.5 9t20 11t15.5 3q13 0 25 -8q10 -7 16 -43.5t11.5 -46t11 -13t13.5 -3.5q7 0 14.5 5.5t12.5 11.5
q19 25 19 60q0 40 -32 131q-13 38 -20.5 70t-7.5 72q0 20 5 51t15 47q17 29 47 58t65 40q5 2 11 4t6 7q0 2 -3.5 16t-3.5 38q0 75 67 135q42 38 117 38q14 0 31.5 -5.5t27.5 -14.5q13 -12 23.5 -39t10.5 -46q0 -25 -17 -31q-4 -2 -17 -7.5t-20 -7.5t-12 -2q-9 0 -17 4
q-4 2 -10 17q-3 9 -5 21t-2 13q-3 12 -5.5 18t-10.5 6q-12 0 -24.5 -9.5t-21 -30t-8.5 -36.5t6 -45t36 -96q15 -34 25 -74t10 -73q0 -86 -53 -139zM231 118q24 9 37 25q25 31 25 72q0 37 -33 126q-3 7 -4 9t-4 2l-13 -6q-31 -18 -44 -46q-12 -25 -12 -48q0 -22 6 -47.5
t14 -51t9 -29.5q3 -10 6 -10z" />
    <glyph glyph-name="dieresis" unicode="&#xa8;" horiz-adv-x="510" 
d="M371 821q11 -19 11 -35q0 -13 -10.5 -29t-10.5 -19q-1 -7 -16 -14t-32 -7q-13 0 -24 5t-19 16q-11 16 -11 24l1 18q1 7 5.5 22t7.5 19q12 20 44 20q13 0 30.5 -5t23.5 -15zM498 789q15 0 33.5 -7t21.5 -20q1 -5 6.5 -17.5t5.5 -21.5q0 -10 -11 -27t-19 -21q-10 -5 -30 -5
q-14 0 -27.5 6t-16.5 15q-1 4 -11 18.5t-10 27.5q0 9 5 23.5t14.5 22t19.5 7.5z" />
    <glyph glyph-name="copyright" unicode="&#xa9;" horiz-adv-x="796" 
d="M635 28q-34 -21 -81 -35t-128 -14q-41 0 -95 14t-88 38q-69 49 -99.5 107.5t-30.5 139.5q0 50 16 112t50.5 115.5t76.5 89t96.5 56t114.5 20.5q69 0 112.5 -10t74.5 -31t80 -70q82 -82 82 -203q0 -96 -50.5 -187.5t-130.5 -141.5zM715 383q0 69 -25 115t-72 71t-116 25
q-66 0 -121.5 -30t-94.5 -80.5t-59.5 -113.5t-20.5 -126q0 -40 12.5 -76.5t40 -62.5t66 -39.5t83.5 -13.5q71 0 129.5 28.5t98 76.5t59.5 107t20 119zM483 214q26 31 40 42t32 11h21q22 0 33 -8q2 -1 5 -4t6 -12q5 -7 5 -15q0 -5 -8 -11q-10 -8 -21 -21q-52 -64 -85 -83.5
t-65 -19.5q-31 0 -49 4q-79 17 -113 70q-23 36 -23 82q0 25 8.5 59.5t28 72t41.5 68.5q27 38 73.5 67t97.5 29q17 0 42 -5q38 -8 79 -49q10 -9 10 -27q0 -13 -7 -38t-7 -32q0 -16 -39 -16q-20 0 -40 6q-29 9 -29 28q0 10 8.5 29t8.5 25q0 9 -9 9q-14 0 -33.5 -12t-46.5 -45
t-41 -62q-15 -31 -28 -72t-13 -72q0 -52 40 -52q33 0 78 54z" />
    <glyph glyph-name="ordfeminine" unicode="&#xaa;" horiz-adv-x="442" 
d="M327 342q-81 -75 -117 -75q-24 0 -60 18.5t-47 46.5q-5 13 -5 30q0 18 11 50.5t64 103.5q8 11 38 38t63 48t62 31.5t55 10.5q32 0 58 -16q15 -9 24.5 -18.5t18.5 -14.5q3 -2 12 -4t15 -7q15 -12 15 -23q0 -6 -8.5 -16.5t-9.5 -11.5l-9 -14q-23 -32 -44 -79.5t-21 -87.5
q0 -31 14 -53q7 -12 7 -14q0 -5 -3.5 -12t-13.5 -9q-3 -1 -12.5 -3.5t-15 -3.5t-10.5 -1q-16 0 -30.5 9t-21.5 30t-7 48q0 13 -4 13q-3 0 -18 -14zM302 153l-198 -2q-39 0 -54.5 6.5t-20.5 29.5l-4.5 13.5t-3.5 22.5q0 11 7.5 16t41.5 5l28 -4q14 0 34 -3t33 -3h8t87 3
t147 3q22 0 31 -4.5t12.5 -11.5l4.5 -9q10 -12 10 -24q0 -3 -1.5 -13t-5.5 -16q-7 -10 -48 -10zM387 564q-31 -9 -67 -35.5t-68.5 -69.5t-48.5 -79q-7 -16 -7 -20l3 -3q5 0 21 11q46 31 99.5 78t61.5 68q4 11 25 36q8 9 8 14q-2 4 -6 4z" />
    <glyph glyph-name="guillemotleft" unicode="&#xab;" horiz-adv-x="410" 
d="M318 183l-63 93q-8 11 -8 25q0 8 4 22q5 17 17 29l77 84q28 31 37 37t25 6q35 0 45 -35q1 -3 6.5 -11.5t5.5 -13.5q0 -9 -7 -16q-9 -9 -19.5 -16.5t-20.5 -16.5l-50 -45q-9 -9 -9 -14q0 -4 5 -14l37 -77q4 -8 4 -22q0 -18 -15 -28q-3 -2 -12 -9.5t-19 -7.5q-9 0 -14 2
q-11 4 -26 28zM102 276q-4 5 -7 21t-3 23q0 8 4.5 18.5t12.5 19.5l65 74q24 27 34.5 37.5t23.5 10.5t25.5 -6t15.5 -15q0 -1 1 -2.5t10.5 -13.5t9.5 -25q0 -2 -2 -8.5t-17.5 -20.5t-21.5 -20l-45 -44q-8 -8 -8 -13l3 -10q35 -64 42 -70q11 -10 11 -39q0 -12 -5 -19
q-8 -10 -15.5 -15.5t-26.5 -5.5q-23 0 -38 30q-1 3 -12.5 18.5t-33.5 44.5t-23 30z" />
    <glyph glyph-name="logicalnot" unicode="&#xac;" horiz-adv-x="590" 
d="M442 243l4 22q0 6 -10 6h-1.5t-50 2t-109.5 2q-27 0 -53 -3t-60 -3q-15 0 -26 3t-12 8q0 1 -2 6.5t-2 9.5q0 8 4.5 23.5t13.5 31.5q3 6 16.5 9t82.5 3q95 0 207 -3q16 0 29.5 0.5t23 1t11.5 0.5q5 0 12.5 -1t21.5 -12q18 -14 18 -29q0 -3 -3.5 -12.5t-4.5 -12.5l-30 -119
l-7 -32q-3 -16 -8.5 -22.5t-40.5 -6.5l-26 -2q-12 0 -20.5 6t-8.5 17q0 8 9 35z" />
    <glyph glyph-name="uni00AD" unicode="&#xad;" horiz-adv-x="456" 
d="M445 294q0 -51 -24 -60q-5 -2 -22.5 -4.5t-23.5 -4.5q-10 -3 -49 -3h-24q-35 0 -89.5 3.5t-59.5 3.5q-11 0 -18.5 5t-18.5 32q-5 13 -5 24q0 17 10.5 24.5t33.5 7.5l165 -4l74 3q26 0 38.5 -6.5t12.5 -20.5z" />
    <glyph glyph-name="registered" unicode="&#xae;" horiz-adv-x="658" 
d="M715 446q0 -40 -16.5 -92t-54 -102t-101.5 -83t-152 -33q-33 0 -73 12t-67 28q-117 68 -117 191q0 72 36 152t101 129.5t147 49.5q70 0 112 -11.5t73 -44.5l35 -32q30 -25 43 -50q17 -26 25.5 -52.5t8.5 -61.5zM623 468q0 35 -10.5 64.5t-32 51.5t-54 34t-73.5 12
q-37 0 -75.5 -15.5t-75 -55.5t-54.5 -93t-18 -98q0 -31 7.5 -58t21.5 -49t44 -40t76 -18q95 0 153 53q45 41 68 98t23 114zM376 343q-2 0 -5 -12t-6 -35t-3 -31q0 -6 -10.5 -10.5t-22.5 -4.5q-16 0 -27 7q-3 2 -14 7t-11 13l3 24q6 43 24.5 108t39.5 108q-17 17 -17 28
q0 6 5 9q66 44 126 44q27 0 64 -13q10 -4 21 -14.5t13 -17.5q6 -18 6 -36q0 -45 -31.5 -82.5t-88.5 -50.5q10 -22 24 -44.5t35 -29.5q13 -4 16 -9q7 -11 7 -25q0 -30 -42 -30q-18 0 -37 9t-30 22t-19.5 27t-13 26.5t-6.5 12.5zM468 539l-10 -1q-3 -1 -7 -2t-7 -8
q-10 -21 -17 -36t-19 -50q12 4 29.5 18t26.5 32t9 34q0 13 -5 13z" />
    <glyph glyph-name="macron" unicode="&#xaf;" horiz-adv-x="510" 
d="M287 799q9 0 46 -1.5t87 -1.5l128 3q8 0 14 -2.5t9.5 -9t5.5 -8.5q6 -6 6 -10l-2 -12q0 -21 -5 -31q-7 -12 -26 -12l-35 1l-131 -2q-88 0 -108 6q-31 9 -31 62q0 18 42 18z" />
    <glyph glyph-name="degree" unicode="&#xb0;" horiz-adv-x="384" 
d="M486 545q0 -20 -13.5 -56t-36 -67.5t-45.5 -51.5q-11 -10 -32.5 -17t-43.5 -7q-32 0 -56 11q-25 11 -48.5 32t-35.5 49t-12 52q0 56 61 131q46 57 114 57q22 0 47 -8.5t46 -23.5q23 -17 39 -46t16 -55zM368 612q-8 0 -19 -10q-43 -39 -66.5 -78.5t-23.5 -72.5
q0 -22 8.5 -33t15.5 -11q12 0 21 12q50 66 68.5 96.5t18.5 51.5q0 12 -6 26q-8 19 -17 19z" />
    <glyph glyph-name="plusminus" unicode="&#xb1;" horiz-adv-x="590" 
d="M419 409l4 -3q17 0 55 5t55 5q27 0 42 -11.5t15 -24.5q0 -2 -1 -8t-7 -18.5t-6 -13.5q-5 -13 -17 -13l-16 1l-31 -2l-111 -10q-12 -1 -14 -8q-3 -9 -14 -56t-16 -84q-2 -11 -10.5 -19.5t-26.5 -8.5l-22 -2q-22 0 -33 8.5t-11 15.5q0 19 22 118l4 21q0 5 -5 5
q-27 0 -66 3.5t-49 8.5q-26 12 -26 65q0 7 10 15q12 9 25 9l21 -3q10 -2 35.5 -4t45.5 -2q27 0 33 2q5 1 7 8q20 58 27 87q6 28 12 41t14 15q39 14 50 14t28 -5.5t17 -16.5q0 -6 -8 -30l-13 -41zM521 83q0 -14 -8 -36q-4 -12 -14 -12l-29 2h-12t-97 -4.5t-126 -4.5
q-30 0 -77 3.5t-49 3.5q-18 0 -28.5 21t-10.5 51q0 8 11.5 13.5t31.5 5.5h4.5t46 -3.5t103.5 -3.5h11t96.5 4t97.5 4q19 0 36 -12q3 -2 8 -6.5t5 -25.5z" />
    <glyph glyph-name="uni00B2" unicode="&#xb2;" 
d="M337 581q0 5 -4 5q-5 0 -13 -4q-22 -11 -49 -49q-1 -2 -9 -9.5t-10 -12.5q-8 -17 -24 -17l-18 -2q-15 0 -28 6t-19.5 18.5t-6.5 23.5q0 5 2 10t8.5 14t8.5 12q7 11 26.5 26.5t38.5 25.5q24 13 38 18t55 5q15 0 36 -9.5t39 -29.5t18 -32q0 -36 -21 -84.5t-73 -104.5
l-123 -124q-14 -14 -14 -18t28 -4q31 0 49.5 5t29.5 30q8 19 13 24.5t13.5 8.5t22.5 3q28 0 45 -20q2 -3 4 -9.5t2 -11.5q0 -16 -8 -40t-17 -34q-12 -14 -42 -19t-91 -5q-67 0 -96.5 5t-41.5 15q-31 26 -31 51q0 4 8 16t16 21q21 23 77 79.5t82 86.5q35 40 57 76t22 54z" />
    <glyph glyph-name="uni00B3" unicode="&#xb3;" 
d="M320 553q4 7 4 12q-1 4 -4 4l-10 -4q-16 -8 -29 -19t-13 -16q0 -9 -9 -16t-10 -8q-6 -8 -31 -8q-23 0 -33 10q-6 6 -12 17.5t-6 15.5q0 9 5 19t20.5 23t19.5 17q3 3 14.5 6t13.5 4q53 33 93 33q11 0 20.5 -1.5t16 -5.5t8.5 -5q3 -1 12.5 -4t15 -7t9 -8.5t5.5 -8.5
q5 -10 5 -18q0 -16 -5 -26l-10 -24q-13 -21 -24.5 -36t-35.5 -35q-8 -7 -10 -12q1 -3 9 -6q52 -20 52 -80q0 -39 -25 -92q-29 -61 -63 -84t-73 -23q-68 0 -143 87q-12 14 -12 26q0 8 7.5 14t21.5 6l31 2q19 0 30 -12q3 -3 14 -13.5t11 -20.5q0 -3 10.5 -11.5t17.5 -8.5
q10 0 29.5 20.5t34.5 55.5q18 43 18 63q0 17 -8 17q-7 0 -11 -2l-21 -8q-20 -12 -35 -18.5t-31 -6.5q-25 0 -38 12t-13 28q0 7 4 11q11 9 30 20q6 3 15 10.5t14 10.5q70 48 104 104z" />
    <glyph glyph-name="acute" unicode="&#xb4;" horiz-adv-x="510" 
d="M312 769l61 24q74 30 89 43q6 6 20 6q21 0 35 -14q3 -3 8 -10t5 -26q0 -15 -5 -25q-4 -7 -19 -15.5t-61 -22.5l-99 -30q-13 -4 -26 -4q-14 0 -22 5t-19 18t-11 20q0 10 6 17t15 7z" />
    <glyph glyph-name="uni00B5" unicode="&#xb5;" horiz-adv-x="510" 
d="M343 62q-1 0 -3 -1t-11 -14q-20 -31 -48 -51.5t-43 -20.5q-34 0 -64 15.5t-37 35.5q-5 13 -5 30q0 12 -3 12q-6 -8 -25 -48q-62 -133 -117 -242q-1 -2 -7 -15.5t-9 -18.5q-13 -22 -28 -22q-25 0 -39 3.5t-23 14.5q-21 8 -21 35q0 12 5.5 23t43.5 55q2 2 7.5 10.5
t30.5 54.5q125 230 250 505q15 32 30 32q4 0 11.5 5t17.5 5l21 -3q23 -2 31 -15q2 -4 4 -11.5t2 -11.5q0 -12 -10 -29q-8 -12 -11 -21q0 -1 -2 -5t-17.5 -32.5t-20.5 -51.5q-4 -19 -14.5 -57t-13 -66.5t-2.5 -64.5q0 -18 0.5 -22.5t3.5 -4.5q4 0 11 7q3 3 10 10.5t26 33.5
t35 47q32 40 50 69.5t51 118.5q12 33 42 33q10 0 21 -5t15 -6q14 -2 22 -7.5t8 -20.5q0 -16 -7 -30q-56 -123 -70 -220q-8 -48 -8 -51v-6q0 -18 9 -40.5t9 -36.5q0 -29 -32 -29q-3 0 -12.5 1t-21 6t-12.5 5q-17 4 -24 16.5t-7 48.5q0 22 3 43z" />
    <glyph glyph-name="paragraph" unicode="&#xb6;" horiz-adv-x="544" 
d="M498 489l29 79h-8l-40 1l-15 -43q-49 -136 -76 -189l-7 -14q-5 -19 -33.5 -87t-30.5 -74q-5 -14 -19 -48.5t-41 -106t-27 -99.5q0 -6 -4 -20.5t-4 -16.5v-8l1 -11q0 -20 -23 -40t-53 -20q-18 0 -32.5 12.5t-14.5 29.5q0 24 7.5 62t17.5 63q57 147 73 183t29 61
q-38 7 -68.5 32t-47 58.5t-16.5 71.5q0 49 17.5 104t49 101t74.5 74.5t91 28.5q11 0 63 -3t82 -3h15q32 0 60.5 3.5t45.5 3.5q25 0 50 7.5t51 7.5q17 0 34 -6t28.5 -22t11.5 -29l-1 -18q0 -10 -29.5 -20.5t-43.5 -11.5q-33 -2 -46 -12.5t-22 -45.5t-16 -55l-36 -94l-8 -16
q-14 -26 -21 -49l-7 -20l-35 -95l-41 -114q-4 -11 -17.5 -46.5t-19 -52.5t-7.5 -27l-13 -63q-11 -44 -11 -47l1 -8q0 -24 -24.5 -38.5t-61.5 -14.5q-15 0 -25.5 12t-10.5 23q0 14 91 311z" />
    <glyph glyph-name="periodcentered" unicode="&#xb7;" horiz-adv-x="344" 
d="M229 360q16 0 31 -5.5t22 -15.5q19 -26 19 -49q0 -12 -7 -33t-16 -35q-8 -13 -23 -20.5t-30 -7.5q-12 0 -31 4t-32 11t-19 13q-11 13 -11 57q0 17 3.5 33t9.5 22q11 11 37 18.5t47 7.5z" />
    <glyph glyph-name="cedilla" unicode="&#xb8;" horiz-adv-x="338" 
d="M44 -67q26 -7 29 -22q1 -4 7 -7t11 -3q19 0 39 30t20 46q0 7 -4 15l-24 38h77l31 -48q10 -16 10 -35q0 -26 -17 -51q-25 -37 -48.5 -49.5t-50.5 -12.5q-32 0 -65 13q-26 10 -44.5 26.5t-18.5 33.5q0 16 11 23.5t18 7.5q5 0 11.5 -2.5t7.5 -2.5z" />
    <glyph glyph-name="uni00B9" unicode="&#xb9;" 
d="M293 421l2 9l-2 2l-10 -10q-24 -29 -49.5 -58.5t-45.5 -48.5t-21 -21q-2 -4 -10 -6.5t-17 -2.5q-21 0 -32 11l-17 12q-12 15 -12 20q0 6 14 20q11 11 38 31.5t35 29.5q45 51 135 156q23 27 52 77q5 8 24 8q23 0 45.5 -12t22.5 -28q0 -4 -4 -14q-14 -36 -30.5 -88
t-38 -142t-27.5 -114q-3 -10 -4.5 -31.5t-5.5 -30.5q-2 -4 -8.5 -11t-35.5 -7q-31 0 -50 17q-6 6 -6 17l4 27q2 9 7 22t7 19z" />
    <glyph glyph-name="ordmasculine" unicode="&#xba;" horiz-adv-x="408" 
d="M399 635q29 -5 51 -38q23 -36 23 -80q0 -26 -10 -61.5t-33 -74t-48 -68.5q-22 -25 -46 -38.5t-73 -13.5q-71 0 -109 49q-12 16 -22.5 40t-10.5 53q0 18 7.5 48t48.5 100q31 52 73 78.5t87 26.5q30 0 49 -15q6 -5 13 -6zM138 149q-67 0 -87.5 8.5t-22.5 23.5q0 3 -4 16
t-4 22q0 23 36 23q15 0 35.5 -4t59.5 -4q31 0 67 1t108 4q86 0 86 -19l-2 -7q4 -2 10.5 -9t6.5 -16q0 -10 -13 -25q-2 -3 -7.5 -6.5t-42.5 -3.5l-89 2q-15 0 -54.5 -3t-82.5 -3zM345 584q-5 0 -14.5 -5t-20.5 -20q-43 -58 -66 -105.5t-23 -79.5q0 -20 9 -34.5t21 -14.5
q4 0 13 3.5t28 31.5q0 1 1 2t14 20.5t28 46t23 49t9.5 35t1.5 16.5q0 19 -12 36l-8 14z" />
    <glyph glyph-name="guillemotright" unicode="&#xbb;" horiz-adv-x="410" 
d="M292 313q0 -10 -7.5 -22.5t-15.5 -19.5l-118 -107q-13 -13 -27 -13q-11 0 -29 11q-13 9 -13 27q0 21 11 34l84 85q6 6 6 13q0 5 -4 12l-25 48q-6 11 -14 25t-8 21q0 4 10.5 19t22.5 23t22 8q2 0 10 2.5t13 2.5q6 0 15 -5t13 -14l47 -113q7 -16 7 -37zM245 182q0 1 -4 7
t-4 9q0 8 4 12l93 99q5 7 5 13q0 5 -3 9q-7 9 -12 25l-17 32q-2 6 -12 18t-10 18q0 7 14.5 21.5t18.5 19.5q3 5 13.5 8.5t20.5 3.5q11 0 22 -4.5t15 -11.5q29 -53 55 -112q7 -15 7 -26q0 -14 -7 -27.5t-14 -20.5l-102 -101q-5 -5 -15.5 -13t-33.5 -8q-11 0 -19 5.5t-15 23.5
z" />
    <glyph glyph-name="onequarter" unicode="&#xbc;" horiz-adv-x="998" 
d="M727 92q-56 0 -94 16q-17 7 -31.5 30t-14.5 30q0 16 9 26q6 7 46 53t79 87t79 75l14 14q13 19 34 19q12 0 25 -5q36 -14 36 -35q0 -7 -5.5 -22.5t-5.5 -21.5q0 -16 -6 -37l-32 -109q-8 -28 -8 -32q1 -4 4 -4l25 2q34 0 48 -15q15 -17 15 -33q0 -14 -22 -16q-46 -5 -53 -6
t-20 -4q-3 -1 -7 -2.5t-7 -11.5q-4 -17 -8.5 -52t-5.5 -41q-3 -18 -19 -18q-10 0 -23 2.5t-38 19.5q-13 9 -13 24q0 7 10 62q0 5 -11 5zM830 620q0 -11 -3 -19t-12 -12.5t-11 -7.5q-4 -5 -17.5 -15.5t-17.5 -16.5q-16 -21 -59 -81t-130 -203t-124 -201q-23 -36 -47.5 -66
t-36.5 -30q-44 0 -61 25q-6 9 -6 26q0 11 4.5 20.5t11.5 12.5q5 2 15 13.5t32 46.5l298 460q30 46 62 76q26 25 49 25q18 0 41 -17q12 -10 12 -36zM332 421l2 9l-2 2l-10 -10q-24 -29 -49.5 -58.5t-45.5 -48.5t-21 -21q-2 -4 -10 -6.5t-17 -2.5q-21 0 -32 11l-17 12
q-12 15 -12 20q0 6 14 20q11 11 38 31.5t35 29.5q45 51 135 156q23 27 52 77q5 8 24 8q23 0 45.5 -12t22.5 -28q0 -4 -4 -14q-14 -36 -30.5 -88t-38 -142t-27.5 -114q-3 -10 -4.5 -31.5t-5.5 -30.5q-2 -4 -8.5 -11t-35.5 -7q-31 0 -50 17q-6 6 -6 17l4 27q2 9 7 22t7 19z
M778 246l10 36l-2 3q-4 -2 -22 -25l-67 -85l-10 -14q0 -4 19 -4l41 2q8 2 9 8q5 29 22 79z" />
    <glyph glyph-name="onehalf" unicode="&#xbd;" horiz-adv-x="998" 
d="M845 388q0 5 -4 5q-5 0 -13 -4q-21 -11 -49 -49q-1 -2 -9 -9.5t-10 -12.5q-8 -17 -24 -17l-18 -2q-15 0 -28 6t-19.5 18.5t-6.5 23.5q0 5 2 10t8.5 14t8.5 12q7 11 26.5 26.5t38.5 25.5q24 13 38 18t55 5q15 0 36 -9.5t39 -29.5t18 -32q0 -36 -21 -84.5t-73 -104.5
l-123 -124q-14 -14 -14 -18t28 -4q31 0 49.5 5t29.5 30q8 19 13 24.5t13.5 8.5t22.5 3q28 0 45 -20q2 -3 4 -9.5t2 -11.5q0 -16 -8 -40t-17 -34q-12 -14 -42 -19t-91 -5q-67 0 -96.5 5t-41.5 15q-31 26 -31 51q0 4 8 16t16 21q21 23 77 79.5t82 86.5q35 40 57 76t22 54z
M819 620q0 -11 -3 -19t-12 -12.5t-11 -7.5q-4 -5 -17.5 -15.5t-17.5 -16.5q-16 -21 -59 -81t-130 -203t-124 -201q-23 -36 -47.5 -66t-36.5 -30q-44 0 -61 25q-6 9 -6 26q0 11 4.5 20.5t11.5 12.5q5 2 15 13.5t32 46.5l298 460q30 46 62 76q26 25 49 25q18 0 41 -17
q12 -10 12 -36zM332 421l2 9l-2 2l-10 -10q-24 -29 -49.5 -58.5t-45.5 -48.5t-21 -21q-2 -4 -10 -6.5t-17 -2.5q-21 0 -32 11l-17 12q-12 15 -12 20q0 6 14 20q11 11 38 31.5t35 29.5q45 51 135 156q23 27 52 77q5 8 24 8q23 0 45.5 -12t22.5 -28q0 -4 -4 -14
q-14 -36 -30.5 -88t-38 -142t-27.5 -114q-3 -10 -4.5 -31.5t-5.5 -30.5q-2 -4 -8.5 -11t-35.5 -7q-31 0 -50 17q-6 6 -6 17l4 27q2 9 7 22t7 19z" />
    <glyph glyph-name="threequarters" unicode="&#xbe;" horiz-adv-x="998" 
d="M359 553q4 7 4 12q-1 4 -4 4l-10 -4q-16 -8 -29 -19t-13 -16q0 -9 -9 -16t-10 -8q-6 -8 -31 -8q-23 0 -33 10q-6 6 -12 17.5t-6 15.5q0 9 5 19t20.5 23t19.5 17q3 3 14.5 6t13.5 4q53 33 93 33q11 0 20.5 -1.5t16 -5.5t8.5 -5q3 -1 12.5 -4t15 -7t9 -8.5t5.5 -8.5
q5 -10 5 -18q0 -16 -5 -26l-10 -24q-13 -21 -24.5 -36t-35.5 -35q-8 -7 -10 -12q1 -3 9 -6q52 -20 52 -80q0 -39 -25 -92q-29 -61 -63 -84t-73 -23q-68 0 -143 87q-12 14 -12 26q0 8 7.5 14t21.5 6l31 2q19 0 30 -12q3 -3 14 -13.5t11 -20.5q0 -3 10.5 -11.5t17.5 -8.5
q10 0 29.5 20.5t34.5 55.5q18 43 18 63q0 17 -8 17q-7 0 -11 -2l-21 -8q-42 -25 -66 -25q-25 0 -38 12t-13 28q0 7 4 11q11 9 30 20q6 3 15 10.5t14 10.5q70 48 104 104zM830 620q0 -11 -3 -19t-12 -12.5t-11 -7.5q-4 -5 -17.5 -15.5t-17.5 -16.5q-16 -21 -59 -81t-130 -203
t-124 -201q-23 -36 -47.5 -66t-36.5 -30q-44 0 -61 25q-6 9 -6 26q0 11 4.5 20.5t11.5 12.5q5 2 15 13.5t32 46.5l298 460q30 46 62 76q26 25 49 25q18 0 41 -17q12 -10 12 -36zM727 92q-56 0 -94 16q-17 7 -31.5 30t-14.5 30q0 16 9 26q6 7 46 53t79 87t79 75l14 14
q13 19 34 19q12 0 25 -5q36 -14 36 -35q0 -7 -5.5 -22.5t-5.5 -21.5q0 -16 -6 -37l-32 -109q-8 -28 -8 -32q1 -4 4 -4l25 2q34 0 48 -15q15 -17 15 -33q0 -14 -22 -16q-46 -5 -53 -6t-20 -4q-3 -1 -7 -2.5t-7 -11.5q-4 -17 -8.5 -52t-5.5 -41q-3 -18 -19 -18q-10 0 -23 2.5
t-38 19.5q-13 9 -13 24q0 7 10 62q0 5 -11 5zM778 246l10 36l-2 3q-4 -2 -22 -25l-67 -85l-10 -14q0 -4 19 -4l41 2q8 2 9 8q5 29 22 79z" />
    <glyph glyph-name="questiondown" unicode="&#xbf;" horiz-adv-x="360" 
d="M94 -153q-54 30 -54 76q0 16 10.5 40.5t30.5 48.5q10 12 35.5 38t31.5 31q89 83 89 109q0 7 -7 10t-16 3q-19 0 -34.5 -9t-31.5 -9q-8 0 -23 5t-19 16q-1 2 -5 9.5t-4 11.5q0 22 26.5 37.5t73.5 15.5q23 0 49.5 -6t46.5 -17q49 -27 49 -68q0 -27 -9.5 -47t-37.5 -49.5
t-85 -81.5q-67 -60 -67 -92q0 -8 10 -14.5t15 -6.5q36 0 36 34l-1 20q0 10 8 18t26 8q31 0 50 -23q13 -17 13 -36q0 -21 -13.5 -46.5t-40.5 -37.5t-60 -12q-14 0 -36.5 3t-55.5 21zM290 480q8 0 26.5 -8.5t38.5 -25t20 -25.5q0 -14 -2 -21.5t-8 -14.5q-10 -10 -25 -18.5
t-29 -8.5q-15 0 -30.5 6.5t-20.5 14.5q-21 23 -21 30q0 11 5 28q12 43 46 43z" />
    <glyph glyph-name="Agrave" unicode="&#xc0;" horiz-adv-x="510" 
d="M325 167q-19 -7 -68.5 -23t-86.5 -24q-3 -1 -6.5 -2.5t-6.5 -8.5q-10 -26 -12.5 -38.5t-3.5 -26.5t-1 -31l2 -29q0 -6 -7 -10q-2 -1 -11.5 -9t-16.5 -11t-13 -3q-9 0 -19 5l-12 6q-11 6 -20 15.5t-11.5 23t-2.5 35.5q0 30 9 71l2 12q-1 3 -6 6q-30 17 -30 33q0 10 3.5 26
t11.5 29q6 9 18 9q13 0 32 -10l8 -3q4 2 9 11q150 271 274 451q11 17 44 20q2 0 13 2t18.5 3t13.5 1q26 0 40 -11q3 -3 7.5 -11.5t4.5 -11.5q0 -8 -7 -48t-7 -46l-3 -32q-7 -40 -14 -125.5t-7 -99.5q0 -9 5 -9q16 3 31 3q22 0 44 -5.5t34 -19.5q8 -9 8 -16q0 -6 -5 -13
q-11 -14 -26 -21.5t-44 -7.5q-36 0 -48 -12q-4 -4 -6 -22q-6 -66 -6 -163q0 -20 3 -38.5t9.5 -33.5t6.5 -17q0 -13 -12 -25.5t-26 -12.5q-17 0 -36 5.5t-30 16.5q-8 8 -14 47t-6 75q0 22 2.5 70.5t2.5 50.5q0 9 -3 9q-8 0 -22 -6zM369 521q-84 -141 -154 -281q-7 -14 -7 -17
q2 -3 5 -3q4 0 29.5 7t38.5 12l64 24q8 3 8 12q0 8 14 123t14 122l-2 12q-4 -1 -10 -11zM418 868l47 -35l85 -59q18 -13 23.5 -18.5t5.5 -11.5q0 -3 -3 -14t-3 -17t-7.5 -11.5t-15.5 -5.5q-21 0 -43 14l-100 64q-26 16 -50 26q-7 3 -13.5 9t-6.5 31q0 13 12.5 29.5
t29.5 16.5q7 0 20 -6q9 -4 19 -12z" />
    <glyph glyph-name="Aacute" unicode="&#xc1;" horiz-adv-x="510" 
d="M325 167q-19 -7 -68.5 -23t-86.5 -24q-3 -1 -6.5 -2.5t-6.5 -8.5q-10 -26 -12.5 -38.5t-3.5 -26.5t-1 -31l2 -29q0 -6 -7 -10q-2 -1 -11.5 -9t-16.5 -11t-13 -3q-9 0 -19 5l-12 6q-11 6 -20 15.5t-11.5 23t-2.5 35.5q0 30 9 71l2 12q-1 3 -6 6q-30 17 -30 33q0 10 3.5 26
t11.5 29q6 9 18 9q13 0 32 -10l8 -3q4 2 9 11q150 271 274 451q11 17 44 20q2 0 13 2t18.5 3t13.5 1q26 0 40 -11q3 -3 7.5 -11.5t4.5 -11.5q0 -8 -7 -48t-7 -46l-3 -32q-7 -40 -14 -125.5t-7 -99.5q0 -9 5 -9q16 3 31 3q22 0 44 -5.5t34 -19.5q8 -9 8 -16q0 -6 -5 -13
q-11 -14 -26 -21.5t-44 -7.5q-36 0 -48 -12q-4 -4 -6 -22q-6 -66 -6 -163q0 -20 3 -38.5t9.5 -33.5t6.5 -17q0 -13 -12 -25.5t-26 -12.5q-17 0 -36 5.5t-30 16.5q-8 8 -14 47t-6 75q0 22 2.5 70.5t2.5 50.5q0 9 -3 9q-8 0 -22 -6zM369 521q-84 -141 -154 -281q-7 -14 -7 -17
q2 -3 5 -3q4 0 29.5 7t38.5 12l64 24q8 3 8 12q0 8 14 123t14 122l-2 12q-4 -1 -10 -11zM348 807l61 24q74 30 89 43q6 6 20 6q21 0 35 -14q3 -3 8 -10t5 -26q0 -15 -5 -25q-4 -7 -19 -15.5t-61 -22.5l-99 -30q-13 -4 -26 -4q-14 0 -22 5t-19 18t-11 20q0 10 6 17t15 7z" />
    <glyph glyph-name="Acircumflex" unicode="&#xc2;" horiz-adv-x="510" 
d="M325 167q-19 -7 -68.5 -23t-86.5 -24q-3 -1 -6.5 -2.5t-6.5 -8.5q-10 -26 -12.5 -38.5t-3.5 -26.5t-1 -31l2 -29q0 -6 -7 -10q-2 -1 -11.5 -9t-16.5 -11t-13 -3q-9 0 -19 5l-12 6q-11 6 -20 15.5t-11.5 23t-2.5 35.5q0 30 9 71l2 12q-1 3 -6 6q-30 17 -30 33q0 10 3.5 26
t11.5 29q6 9 18 9q13 0 32 -10l8 -3q4 2 9 11q150 271 274 451q11 17 44 20q2 0 13 2t18.5 3t13.5 1q26 0 40 -11q3 -3 7.5 -11.5t4.5 -11.5q0 -8 -7 -48t-7 -46l-3 -32q-7 -40 -14 -125.5t-7 -99.5q0 -9 5 -9q16 3 31 3q22 0 44 -5.5t34 -19.5q8 -9 8 -16q0 -6 -5 -13
q-11 -14 -26 -21.5t-44 -7.5q-36 0 -48 -12q-4 -4 -6 -22q-6 -66 -6 -163q0 -20 3 -38.5t9.5 -33.5t6.5 -17q0 -13 -12 -25.5t-26 -12.5q-17 0 -36 5.5t-30 16.5q-8 8 -14 47t-6 75q0 22 2.5 70.5t2.5 50.5q0 9 -3 9q-8 0 -22 -6zM369 521q-84 -141 -154 -281q-7 -14 -7 -17
q2 -3 5 -3q4 0 29.5 7t38.5 12l64 24q8 3 8 12q0 8 14 123t14 122l-2 12q-4 -1 -10 -11zM475 783l-11 -3q-77 -34 -87 -44q-4 -4 -12 -4q-2 0 -8.5 1t-15.5 7t-10 7q-13 7 -13 32q0 8 1 15t5 11.5t5 5.5q6 9 58 27l88 31q11 3 20 3t19.5 -4t12.5 -8q1 -2 5 -5.5t7 -9.5
l59 -101q12 -19 12 -27q0 -4 -2 -7.5t-7.5 -8t-6.5 -5.5q-11 -13 -23 -13q-7 0 -17.5 5.5t-18.5 15.5l-54 74z" />
    <glyph glyph-name="Atilde" unicode="&#xc3;" horiz-adv-x="510" 
d="M325 167q-19 -7 -68.5 -23t-86.5 -24q-3 -1 -6.5 -2.5t-6.5 -8.5q-10 -26 -12.5 -38.5t-3.5 -26.5t-1 -31l2 -29q0 -6 -7 -10q-2 -1 -11.5 -9t-16.5 -11t-13 -3q-9 0 -19 5l-12 6q-11 6 -20 15.5t-11.5 23t-2.5 35.5q0 30 9 71l2 12q-1 3 -6 6q-30 17 -30 33q0 10 3.5 26
t11.5 29q6 9 18 9q13 0 32 -10l8 -3q4 2 9 11q150 271 274 451q11 17 44 20q2 0 13 2t18.5 3t13.5 1q26 0 40 -11q3 -3 7.5 -11.5t4.5 -11.5q0 -8 -7 -48t-7 -46l-3 -32q-7 -40 -14 -125.5t-7 -99.5q0 -9 5 -9q16 3 31 3q22 0 44 -5.5t34 -19.5q8 -9 8 -16q0 -6 -5 -13
q-11 -14 -26 -21.5t-44 -7.5q-36 0 -48 -12q-4 -4 -6 -22q-6 -66 -6 -163q0 -20 3 -38.5t9.5 -33.5t6.5 -17q0 -13 -12 -25.5t-26 -12.5q-17 0 -36 5.5t-30 16.5q-8 8 -14 47t-6 75q0 22 2.5 70.5t2.5 50.5q0 9 -3 9q-8 0 -22 -6zM369 521q-84 -141 -154 -281q-7 -14 -7 -17
q2 -3 5 -3q4 0 29.5 7t38.5 12l64 24q8 3 8 12q0 8 14 123t14 122l-2 12q-4 -1 -10 -11zM441 774q-8 13 -17 13q-11 0 -33 -14q-7 -4 -20 -4q-15 0 -31 6.5t-16 17.5q0 4 -4 17.5t-4 19.5q0 12 12 17l62 23q29 10 46 10q15 0 30 -8.5t37 -39.5q4 -5 11 -14t19 -9q11 0 30 8
q6 3 21.5 6.5t24.5 3.5q28 0 33 -25l5 -21q0 -8 -11 -15q-47 -31 -63 -37t-26.5 -7.5t-18.5 -1.5q-33 0 -61 22q-10 8 -26 32z" />
    <glyph glyph-name="Adieresis" unicode="&#xc4;" horiz-adv-x="510" 
d="M325 167q-19 -7 -68.5 -23t-86.5 -24q-3 -1 -6.5 -2.5t-6.5 -8.5q-10 -26 -12.5 -38.5t-3.5 -26.5t-1 -31l2 -29q0 -6 -7 -10q-2 -1 -11.5 -9t-16.5 -11t-13 -3q-9 0 -19 5l-12 6q-11 6 -20 15.5t-11.5 23t-2.5 35.5q0 30 9 71l2 12q-1 3 -6 6q-30 17 -30 33q0 10 3.5 26
t11.5 29q6 9 18 9q13 0 32 -10l8 -3q4 2 9 11q150 271 274 451q11 17 44 20q2 0 13 2t18.5 3t13.5 1q26 0 40 -11q3 -3 7.5 -11.5t4.5 -11.5q0 -8 -7 -48t-7 -46l-3 -32q-7 -40 -14 -125.5t-7 -99.5q0 -9 5 -9q16 3 31 3q22 0 44 -5.5t34 -19.5q8 -9 8 -16q0 -6 -5 -13
q-11 -14 -26 -21.5t-44 -7.5q-36 0 -48 -12q-4 -4 -6 -22q-6 -66 -6 -163q0 -20 3 -38.5t9.5 -33.5t6.5 -17q0 -13 -12 -25.5t-26 -12.5q-17 0 -36 5.5t-30 16.5q-8 8 -14 47t-6 75q0 22 2.5 70.5t2.5 50.5q0 9 -3 9q-8 0 -22 -6zM369 521q-84 -141 -154 -281q-7 -14 -7 -17
q2 -3 5 -3q4 0 29.5 7t38.5 12l64 24q8 3 8 12q0 8 14 123t14 122l-2 12q-4 -1 -10 -11zM401 828q11 -19 11 -35q0 -13 -10.5 -29t-10.5 -19q-1 -7 -16 -14t-32 -7q-13 0 -24 5t-19 16q-11 16 -11 24l1 18q1 7 5.5 22t7.5 19q13 22 44 22q13 0 30.5 -6t23.5 -16zM558 809
q15 0 33.5 -7t21.5 -20q1 -5 6.5 -17.5t5.5 -21.5q0 -10 -11 -27t-19 -21q-10 -5 -30 -5q-14 0 -27.5 6t-16.5 15q-1 4 -11 18.5t-10 27.5q0 9 5 23.5t14.5 22t19.5 7.5z" />
    <glyph glyph-name="Aring" unicode="&#xc5;" horiz-adv-x="510" 
d="M325 167q-19 -7 -68.5 -23t-86.5 -24q-3 -1 -6.5 -2.5t-6.5 -8.5q-10 -26 -12.5 -38.5t-3.5 -26.5t-1 -31l2 -29q0 -6 -7 -10q-2 -1 -11.5 -9t-16.5 -11t-13 -3q-9 0 -19 5l-12 6q-11 6 -20 15.5t-11.5 23t-2.5 35.5q0 30 9 71l2 12q-1 3 -6 6q-30 17 -30 33q0 10 3.5 26
t11.5 29q6 9 18 9q13 0 32 -10l8 -3q5 2 10 11q43 77 96.5 163.5t170.5 256.5q11 17 44 20q3 0 20.5 3.5t28.5 3.5q29 -2 42 -12q3 -2 7.5 -10.5t4.5 -11.5q0 -8 -7 -48.5t-7 -45.5l-4 -31q-5 -32 -12.5 -104.5t-7.5 -91.5q0 -9 5 -9q16 3 31 3q22 0 44 -5.5t34 -19.5
q8 -9 8 -16q0 -6 -5 -13q-11 -14 -26 -21.5t-44 -7.5q-36 0 -48 -12q-4 -4 -6 -22q-6 -66 -6 -163q0 -20 3 -38.5t9.5 -33.5t6.5 -17q0 -13 -12 -25.5t-26 -12.5q-17 0 -36 5.5t-30 16.5q-8 8 -14 47t-6 75q0 22 2.5 70.5t2.5 50.5q0 9 -3 9q-8 0 -22 -6zM368 496
q-18 -31 -62.5 -101t-88.5 -153l-9 -19q2 -3 5 -3q4 0 29.5 7t38.5 12l64 24q9 3 9 12l26 220l-2 12q-4 -1 -10 -11zM468 874q20 0 41.5 -7.5t37.5 -22t17 -24.5l2 -26q0 -34 -14 -62.5t-35 -40t-41 -11.5q-16 0 -40 5t-35 12q-20 12 -30 29.5t-10 31.5q0 25 21.5 63
t43.5 47q15 6 42 6zM479 815l-3 3q-3 -1 -7 -7q-6 -8 -13.5 -24.5t-7.5 -29.5q0 -15 8 -22l5 5q7 9 15 25t8 26q0 14 -5 24z" />
    <glyph glyph-name="AE" unicode="&#xc6;" horiz-adv-x="736" 
d="M339 193q-41 -12 -151 -37q-13 -3 -22 -22q-12 -27 -24.5 -72t-12.5 -57q0 -5 -6 -10.5t-7 -8.5q-4 -10 -9.5 -14t-16.5 -4q-24 0 -40 4.5t-30 22.5q-8 11 -8 30q0 31 32 105l5 14q0 3 -5 5q-6 0 -18 6t-12 15q0 35 10 54q4 8 9.5 15.5t20.5 7.5l41 -1q3 0 7.5 1.5
t12.5 13.5q63 98 183 239t133 158q3 4 8.5 10.5t16.5 7.5q6 1 29.5 6t36.5 5q8 0 24 -4t22 -10q10 -11 10 -22l-4 -22q0 -2 2 -3.5t4 -1.5l30 6q84 19 152 19q12 0 38 -4t32 -9q8 -6 22 -21t20 -25q5 -7 5 -18q0 -12 -12 -20.5t-33 -8.5q-8 0 -25 7t-36 7q-29 0 -66.5 -5
t-89.5 -19t-63 -17q-12 -3 -14 -17q-7 -44 -21 -105q-6 -27 -6 -34q0 -2 1.5 -3.5t3.5 -1.5q5 0 28 7q14 4 46 8.5t55 4.5q50 0 71 -17q9 -7 17 -21.5t8 -25.5q0 -9 -7 -16t-23 -7l-23 -3l-28 4q-37 0 -151 -43q-6 -2 -11.5 -5t-7.5 -13q-25 -133 -25 -180q0 -28 15 -28
q23 0 106 38q17 8 48 29.5t61 32.5q22 8 31 8q5 0 21.5 -5.5t35.5 -16.5t19 -21t-5 -17q-2 -3 -16.5 -13t-30.5 -19q-57 -34 -105 -55.5t-101.5 -32t-105.5 -10.5q-18 0 -41.5 9t-37.5 30q-10 14 -10 59q0 50 12 134l3 25q0 4 -4 4q-3 0 -23 -6zM417 501q-12 -16 -68 -87.5
t-93 -126.5l-10 -17l2 -2l19 4q49 14 104 34q7 2 13 5.5t8 15.5q1 8 5.5 30.5t17 71.5t15.5 63l5 23l-2 3z" />
    <glyph glyph-name="Ccedilla" unicode="&#xc7;" horiz-adv-x="472" 
d="M240 -53q0 -26 -17 -51q-25 -37 -48.5 -49.5t-50.5 -12.5q-31 0 -65 13q-26 10 -44.5 26.5t-18.5 33.5q0 16 11 23.5t18 7.5q4 0 10.5 -2.5t8.5 -2.5q26 -7 29 -22q1 -4 7 -7t11 -3q19 0 39 30t20 46q0 11 -11 18q-71 42 -79 79q-6 28 -6 61q0 24 4.5 55t9.5 44
q33 92 77 173.5t100.5 145.5t123.5 102q14 8 40 13.5t47 5.5q26 0 49 -9q3 -1 10.5 -4.5t13.5 -11t10 -11.5q39 -35 39 -61q0 -13 -17 -51q-18 -39 -27 -65q-8 -23 -39 -23l-18 2q-17 3 -25 6t-18 11q-17 13 -17 29q0 14 17 38.5t18 35.5q1 6 7 18l5 12l-4 3q-6 0 -25.5 -9
t-38.5 -27q-22 -21 -38 -38.5t-71 -92.5q-77 -104 -124 -265q-4 -16 -4 -44q0 -31 11 -42q14 -14 20 -18t14 -4q17 0 45 14q20 10 46.5 30t61 52.5t36.5 34.5q4 3 12 7.5t36 4.5q35 0 51 -26q7 -11 7 -19q0 -4 -6 -9t-8 -7q-5 -5 -32.5 -34t-57.5 -55t-63 -44
q-38 -21 -85 -26q-10 -1 -10 -6z" />
    <glyph glyph-name="Egrave" unicode="&#xc8;" horiz-adv-x="508" 
d="M332 416q47 18 92 18q51 0 89 -23q20 -12 20 -37q0 -6 -8.5 -11.5t-24.5 -9t-23 -3.5l-32 3q-20 0 -42.5 -4.5t-62 -19t-56.5 -19.5q-9 -2 -18 -5.5t-13 -12.5q-1 -1 -2.5 -5t-16 -37t-21 -49t-14.5 -38.5t-12.5 -42t-4.5 -35.5q0 -12 3.5 -20.5t8.5 -8.5q8 0 30.5 5.5
t38.5 12.5l65 27q2 1 7.5 3.5t62 36t93.5 33.5l14 -2q7 -2 15 -10q33 -26 33 -35q0 -3 -3.5 -7.5t-8.5 -6.5q-13 -5 -19 -11q-15 -15 -27 -21q-116 -62 -173.5 -78t-92.5 -19.5t-59 -3.5q-13 0 -45 14t-46 34q-10 14 -10 45q0 48 23 123q6 20 21 58.5t18 46.5q-5 6 -9 16
t-4 18q0 7 4.5 13t19.5 10q8 2 14 4.5t13 17.5q20 46 33 82l5 17l-3 4l-20 -2q-16 0 -32 13q-8 7 -16 21.5t-8 24.5q0 11 11 14l42.5 12.5t134.5 47.5q44 16 124.5 34t138.5 18q36 0 52 -8q24 -12 39.5 -29t15.5 -31q0 -19 -21 -20q-8 -1 -16 -4t-11 -3q-5 0 -21.5 6.5
t-34.5 6.5q-63 0 -220 -47q-8 -2 -11 -11l-32 -84q-11 -28 -11 -31l2 -2q3 0 22 7zM326 864l47 -35l85 -59q18 -13 23.5 -18.5t5.5 -11.5q0 -3 -3 -14t-3 -17t-7.5 -11.5t-15.5 -5.5q-21 0 -43 14l-100 64q-26 16 -50 26q-7 3 -13.5 9t-6.5 31q0 13 12.5 29.5t29.5 16.5
q7 0 20 -6q9 -4 19 -12z" />
    <glyph glyph-name="Eacute" unicode="&#xc9;" horiz-adv-x="508" 
d="M332 416q47 18 92 18q51 0 89 -23q20 -12 20 -37q0 -6 -8.5 -11.5t-24.5 -9t-23 -3.5l-32 3q-20 0 -42.5 -4.5t-62 -19t-56.5 -19.5q-9 -2 -18 -5.5t-13 -12.5q-1 -1 -2.5 -5t-16 -37t-21 -49t-14.5 -38.5t-12.5 -42t-4.5 -35.5q0 -12 3.5 -20.5t8.5 -8.5q8 0 30.5 5.5
t38.5 12.5l65 27q2 1 7.5 3.5t62 36t93.5 33.5l14 -2q7 -2 15 -10q33 -26 33 -35q0 -3 -3.5 -7.5t-8.5 -6.5q-13 -5 -19 -11q-15 -15 -27 -21q-116 -62 -173.5 -78t-92.5 -19.5t-59 -3.5q-13 0 -45 14t-46 34q-10 14 -10 45q0 48 23 123q6 20 21 58.5t18 46.5q-5 6 -9 16
t-4 18q0 7 4.5 13t19.5 10q8 2 14 4.5t13 17.5q20 46 33 82l5 17l-3 4l-20 -2q-16 0 -32 13q-8 7 -16 21.5t-8 24.5q0 11 11 14l42.5 12.5t134.5 47.5q44 16 124.5 34t138.5 18q36 0 52 -8q24 -12 39.5 -29t15.5 -31q0 -19 -21 -20q-8 -1 -16 -4t-11 -3q-5 0 -21.5 6.5
t-34.5 6.5q-63 0 -220 -47q-8 -2 -11 -11l-32 -84q-11 -28 -11 -31l2 -2q3 0 22 7zM341 726l53 36q20 14 45.5 35t30.5 30q3 5 12 8t19 3q12 0 25 -7q4 -2 9.5 -7t9.5 -24l3 -17q0 -10 -9 -22t-59 -42l-91 -55q-13 -8 -23 -8l-12 -2q-12 0 -31 12t-19 18q0 11 3 18
q2 5 13 11z" />
    <glyph glyph-name="Ecircumflex" unicode="&#xca;" horiz-adv-x="508" 
d="M332 416q47 18 92 18q51 0 89 -23q20 -12 20 -37q0 -6 -8.5 -11.5t-24.5 -9t-23 -3.5l-32 3q-20 0 -42.5 -4.5t-62 -19t-56.5 -19.5q-9 -2 -18 -5.5t-13 -12.5q-1 -1 -2.5 -5t-16 -37t-21 -49t-14.5 -38.5t-12.5 -42t-4.5 -35.5q0 -12 3.5 -20.5t8.5 -8.5q8 0 30.5 5.5
t38.5 12.5l65 27q2 1 7.5 3.5t62 36t93.5 33.5l14 -2q7 -2 15 -10q33 -26 33 -35q0 -3 -3.5 -7.5t-8.5 -6.5q-13 -5 -19 -11q-15 -15 -27 -21q-116 -62 -173.5 -78t-92.5 -19.5t-59 -3.5q-13 0 -45 14t-46 34q-10 14 -10 45q0 48 23 123q6 20 21 58.5t18 46.5q-5 6 -9 16
t-4 18q0 7 4.5 13t19.5 10q8 2 14 4.5t13 17.5q20 46 33 82l5 17l-3 4l-20 -2q-16 0 -32 13q-8 7 -16 21.5t-8 24.5q0 11 11 14l42.5 12.5t134.5 47.5q44 16 124.5 34t138.5 18q36 0 52 -8q24 -12 39.5 -29t15.5 -31q0 -19 -21 -20q-8 -1 -16 -4t-11 -3q-5 0 -21.5 6.5
t-34.5 6.5q-63 0 -220 -47q-8 -2 -11 -11l-32 -84q-11 -28 -11 -31l2 -2q3 0 22 7zM437 764q-4 6 -8 6q-2 0 -11 -6q-59 -42 -86 -69q-10 -10 -26 -10q-10 0 -17.5 5t-8.5 5q-11 4 -17 15.5t-6 23.5q0 16 12 30q4 11 54 42l89 56q14 8 31 8q15 0 23 -8l11 -12l59 -86
q12 -18 12 -25q0 -4 -4.5 -11.5t-5.5 -10.5q-2 -4 -8.5 -9t-14.5 -5q-6 0 -19 5q-12 5 -21 15z" />
    <glyph glyph-name="Edieresis" unicode="&#xcb;" horiz-adv-x="508" 
d="M332 416q47 18 92 18q51 0 89 -23q20 -12 20 -37q0 -6 -8.5 -11.5t-24.5 -9t-23 -3.5l-32 3q-20 0 -42.5 -4.5t-62 -19t-56.5 -19.5q-9 -2 -18 -5.5t-13 -12.5q-1 -1 -2.5 -5t-16 -37t-21 -49t-14.5 -38.5t-12.5 -42t-4.5 -35.5q0 -12 3.5 -20.5t8.5 -8.5q8 0 30.5 5.5
t38.5 12.5l65 27q2 1 7.5 3.5t62 36t93.5 33.5l14 -2q7 -2 15 -10q33 -26 33 -35q0 -3 -3.5 -7.5t-8.5 -6.5q-13 -5 -19 -11q-15 -15 -27 -21q-116 -62 -173.5 -78t-92.5 -19.5t-59 -3.5q-13 0 -45 14t-46 34q-10 14 -10 45q0 48 23 123q6 20 21 58.5t18 46.5q-5 6 -9 16
t-4 18q0 7 4.5 13t19.5 10q8 2 14 4.5t13 17.5q20 46 33 82l5 17l-3 4l-20 -2q-16 0 -32 13q-8 7 -16 21.5t-8 24.5q0 11 11 14l42.5 12.5t134.5 47.5q44 16 124.5 34t138.5 18q36 0 52 -8q24 -12 39.5 -29t15.5 -31q0 -19 -21 -20q-8 -1 -16 -4t-11 -3q-5 0 -21.5 6.5
t-34.5 6.5q-63 0 -220 -47q-8 -2 -11 -11l-32 -84q-11 -28 -11 -31l2 -2q3 0 22 7zM364 820q11 -19 11 -35q0 -13 -10.5 -29t-10.5 -19q-1 -7 -16 -14t-32 -7q-13 0 -24 5t-19 16q-11 16 -11 24l1 18q1 7 5.5 22t7.5 19q13 22 44 22q13 0 30.5 -6t23.5 -16zM506 830
q15 0 33.5 -7t21.5 -20q1 -5 6.5 -17.5t5.5 -21.5q0 -10 -11 -27t-19 -21q-10 -5 -30 -5q-14 0 -27.5 6t-16.5 15q-1 4 -11 18.5t-10 27.5q0 9 5 23.5t14.5 22t19.5 7.5z" />
    <glyph glyph-name="Igrave" unicode="&#xcc;" horiz-adv-x="254" 
d="M132 -28q-3 0 -10.5 -9t-16.5 -9q-7 0 -14.5 5.5t-9.5 5.5t-6 1.5t-12.5 7.5t-10.5 7q-8 3 -11.5 6t-3.5 8q0 7 6 36t12 39q4 7 8 23q23 93 76 248.5t63 186.5q4 14 9.5 23.5t10 19.5t9.5 24l10 28q3 8 15 12t25 4q29 0 55.5 -11.5t26.5 -26.5q0 -18 -2.5 -28t-14 -22
t-18.5 -26l-9 -17q-35 -93 -94.5 -264.5t-59.5 -187.5l2 -15q0 -30 -10 -49t-25 -20zM256 838l47 -35l85 -59q18 -13 23.5 -18.5t5.5 -11.5q0 -3 -3 -14t-3 -17t-7.5 -11.5t-15.5 -5.5q-21 0 -43 14l-100 64q-26 16 -50 26q-7 3 -13.5 9t-6.5 31q0 13 12.5 29.5t29.5 16.5
q7 0 20 -6q9 -4 19 -12z" />
    <glyph glyph-name="Iacute" unicode="&#xcd;" horiz-adv-x="254" 
d="M132 -28q-3 0 -10.5 -9t-16.5 -9q-7 0 -14.5 5.5t-9.5 5.5t-6 1.5t-12.5 7.5t-10.5 7q-8 3 -11.5 6t-3.5 8q0 7 6 36t12 39q4 7 8 23q23 93 76 248.5t63 186.5q4 14 9.5 23.5t10 19.5t9.5 24l10 28q3 8 15 12t25 4q29 0 55.5 -11.5t26.5 -26.5q0 -18 -2.5 -28t-14 -22
t-18.5 -26l-9 -17q-35 -93 -94.5 -264.5t-59.5 -187.5l2 -15q0 -30 -10 -49t-25 -20zM312 761l61 24q74 30 89 43q6 6 20 6q21 0 35 -14q3 -3 8 -10t5 -26q0 -15 -5 -25q-4 -7 -19 -15.5t-61 -22.5l-99 -30q-13 -4 -26 -4q-14 0 -22 5t-19 18t-11 20q0 10 6 17t15 7z" />
    <glyph glyph-name="Icircumflex" unicode="&#xce;" horiz-adv-x="254" 
d="M132 -28q-3 0 -10.5 -9t-16.5 -9q-7 0 -14.5 5.5t-9.5 5.5t-6 1.5t-12.5 7.5t-10.5 7q-8 3 -11.5 6t-3.5 8q0 7 6 36t12 39q4 7 8 23q23 93 76 248.5t63 186.5q4 14 9.5 23.5t10 19.5t9.5 24l10 28q3 8 15 12t25 4q29 0 55.5 -11.5t26.5 -26.5q0 -18 -2.5 -28t-14 -22
t-18.5 -26l-9 -17q-35 -93 -94.5 -264.5t-59.5 -187.5l2 -15q0 -30 -10 -49t-25 -20zM361 763l-11 -3q-77 -34 -87 -44q-4 -4 -12 -4q-2 0 -8.5 1t-15.5 7t-10 7q-13 7 -13 32q0 8 1 15t5 11.5t5 5.5q6 9 58 27l88 31q11 3 20 3t19.5 -4t12.5 -8q1 -2 5 -5.5t7 -9.5l59 -101
q12 -19 12 -27q0 -4 -2 -7.5t-7.5 -8t-6.5 -5.5q-11 -13 -23 -13q-7 0 -17.5 5.5t-18.5 15.5l-54 74z" />
    <glyph glyph-name="Idieresis" unicode="&#xcf;" horiz-adv-x="254" 
d="M132 -28q-3 0 -10.5 -9t-16.5 -9q-7 0 -14.5 5.5t-9.5 5.5t-6 1.5t-12.5 7.5t-10.5 7q-8 3 -11.5 6t-3.5 8q0 7 6 36t12 39q4 7 8 23q23 93 76 248.5t63 186.5q4 14 9.5 23.5t10 19.5t9.5 24l10 28q3 8 15 12t25 4q29 0 55.5 -11.5t26.5 -26.5q0 -18 -2.5 -28t-14 -22
t-18.5 -26l-9 -17q-35 -93 -94.5 -264.5t-59.5 -187.5l2 -15q0 -30 -10 -49t-25 -20zM309 815q11 -19 11 -35q0 -13 -10.5 -29t-10.5 -19q-1 -7 -16 -14t-32 -7q-13 0 -24 5t-19 16q-11 16 -11 24l1 18q1 7 5.5 22t7.5 19q13 22 44 22q13 0 30.5 -6t23.5 -16zM436 783
q15 0 33.5 -7t21.5 -20q1 -5 6.5 -17.5t5.5 -21.5q0 -10 -11 -27t-19 -21q-10 -5 -30 -5q-14 0 -27.5 6t-16.5 15q-1 4 -11 18.5t-10 27.5q0 9 5 23.5t14.5 22t19.5 7.5z" />
    <glyph glyph-name="Eth" unicode="&#xd0;" horiz-adv-x="572" 
d="M111 124q7 29 19.5 71.5t12.5 43.5l-3 3l-23 -2q-33 0 -33 20q0 43 25 65q10 9 40.5 13.5t32.5 10.5l20 52q8 21 8 26l-3 4l-18 -3q-14 0 -25.5 10.5t-11.5 32.5q0 27 10 40q5 7 12 13.5t51 36.5q44 31 102 53t111 22q36 0 68.5 -9.5t79.5 -44.5q38 -29 50.5 -55.5
t12.5 -55.5q0 -26 -8.5 -55.5t-19.5 -51.5l-18 -41q-42 -89 -81.5 -152t-85.5 -109t-101 -72q-17 -8 -30.5 -12.5t-33.5 -4.5q-12 0 -25.5 1.5t-41.5 7.5q-2 0 -7.5 -3t-26.5 -3q-19 0 -44 17q-10 7 -17 15.5t-15 11.5q-31 12 -55 31t-24 40q0 22 29 22l40 -3l15 -3q2 0 5 1
t7 16zM257 247q-18 -47 -31 -101q-18 -71 -18 -88q0 -2 1.5 -4t16.5 -2q20 0 44 10.5t42 28.5q125 125 201 318q11 29 17 46.5t6 31.5q0 32 -16 53.5t-48 21.5q-10 0 -25 -3t-36 -11t-22 -8q-4 -1 -5 -4l1 -7q0 -5 -9 -15.5t-10 -13.5l-53 -117l-9 -22l3 -3q3 0 24 2.5
t37 2.5q7 0 14 -10q10 -14 10 -31q0 -3 -1.5 -11t-10 -20.5t-8.5 -13.5q-4 -8 -32 -12l-70 -7q-3 0 -6.5 -1.5t-6.5 -9.5z" />
    <glyph glyph-name="Ntilde" unicode="&#xd1;" horiz-adv-x="598" 
d="M482 4q-27 -27 -53 -27q-9 0 -23.5 4t-23.5 9q-23 13 -35 23t-22 42q-12 38 -22.5 97t-21 128.5t-12.5 85.5q-2 15 -3.5 23t-4.5 8q-2 0 -4.5 -5t-8.5 -26q-4 -12 -13 -43t-26.5 -91t-30.5 -120q-14 -65 -14 -95q0 -26 -12 -36t-34 -10q-14 0 -23 2q-2 0 -7 1.5
t-11.5 5.5t-9.5 6q-21 12 -21 22q0 4 5 28t9 40q15 56 52 179t42 143l7 26q0 1 2 7t18.5 70.5t21.5 89.5q2 8 11 11.5t9 6.5q-17 38 -17 47q0 15 15 22q6 3 24 6.5t32 3.5q22 0 31 -9q7 -6 9 -14q10 -31 24.5 -91t31.5 -210.5t33 -220.5q4 -17 8 -23q5 6 13 24q6 14 22 55
t83 264l18 54q4 16 8 52.5t9 53.5q4 15 9 20t17 5q13 0 29 -4q5 -1 18.5 -3t20.5 -8q28 -22 28 -41q0 -10 -11 -32q-4 -8 -14 -38t-47.5 -149t-65.5 -197.5t-54 -143.5q-9 -22 -15 -28zM427 738q-8 13 -17 13q-11 0 -33 -14q-7 -4 -20 -4q-15 0 -31 6.5t-16 17.5
q0 4 -4 17.5t-4 19.5q0 12 12 17l62 23q29 10 46 10q15 0 30 -8.5t37 -39.5q4 -5 11 -14t19 -9q11 0 30 8q6 3 21.5 6.5t24.5 3.5q28 0 33 -25l5 -21q0 -8 -11 -15q-47 -31 -63 -37t-26.5 -7.5t-18.5 -1.5q-33 0 -61 22q-10 8 -26 32z" />
    <glyph glyph-name="Ograve" unicode="&#xd2;" horiz-adv-x="490" 
d="M456 598q72 -64 72 -171q0 -35 -10 -77q-50 -209 -131 -312q-18 -22 -57.5 -42.5t-85.5 -20.5q-35 0 -68 11q-15 5 -34.5 21t-29.5 31q-18 26 -25.5 52t-7.5 63q0 95 30.5 177.5t88.5 168.5q47 70 84 98q47 36 66 36q12 0 31 -8q29 -12 43 -14q17 -2 22.5 -5t11.5 -8z
M368 536q-3 0 -7 -3t-17 -16q-102 -108 -143 -241q-17 -55 -17 -127q0 -19 5.5 -39.5t13.5 -33.5q13 -20 31 -20q14 0 31 9.5t27 24.5q30 46 61.5 119t47 134.5t15.5 103.5q0 29 -9 52.5t-25 28.5q-5 2 -9 5t-5 3zM366 822l47 -35l85 -59q18 -13 23.5 -18.5t5.5 -11.5
q0 -3 -3 -14t-3 -17t-7.5 -11.5t-15.5 -5.5q-21 0 -43 14l-100 64q-26 16 -50 26q-7 3 -13.5 9t-6.5 31q0 13 12.5 29.5t29.5 16.5q7 0 20 -6q9 -4 19 -12z" />
    <glyph glyph-name="Oacute" unicode="&#xd3;" horiz-adv-x="490" 
d="M456 598q72 -64 72 -171q0 -35 -10 -77q-50 -209 -131 -312q-18 -22 -57.5 -42.5t-85.5 -20.5q-35 0 -68 11q-15 5 -34.5 21t-29.5 31q-18 26 -25.5 52t-7.5 63q0 95 30.5 177.5t88.5 168.5q47 70 84 98q47 36 66 36q12 0 31 -8q29 -12 43 -14q17 -2 22.5 -5t11.5 -8z
M368 536q-3 0 -7 -3t-17 -16q-102 -108 -143 -241q-17 -55 -17 -127q0 -19 5.5 -39.5t13.5 -33.5q13 -20 31 -20q14 0 31 9.5t27 24.5q30 46 61.5 119t47 134.5t15.5 103.5q0 29 -9 52.5t-25 28.5q-5 2 -9 5t-5 3zM360 751l61 24q74 30 89 43q6 6 20 6q21 0 35 -14
q3 -3 8 -10t5 -26q0 -15 -5 -25q-4 -7 -19 -15.5t-61 -22.5l-99 -30q-13 -4 -26 -4q-14 0 -22 5t-19 18t-11 20q0 10 6 17t15 7z" />
    <glyph glyph-name="Ocircumflex" unicode="&#xd4;" horiz-adv-x="490" 
d="M456 598q72 -64 72 -171q0 -35 -10 -77q-50 -209 -131 -312q-18 -22 -57.5 -42.5t-85.5 -20.5q-35 0 -68 11q-15 5 -34.5 21t-29.5 31q-18 26 -25.5 52t-7.5 63q0 95 30.5 177.5t88.5 168.5q47 70 84 98q47 36 66 36q12 0 31 -8q29 -12 43 -14q17 -2 22.5 -5t11.5 -8z
M368 536q-3 0 -7 -3t-17 -16q-102 -108 -143 -241q-17 -55 -17 -127q0 -19 5.5 -39.5t13.5 -33.5q13 -20 31 -20q14 0 31 9.5t27 24.5q30 46 61.5 119t47 134.5t15.5 103.5q0 29 -9 52.5t-25 28.5q-5 2 -9 5t-5 3zM445 743l-11 -3q-77 -34 -87 -44q-4 -4 -12 -4q-2 0 -8.5 1
t-15.5 7t-10 7q-13 7 -13 32q0 8 1 15t5 11.5t5 5.5q6 9 58 27l88 31q11 3 20 3t19.5 -4t12.5 -8q1 -2 5 -5.5t7 -9.5l59 -101q12 -19 12 -27q0 -4 -2 -7.5t-7.5 -8t-6.5 -5.5q-11 -13 -23 -13q-7 0 -17.5 5.5t-18.5 15.5l-54 74z" />
    <glyph glyph-name="Otilde" unicode="&#xd5;" horiz-adv-x="490" 
d="M456 598q72 -64 72 -171q0 -35 -10 -77q-50 -209 -131 -312q-18 -22 -57.5 -42.5t-85.5 -20.5q-35 0 -68 11q-15 5 -34.5 21t-29.5 31q-18 26 -25.5 52t-7.5 63q0 95 30.5 177.5t88.5 168.5q47 70 84 98q47 36 66 36q12 0 31 -8q29 -12 43 -14q17 -2 22.5 -5t11.5 -8z
M368 536q-3 0 -7 -3t-17 -16q-102 -108 -143 -241q-17 -55 -17 -127q0 -19 5.5 -39.5t13.5 -33.5q13 -20 31 -20q14 0 31 9.5t27 24.5q30 46 61.5 119t47 134.5t15.5 103.5q0 29 -9 52.5t-25 28.5q-5 2 -9 5t-5 3zM405 716q-8 13 -17 13q-11 0 -33 -14q-7 -4 -20 -4
q-15 0 -31 6.5t-16 17.5q0 4 -4 17.5t-4 19.5q0 12 12 17l62 23q29 10 46 10q15 0 30 -8.5t37 -39.5q4 -5 11 -14t19 -9q11 0 30 8q6 3 21.5 6.5t24.5 3.5q28 0 33 -25l5 -21q0 -8 -11 -15q-47 -31 -63 -37t-26.5 -7.5t-18.5 -1.5q-33 0 -61 22q-10 8 -26 32z" />
    <glyph glyph-name="Odieresis" unicode="&#xd6;" horiz-adv-x="490" 
d="M456 598q72 -64 72 -171q0 -35 -10 -77q-50 -209 -131 -312q-18 -22 -57.5 -42.5t-85.5 -20.5q-35 0 -68 11q-15 5 -34.5 21t-29.5 31q-18 26 -25.5 52t-7.5 63q0 95 30.5 177.5t88.5 168.5q47 70 84 98q47 36 66 36q12 0 31 -8q29 -12 43 -14q17 -2 22.5 -5t11.5 -8z
M368 536q-3 0 -7 -3t-17 -16q-102 -108 -143 -241q-17 -55 -17 -127q0 -19 5.5 -39.5t13.5 -33.5q13 -20 31 -20q14 0 31 9.5t27 24.5q30 46 61.5 119t47 134.5t15.5 103.5q0 29 -9 52.5t-25 28.5q-5 2 -9 5t-5 3zM381 787q11 -19 11 -35q0 -13 -10.5 -29t-10.5 -19
q-1 -7 -16 -14t-32 -7q-13 0 -24 5t-19 16q-11 16 -11 24l1 18q1 7 5.5 22t7.5 19q13 22 44 22q13 0 30.5 -6t23.5 -16zM519 750q15 0 33.5 -7t21.5 -20q1 -5 6.5 -17.5t5.5 -21.5q0 -10 -11 -27t-19 -21q-10 -5 -30 -5q-14 0 -27.5 6t-16.5 15q-1 4 -11 18.5t-10 27.5
q0 9 5 23.5t14.5 22t19.5 7.5z" />
    <glyph glyph-name="multiply" unicode="&#xd7;" horiz-adv-x="590" 
d="M348 348q12 9 61.5 47.5t72.5 64.5q8 9 28 9l44 -5q14 0 30 -17q3 -4 6 -10.5t3 -9.5q0 -6 -3 -10q-16 -21 -47.5 -42t-35.5 -24q-12 -8 -31.5 -23t-99.5 -84q-7 -6 -8 -11l3 -11q39 -95 72 -140q17 -23 17 -29q0 -11 -11 -19q-5 -3 -13 -8.5t-20 -5.5q-8 0 -22 4.5
t-17 4.5q-18 1 -26 14q-29 43 -51 97q-11 29 -15 30q-6 -3 -34 -28q-57 -50 -74 -87q-10 -22 -30 -22q-3 0 -8 1.5t-17 1.5q-7 0 -13.5 2.5t-13 11t-8.5 10.5q-15 15 -16.5 18t-1.5 5q0 28 45 68l3 3t49.5 42.5t71.5 64.5q10 10 10 16l-2 9q-5 16 -20.5 67t-21.5 66
q-10 24 -10 33q0 30 48 30q31 0 40.5 -9t12.5 -10t8.5 -7t5.5 -16q0 -19 20 -88l6 -12q3 0 7 3.5t6 4.5z" />
    <glyph glyph-name="Oslash" unicode="&#xd8;" horiz-adv-x="540" 
d="M520 582q4 0 8 3q9 6 22 6q10 0 24.5 -5t21.5 -18q2 -3 7 -9.5t5 -19.5q0 -11 -17 -23q-15 -11 -22 -16t-7 -9l5 -30q3 -30 3 -56t-16.5 -92t-46.5 -137t-74 -128q-34 -44 -75 -59.5t-87 -15.5q-75 0 -113 31q-7 6 -11 6q-2 0 -11 -6q-11 -9 -25 -9t-25 4q-4 2 -7.5 4.5
t-6.5 7.5t-4 7q-11 12 -11 23t14 24.5t17 16.5q9 9 9 13q0 1 -2.5 14.5t-4 32t-1.5 38.5q0 146 105 312q16 25 43.5 57.5t53 51.5t42.5 24q26 7 43 7q12 0 26.5 -5.5t19.5 -5.5l25 4q27 0 65 -38zM434 358q-17 -20 -89.5 -108t-114.5 -136q-15 -17 -15 -21q1 -6 7 -15
q19 -26 36 -26q24 0 41.5 7.5t31.5 28.5q39 59 72 128.5t48 130.5q6 23 6 28l-2 4q-1 0 -3.5 -1.5t-17.5 -19.5zM215 230l224 262q12 14 12 17l-4 8q-4 6 -13.5 13.5t-18.5 7.5q-14 0 -19 2l-11 6q-4 0 -13 -9q-109 -109 -154 -244q-16 -44 -18 -56l-2 -15q0 -3 3 -5z" />
    <glyph glyph-name="Ugrave" unicode="&#xd9;" horiz-adv-x="600" 
d="M185 90q2 0 9 5t10 9l15 16q203 207 319 395l24 46q19 29 46 29l24 -3q9 -1 15 -4t12 -11l14 -21q6 -10 6 -17t-4 -14.5t-5 -9.5q-7 -20 -28.5 -58.5t-30.5 -61.5q-37 -99 -53.5 -200.5t-16.5 -216.5q0 -7 -6 -11t-15 -4q-6 0 -11 1t-11.5 4t-8.5 4q-7 2 -39 21
q-5 3 -13.5 8.5t-8.5 15.5q0 16 4 23q4 6 5 15q1 11 7.5 72t10.5 84l3 20l-2 2l-15 -16q-113 -135 -194 -205q-10 -8 -25 -13.5t-27 -5.5q-23 0 -43 13.5t-32 16.5q-30 8 -37 24q-5 12 -5 64q0 74 26 155q20 61 67 180t59 153q1 3 3.5 9t6 12t4.5 7q15 30 36 30q10 0 20 -5
t18 -8q13 -5 25 -13.5t12 -35.5q0 -5 -5 -14.5t-5 -10.5q-16 -40 -80 -180.5t-78 -236.5q-4 -27 -4 -52zM448 828l47 -35l85 -59q18 -13 23.5 -18.5t5.5 -11.5q0 -3 -3 -14t-3 -17t-7.5 -11.5t-15.5 -5.5q-21 0 -43 14l-100 64q-26 16 -50 26q-7 3 -13.5 9t-6.5 31
q0 13 12.5 29.5t29.5 16.5q7 0 20 -6q9 -4 19 -12z" />
    <glyph glyph-name="Uacute" unicode="&#xda;" horiz-adv-x="600" 
d="M185 90q2 0 9 5t10 9l15 16q203 207 319 395l24 46q19 29 46 29l24 -3q9 -1 15 -4t12 -11l14 -21q6 -10 6 -17t-4 -14.5t-5 -9.5q-7 -20 -28.5 -58.5t-30.5 -61.5q-37 -99 -53.5 -200.5t-16.5 -216.5q0 -7 -6 -11t-15 -4q-6 0 -11 1t-11.5 4t-8.5 4q-7 2 -39 21
q-5 3 -13.5 8.5t-8.5 15.5q0 16 4 23q4 6 5 15q1 11 7.5 72t10.5 84l3 20l-2 2l-15 -16q-113 -135 -194 -205q-10 -8 -25 -13.5t-27 -5.5q-23 0 -43 13.5t-32 16.5q-30 8 -37 24q-5 12 -5 64q0 74 26 155q20 61 67 180t59 153q1 3 3.5 9t6 12t4.5 7q15 30 36 30q10 0 20 -5
t18 -8q13 -5 25 -13.5t12 -35.5q0 -5 -5 -14.5t-5 -10.5q-16 -40 -80 -180.5t-78 -236.5q-4 -27 -4 -52zM462 743l61 24q74 30 89 43q6 6 20 6q21 0 35 -14q3 -3 8 -10t5 -26q0 -15 -5 -25q-4 -7 -19 -15.5t-61 -22.5l-99 -30q-13 -4 -26 -4q-14 0 -22 5t-19 18t-11 20
q0 10 6 17t15 7z" />
    <glyph glyph-name="Ucircumflex" unicode="&#xdb;" horiz-adv-x="600" 
d="M185 90q2 0 9 5t10 9l15 16q203 207 319 395l24 46q19 29 46 29l24 -3q9 -1 15 -4t12 -11l14 -21q6 -10 6 -17t-4 -14.5t-5 -9.5q-7 -20 -28.5 -58.5t-30.5 -61.5q-37 -99 -53.5 -200.5t-16.5 -216.5q0 -7 -6 -11t-15 -4q-6 0 -11 1t-11.5 4t-8.5 4q-7 2 -39 21
q-5 3 -13.5 8.5t-8.5 15.5q0 16 4 23q4 6 5 15q1 11 7.5 72t10.5 84l3 20l-2 2l-15 -16q-113 -135 -194 -205q-10 -8 -25 -13.5t-27 -5.5q-23 0 -43 13.5t-32 16.5q-30 8 -37 24q-5 12 -5 64q0 74 26 155q20 61 67 180t59 153q1 3 3.5 9t6 12t4.5 7q15 30 36 30q10 0 20 -5
t18 -8q13 -5 25 -13.5t12 -35.5q0 -5 -5 -14.5t-5 -10.5q-16 -40 -80 -180.5t-78 -236.5q-4 -27 -4 -52zM513 761l-11 -3q-77 -34 -87 -44q-4 -4 -12 -4q-2 0 -8.5 1t-15.5 7t-10 7q-13 7 -13 32q0 8 1 15t5 11.5t5 5.5q6 9 58 27l88 31q11 3 20 3t19.5 -4t12.5 -8
q1 -2 5 -5.5t7 -9.5l59 -101q12 -19 12 -27q0 -4 -2 -7.5t-7.5 -8t-6.5 -5.5q-11 -13 -23 -13q-7 0 -17.5 5.5t-18.5 15.5l-54 74z" />
    <glyph glyph-name="Udieresis" unicode="&#xdc;" horiz-adv-x="600" 
d="M185 90q2 0 9 5t10 9l15 16q203 207 319 395l24 46q19 29 46 29l24 -3q9 -1 15 -4t12 -11l14 -21q6 -10 6 -17t-4 -14.5t-5 -9.5q-7 -20 -28.5 -58.5t-30.5 -61.5q-37 -99 -53.5 -200.5t-16.5 -216.5q0 -7 -6 -11t-15 -4q-6 0 -11 1t-11.5 4t-8.5 4q-7 2 -39 21
q-5 3 -13.5 8.5t-8.5 15.5q0 16 4 23q4 6 5 15q1 11 7.5 72t10.5 84l3 20l-2 2l-15 -16q-113 -135 -194 -205q-10 -8 -25 -13.5t-27 -5.5q-23 0 -43 13.5t-32 16.5q-30 8 -37 24q-5 12 -5 64q0 74 26 155q20 61 67 180t59 153q1 3 3.5 9t6 12t4.5 7q15 30 36 30q10 0 20 -5
t18 -8q13 -5 25 -13.5t12 -35.5q0 -5 -5 -14.5t-5 -10.5q-16 -40 -80 -180.5t-78 -236.5q-4 -27 -4 -52zM467 805q11 -19 11 -35q0 -13 -10.5 -29t-10.5 -19q-1 -7 -16 -14t-32 -7q-13 0 -24 5t-19 16q-11 16 -11 24l1 18q1 7 5.5 22t7.5 19q13 22 44 22q13 0 30.5 -6
t23.5 -16zM594 773q15 0 33.5 -7t21.5 -20q1 -5 6.5 -17.5t5.5 -21.5q0 -10 -11 -27t-19 -21q-10 -5 -30 -5q-14 0 -27.5 6t-16.5 15q-1 4 -11 18.5t-10 27.5q0 9 5 23.5t14.5 22t19.5 7.5z" />
    <glyph glyph-name="Yacute" unicode="&#xdd;" horiz-adv-x="502" 
d="M326 190q-17 -11 -40 -19.5t-43 -8.5q-17 0 -28 5q-14 6 -33.5 19t-28.5 21q-17 15 -29.5 32.5t-12.5 28.5l6 105q0 3 2 14t2 21q0 12 5 27t5 19q1 9 8 50.5t18 93.5t21 69q1 2 4 5.5t16 3.5q10 0 33 -4.5t27 -4.5q11 -1 19 -12.5t8 -25.5t-10 -38t-12 -33
q-34 -172 -40 -238l-5 -64q0 -3 0.5 -7.5t4.5 -4.5q8 0 19 7q62 39 111.5 89t105.5 156q2 3 12.5 24.5t19.5 36.5q20 35 34 53l5 5t10 3q16 0 38 -6.5t36 -21.5q2 -2 7.5 -12t5.5 -20q0 -7 -6 -15q-103 -144 -171 -353.5t-106 -496.5q-4 -33 -8 -38q-2 -3 -10 -3q-2 0 -32 5
q-24 4 -40.5 13t-19.5 22q-3 15 -3 29q0 13 3 32t10.5 48.5t9.5 39.5l11 59q17 91 67 264l8 30l-2 2zM384 737l61 24q74 30 89 43q6 6 20 6q21 0 35 -14q3 -3 8 -10t5 -26q0 -15 -5 -25q-4 -7 -19 -15.5t-61 -22.5l-99 -30q-13 -4 -26 -4q-14 0 -22 5t-19 18t-11 20
q0 10 6 17t15 7z" />
    <glyph glyph-name="Thorn" unicode="&#xde;" horiz-adv-x="500" 
d="M390 576q58 18 101 18q29 0 47 -3.5t35 -18.5q12 -10 21 -29t9 -65q0 -21 -17.5 -61t-34.5 -67q-37 -59 -77.5 -103.5t-107.5 -97.5q-11 -9 -43 -15t-58 -6q-36 0 -57 11l-9 3q-3 -3 -7 -16l-18 -63q-14 -58 -14 -64q0 -11 -10 -18q-5 -4 -15.5 -7t-17.5 -3q-6 0 -17 2.5
t-15 7.5q-3 4 -16 10t-19 14q-5 6 -5 12q0 7 13 52.5t31 93.5q3 7 10.5 30t7.5 30q0 3 -8 11q-13 12 -13 22q0 9 7 12q5 2 16 14t23 16q7 2 10 11l20 56l3 10l-5 5q-6 3 -14.5 13t-9.5 13l-5 13q0 15 24 36q18 15 47 29q3 1 7 4t8 13q49 124 69 162q3 6 13 12t21 6
t20.5 -4.5t13.5 -4.5q40 -4 40 -30q0 -12 -9 -32q-4 -8 -4 -12q0 -3 -3 -9.5t-6 -10.5l-4 -6l2 -2zM446 504q-79 -24 -129 -59q-7 -5 -12 -16q-50 -114 -67 -163q-6 -16 -6 -21q0 -2 1 -4t14 -15q16 -16 24 -16q6 0 10 3l23 17q28 22 63 58.5t73 92.5q25 37 40.5 72t15.5 51
q0 6 -10 6q-20 0 -40 -6z" />
    <glyph glyph-name="germandbls" unicode="&#xdf;" horiz-adv-x="434" 
d="M104 -2q-70 -208 -76 -288q-1 -9 -10 -18t-22 -13q-3 -1 -12.5 -4.5t-15 -5t-9.5 -1.5q-12 0 -33 15q-11 8 -11 30q0 13 4.5 34t7.5 30l16 45q1 3 6 16.5t8 26.5q6 29 49.5 151.5t85.5 235.5l82 206q3 8 14 18.5t15 17.5q12 22 35.5 52.5t45.5 52.5q61 61 116 61
q22 0 48 -12.5t27 -12.5q36 -10 36 -39q0 -11 -11 -36q-1 -3 -4 -13.5t-11.5 -27.5t-25.5 -46q-32 -54 -65 -92l-9 -12q0 -3 5 -3q11 0 26 -9.5t23.5 -29.5t8.5 -46q0 -44 -36 -123q-41 -89 -81.5 -125.5t-85.5 -48.5q-15 -4 -34 -4q-22 0 -44.5 8t-40.5 21q-7 5 -11 5
q-6 0 -11 -16zM177 201l-27 -71l-8 -22l5 -2q22 0 43 -28q2 -2 8 -12.5t13 -10.5q12 0 26 12q13 11 34 36.5t45 83.5q22 54 22 82q0 8 -2 14.5t-5 6.5q-6 0 -14 -8l-39 -30q-16 -16 -41.5 -33t-43.5 -17l-9 2l-4 1zM396 562l4 13l-2 3l-12 -6q-25 -20 -49 -47.5t-39.5 -55
t-22.5 -48.5q-8 -21 -10 -23l-10 -6l-5 -6l-20 -50l-3 -9l2 -2q6 3 24 21q44 44 83.5 107.5t59.5 108.5z" />
    <glyph glyph-name="agrave" unicode="&#xe0;" horiz-adv-x="468" 
d="M320 124l-11 -9l-42 -40q-42 -40 -80.5 -59.5t-60.5 -19.5q-14 0 -33 12q-18 12 -49 37q-12 10 -19 26t-7 32q0 30 23 84t71.5 113.5t108.5 102.5q79 56 159 78q15 4 27 4q19 0 39 -9.5t35 -24.5q11 -11 17 -23q4 -8 17 -11q36 -9 36 -27q0 -9 -4 -14q-93 -122 -114 -205
q-13 -52 -13 -84q0 -44 19 -72l3 -10q0 -7 -7.5 -12.5t-19.5 -6.5q-2 0 -9 -2t-13 -2q-16 0 -34 8t-24 20q-4 8 -9.5 27.5t-5.5 41.5q0 9 0.5 18t1.5 24zM423 407q-8 0 -20 -7q-141 -73 -219 -168q-2 -2 -21 -29t-35.5 -59t-16.5 -48q0 -14 6 -14q4 0 16 6.5t23 17.5
q19 18 113.5 99t128.5 145q11 19 28 36q6 6 6 12q0 9 -9 9zM440 658l47 -35l85 -59q18 -13 23.5 -18.5t5.5 -11.5q0 -3 -3 -14t-3 -17t-7.5 -11.5t-15.5 -5.5q-21 0 -43 14l-100 64q-26 16 -50 26q-7 3 -13.5 9t-6.5 31q0 13 12.5 29.5t29.5 16.5q7 0 20 -6q9 -4 19 -12z
" />
    <glyph glyph-name="aacute" unicode="&#xe1;" horiz-adv-x="468" 
d="M320 124l-11 -9l-42 -40q-42 -40 -80.5 -59.5t-60.5 -19.5q-14 0 -33 12q-18 12 -49 37q-12 10 -19 26t-7 32q0 30 23 84t71.5 113.5t108.5 102.5q79 56 159 78q15 4 27 4q19 0 39 -9.5t35 -24.5q11 -11 17 -23q4 -8 17 -11q36 -9 36 -27q0 -9 -4 -14q-93 -122 -114 -205
q-13 -52 -13 -84q0 -44 19 -72l3 -10q0 -7 -7.5 -12.5t-19.5 -6.5q-2 0 -9 -2t-13 -2q-16 0 -34 8t-24 20q-4 8 -9.5 27.5t-5.5 41.5q0 9 0.5 18t1.5 24zM423 407q-8 0 -20 -7q-141 -73 -219 -168q-2 -2 -21 -29t-35.5 -59t-16.5 -48q0 -14 6 -14q4 0 16 6.5t23 17.5
q19 18 113.5 99t128.5 145q11 19 28 36q6 6 6 12q0 9 -9 9zM416 605l61 24q74 30 89 43q6 6 20 6q21 0 35 -14q3 -3 8 -10t5 -26q0 -15 -5 -25q-4 -7 -19 -15.5t-61 -22.5l-99 -30q-13 -4 -26 -4q-14 0 -22 5t-19 18t-11 20q0 10 6 17t15 7z" />
    <glyph glyph-name="acircumflex" unicode="&#xe2;" horiz-adv-x="468" 
d="M320 124l-11 -9l-42 -40q-42 -40 -80.5 -59.5t-60.5 -19.5q-14 0 -33 12q-18 12 -49 37q-12 10 -19 26t-7 32q0 30 23 84t71.5 113.5t108.5 102.5q79 56 159 78q15 4 27 4q19 0 39 -9.5t35 -24.5q11 -11 17 -23q4 -8 17 -11q36 -9 36 -27q0 -9 -4 -14q-93 -122 -114 -205
q-13 -52 -13 -84q0 -44 19 -72l3 -10q0 -7 -7.5 -12.5t-19.5 -6.5q-2 0 -9 -2t-13 -2q-16 0 -34 8t-24 20q-4 8 -9.5 27.5t-5.5 41.5q0 9 0.5 18t1.5 24zM423 407q-8 0 -20 -7q-141 -73 -219 -168q-2 -2 -21 -29t-35.5 -59t-16.5 -48q0 -14 6 -14q4 0 16 6.5t23 17.5
q19 18 113.5 99t128.5 145q11 19 28 36q6 6 6 12q0 9 -9 9zM499 591l-11 -3q-77 -34 -87 -44q-4 -4 -12 -4q-2 0 -8.5 1t-15.5 7t-10 7q-13 7 -13 32q0 8 1 15t5 11.5t5 5.5q6 9 58 27l88 31q11 3 20 3t19.5 -4t12.5 -8q1 -2 5 -5.5t7 -9.5l59 -101q12 -21 12 -27
q0 -4 -2 -7.5t-7.5 -8t-6.5 -5.5q-11 -13 -23 -13q-7 0 -17.5 5.5t-18.5 15.5l-54 74z" />
    <glyph glyph-name="atilde" unicode="&#xe3;" horiz-adv-x="468" 
d="M320 124l-11 -9l-42 -40q-42 -40 -80.5 -59.5t-60.5 -19.5q-14 0 -33 12q-18 12 -49 37q-12 10 -19 26t-7 32q0 30 23 84t71.5 113.5t108.5 102.5q79 56 159 78q15 4 27 4q19 0 39 -9.5t35 -24.5q11 -11 17 -23q4 -8 17 -11q36 -9 36 -27q0 -9 -4 -14q-93 -122 -114 -205
q-13 -52 -13 -84q0 -44 19 -72l3 -10q0 -7 -7.5 -12.5t-19.5 -6.5q-2 0 -9 -2t-13 -2q-16 0 -34 8t-24 20q-4 8 -9.5 27.5t-5.5 41.5q0 9 0.5 18t1.5 24zM423 407q-8 0 -20 -7q-141 -73 -219 -168q-2 -2 -21 -29t-35.5 -59t-16.5 -48q0 -14 6 -14q4 0 16 6.5t23 17.5
q19 18 113.5 99t128.5 145q11 19 28 36q6 6 6 12q0 9 -9 9zM481 570q-8 13 -17 13q-11 0 -33 -14q-7 -4 -20 -4q-15 0 -31 6.5t-16 17.5q0 4 -4 17.5t-4 19.5q0 12 12 17l62 23q29 10 46 10q15 0 30 -8.5t37 -39.5q4 -5 11 -14t19 -9q11 0 30 8q6 3 21.5 6.5t24.5 3.5
q28 0 33 -25l5 -21q0 -8 -11 -15q-47 -31 -63 -37t-26.5 -7.5t-18.5 -1.5q-33 0 -61 22q-10 8 -26 32z" />
    <glyph glyph-name="adieresis" unicode="&#xe4;" horiz-adv-x="468" 
d="M320 124l-11 -9l-42 -40q-42 -40 -80.5 -59.5t-60.5 -19.5q-14 0 -33 12q-18 12 -49 37q-12 10 -19 26t-7 32q0 30 23 84t71.5 113.5t108.5 102.5q79 56 159 78q15 4 27 4q19 0 39 -9.5t35 -24.5q11 -11 17 -23q4 -8 17 -11q36 -9 36 -27q0 -9 -4 -14q-93 -122 -114 -205
q-13 -52 -13 -84q0 -44 19 -72l3 -10q0 -7 -7.5 -12.5t-19.5 -6.5q-2 0 -9 -2t-13 -2q-16 0 -34 8t-24 20q-4 8 -9.5 27.5t-5.5 41.5q0 9 0.5 18t1.5 24zM423 407q-8 0 -20 -7q-141 -73 -219 -168q-2 -2 -21 -29t-35.5 -59t-16.5 -48q0 -14 6 -14q4 0 16 6.5t23 17.5
q19 18 113.5 99t128.5 145q11 19 28 36q6 6 6 12q0 9 -9 9zM449 657q11 -19 11 -35q0 -13 -10.5 -29t-10.5 -19q-1 -7 -16 -14t-32 -7q-13 0 -24 5t-19 16q-11 16 -11 24l1 18q1 7 5.5 22t7.5 19q12 20 44 20q13 0 30.5 -5t23.5 -15zM576 625q15 0 33.5 -7t21.5 -20
q1 -5 6.5 -17.5t5.5 -21.5q0 -10 -11 -27t-19 -21q-10 -5 -30 -5q-14 0 -27.5 6t-16.5 15q-1 4 -11 18.5t-10 27.5q0 9 5 23.5t14.5 22t19.5 7.5z" />
    <glyph glyph-name="aring" unicode="&#xe5;" horiz-adv-x="468" 
d="M320 124l-11 -9l-42 -40q-42 -40 -80.5 -59.5t-60.5 -19.5q-14 0 -33 12q-18 12 -49 37q-12 10 -19 26t-7 32q0 30 23 84t71.5 113.5t108.5 102.5q79 56 159 78q15 4 27 4q19 0 39 -9.5t35 -24.5q11 -11 17 -23q4 -8 17 -11q36 -9 36 -27q0 -9 -4 -14q-93 -122 -114 -205
q-13 -52 -13 -84q0 -44 19 -72l3 -10q0 -7 -7.5 -12.5t-19.5 -6.5q-2 0 -9 -2t-13 -2q-16 0 -34 8t-24 20q-4 8 -9.5 27.5t-5.5 41.5q0 9 0.5 18t1.5 24zM423 407q-8 0 -20 -7q-141 -73 -219 -168q-2 -2 -21 -29t-35.5 -59t-16.5 -48q0 -14 6 -14q4 0 16 6.5t23 17.5
q19 18 113.5 99t128.5 145q11 19 28 36q6 6 6 12q0 9 -9 9zM533 694q20 0 41.5 -7.5t37.5 -22t17 -24.5l2 -26q0 -34 -14 -62.5t-35 -40t-41 -11.5q-16 0 -40 5t-35 12q-20 12 -30 29.5t-10 31.5q0 25 21.5 63t43.5 47q15 6 42 6zM544 635l-3 3q-3 -1 -7 -7
q-6 -8 -13.5 -24.5t-7.5 -29.5q0 -15 8 -22l5 5q7 9 15 25t8 26q0 14 -5 24z" />
    <glyph glyph-name="ae" unicode="&#xe6;" horiz-adv-x="616" 
d="M262 71q-8 -9 -20 -21t-20 -17q-18 -13 -43.5 -24t-47.5 -11q-12 0 -27 7.5t-56 35.5q-10 7 -20 26.5t-10 44.5q0 36 19.5 86t66 111t96.5 105q45 40 98 66t91 26q22 0 38 -7t17 -7q4 0 9 10q8 17 26 17q9 0 24 -6t17 -6q5 0 27.5 6t36.5 6q47 0 64 -21q12 -16 17.5 -28
t5.5 -30q0 -24 -14 -57.5t-23 -46.5q-55 -80 -119.5 -140.5t-123.5 -86.5q-11 -5 -11 -17q0 -9 4.5 -16t13.5 -7q15 0 41 8.5t55 27.5q36 24 82.5 60.5t55.5 43.5q12 9 35.5 21t34.5 12q12 0 26 -11q10 -9 10 -23q0 -18 -10 -26q-11 -9 -40.5 -38.5t-44.5 -41.5
q-59 -49 -137 -89q-17 -9 -43.5 -15t-52.5 -6q-37 0 -65 9q-35 11 -52 31t-17 44l-2 5q-4 -1 -12 -10zM376 420q-189 -114 -241 -258q-2 -4 -8 -19.5t-8.5 -26.5t-2.5 -21q0 -17 8 -17q6 0 16.5 4t16.5 10q42 42 104 100q47 45 110 159l30 55q8 15 8 23q0 5 -4 5
q-6 0 -29 -14zM544 433q-24 -24 -47.5 -56.5t-63.5 -108.5q-13 -25 -13 -31l3 -3q7 0 44 39q76 82 97 131q7 16 7 27q0 4 -2.5 8t-4.5 4q-10 0 -20 -10z" />
    <glyph glyph-name="ccedilla" unicode="&#xe7;" horiz-adv-x="346" 
d="M295 360l13 26q0 3 -4 3q-78 -91 -117 -160q-9 -16 -24.5 -48.5t-24 -59t-8.5 -39.5q0 -3 0.5 -7t9.5 -4q40 0 121 60q89 67 126 67q22 0 41 -20q9 -10 9 -18l-3 -9q0 -5 -2 -7.5t-9 -5.5q-27 -9 -107 -74q-50 -41 -94 -60q-8 -3 -8 -8q0 -3 5 -11q5 -7 5 -19
q0 -26 -22 -55q-15 -19 -39.5 -34t-55.5 -15t-71.5 19.5t-40.5 41.5q0 9 10.5 21t25.5 12t23 -11l17 -14q6 -6 14 -6q21 0 48 46q6 10 7 16q0 5 -10 7q-23 6 -50 22.5t-34 29.5q-11 22 -11 47q0 30 17 75q1 2 4 16.5t7 22.5q15 32 47.5 87.5t68 100t63.5 64.5q24 17 49 17
q15 0 41 -6.5t52 -21.5t30 -28q3 -10 3 -19q0 -7 -17 -48.5t-17 -54.5q0 -9 -8 -15t-18 -6q-20 0 -37 13l-23 18q-11 10 -11 22q0 14 9 30z" />
    <glyph glyph-name="egrave" unicode="&#xe8;" horiz-adv-x="366" 
d="M411 98q-50 -46 -148 -102q-19 -11 -44 -11q-38 0 -109 37q-17 9 -31.5 29t-22.5 44q-13 37 -13 70q0 20 6 41q35 123 169 266q19 20 48.5 33.5t65.5 13.5q34 0 67 -12q16 -6 28 -22t12 -45q0 -27 -17 -63t-36 -60q-114 -140 -222 -205q-3 -2 -7 -4.5t-4 -7.5t6 -15.5
t12 -13.5q10 -5 19 -5q6 0 13 1.5t17 5t20 9t19 11.5t10 6q31 18 82 61.5t74 57.5q13 8 26 8q14 0 25.5 -9t11.5 -20q0 -8 -0.5 -15.5t-6.5 -13.5q-11 -10 -33.5 -33.5t-36.5 -36.5zM331 429q0 6 -5 6q-11 0 -42 -31q-33 -33 -61 -68.5t-50 -81.5q-11 -23 -11 -28l3 -3
q5 1 17 12q69 63 112 121q8 11 12.5 21t9.5 18q15 24 15 34zM328 732l47 -35l85 -59q18 -13 23.5 -18.5t5.5 -11.5q0 -3 -3 -14t-3 -17t-7.5 -11.5t-15.5 -5.5q-21 0 -43 14l-100 64q-26 16 -50 26q-7 3 -13.5 9t-6.5 31q0 13 12.5 29.5t29.5 16.5q7 0 20 -6q9 -4 19 -12z
" />
    <glyph glyph-name="eacute" unicode="&#xe9;" horiz-adv-x="366" 
d="M411 98q-50 -46 -148 -102q-19 -11 -44 -11q-38 0 -109 37q-17 9 -31.5 29t-22.5 44q-13 37 -13 70q0 20 6 41q35 123 169 266q19 20 48.5 33.5t65.5 13.5q34 0 67 -12q16 -6 28 -22t12 -45q0 -27 -17 -63t-36 -60q-114 -140 -222 -205q-3 -2 -7 -4.5t-4 -7.5t6 -15.5
t12 -13.5q10 -5 19 -5q6 0 13 1.5t17 5t20 9t19 11.5t10 6q31 18 82 61.5t74 57.5q13 8 26 8q14 0 25.5 -9t11.5 -20q0 -8 -0.5 -15.5t-6.5 -13.5q-11 -10 -33.5 -33.5t-36.5 -36.5zM331 429q0 6 -5 6q-11 0 -42 -31q-33 -33 -61 -68.5t-50 -81.5q-11 -23 -11 -28l3 -3
q5 1 17 12q69 63 112 121q8 11 12.5 21t9.5 18q15 24 15 34zM360 649l61 24q74 30 89 43q6 6 20 6q21 0 35 -14q3 -3 8 -10t5 -26q0 -15 -5 -25q-4 -7 -19 -15.5t-61 -22.5l-99 -30q-13 -4 -26 -4q-14 0 -22 5t-19 18t-11 20q0 10 6 17t15 7z" />
    <glyph glyph-name="ecircumflex" unicode="&#xea;" horiz-adv-x="366" 
d="M411 98q-50 -46 -148 -102q-19 -11 -44 -11q-38 0 -109 37q-17 9 -31.5 29t-22.5 44q-13 37 -13 70q0 20 6 41q35 123 169 266q19 20 48.5 33.5t65.5 13.5q34 0 67 -12q16 -6 28 -22t12 -45q0 -27 -17 -63t-36 -60q-114 -140 -222 -205q-3 -2 -7 -4.5t-4 -7.5t6 -15.5
t12 -13.5q10 -5 19 -5q6 0 13 1.5t17 5t20 9t19 11.5t10 6q31 18 82 61.5t74 57.5q13 8 26 8q14 0 25.5 -9t11.5 -20q0 -8 -0.5 -15.5t-6.5 -13.5q-11 -10 -33.5 -33.5t-36.5 -36.5zM331 429q0 6 -5 6q-11 0 -42 -31q-33 -33 -61 -68.5t-50 -81.5q-11 -23 -11 -28l3 -3
q5 1 17 12q69 63 112 121q8 11 12.5 21t9.5 18q15 24 15 34zM409 639l-11 -3q-77 -34 -87 -44q-4 -4 -12 -4q-2 0 -8.5 1t-15.5 7t-10 7q-13 7 -13 32q0 8 1 15t5 11.5t5 5.5q6 9 58 27l88 31q11 3 20 3t19.5 -4t12.5 -8q1 -2 5 -5.5t7 -9.5l59 -101q12 -21 12 -27
q0 -4 -2 -7.5t-7.5 -8t-6.5 -5.5q-11 -13 -23 -13q-7 0 -17.5 5.5t-18.5 15.5l-54 74z" />
    <glyph glyph-name="edieresis" unicode="&#xeb;" horiz-adv-x="366" 
d="M411 98q-50 -46 -148 -102q-19 -11 -44 -11q-38 0 -109 37q-17 9 -31.5 29t-22.5 44q-13 37 -13 70q0 20 6 41q35 123 169 266q19 20 48.5 33.5t65.5 13.5q34 0 67 -12q16 -6 28 -22t12 -45q0 -27 -17 -63t-36 -60q-114 -140 -222 -205q-3 -2 -7 -4.5t-4 -7.5t6 -15.5
t12 -13.5q10 -5 19 -5q6 0 13 1.5t17 5t20 9t19 11.5t10 6q31 18 82 61.5t74 57.5q13 8 26 8q14 0 25.5 -9t11.5 -20q0 -8 -0.5 -15.5t-6.5 -13.5q-11 -10 -33.5 -33.5t-36.5 -36.5zM331 429q0 6 -5 6q-11 0 -42 -31q-33 -33 -61 -68.5t-50 -81.5q-11 -23 -11 -28l3 -3
q5 1 17 12q69 63 112 121q8 11 12.5 21t9.5 18q15 24 15 34zM379 709q11 -19 11 -35q0 -13 -10.5 -29t-10.5 -19q-1 -7 -16 -14t-32 -7q-13 0 -24 5t-19 16q-11 16 -11 24l1 18q1 7 5.5 22t7.5 19q12 20 44 20q13 0 30.5 -5t23.5 -15zM506 677q15 0 33.5 -7t21.5 -20
q1 -5 6.5 -17.5t5.5 -21.5q0 -10 -11 -27t-19 -21q-10 -5 -30 -5q-14 0 -27.5 6t-16.5 15q-1 4 -11 18.5t-10 27.5q0 9 5 23.5t14.5 22t19.5 7.5z" />
    <glyph glyph-name="igrave" unicode="&#xec;" horiz-adv-x="220" 
d="M207 109q25 17 34.5 20t18.5 3q24 0 35.5 -8.5t11.5 -20.5q0 -16 -16 -31l-41 -38q-20 -17 -47 -32.5t-54 -15.5q-39 0 -67 32q-37 42 -37 96q0 35 16 81l17 49q71 165 78 181t17 36q8 17 24 23.5t33 6.5q29 0 46 -12q4 -3 7.5 -10.5t3.5 -14.5q0 -13 -9 -32.5
t-30.5 -50.5t-24.5 -38l-58 -139q-7 -17 -15 -47t-8 -50q0 -10 1.5 -15t6.5 -5q12 0 57 32zM218 688l47 -35l85 -59q18 -13 23.5 -18.5t5.5 -11.5q0 -3 -3 -14t-3 -17t-7.5 -11.5t-15.5 -5.5q-21 0 -43 14l-100 64q-26 16 -50 26q-7 3 -13.5 9t-6.5 31q0 13 12.5 29.5
t29.5 16.5q7 0 20 -6q9 -4 19 -12z" />
    <glyph glyph-name="iacute" unicode="&#xed;" horiz-adv-x="220" 
d="M207 109q25 17 34.5 20t18.5 3q24 0 35.5 -8.5t11.5 -20.5q0 -16 -16 -31l-41 -38q-20 -17 -47 -32.5t-54 -15.5q-39 0 -67 32q-37 42 -37 96q0 35 16 81l17 49q71 165 78 181t17 36q8 17 24 23.5t33 6.5q29 0 46 -12q4 -3 7.5 -10.5t3.5 -14.5q0 -13 -9 -32.5
t-30.5 -50.5t-24.5 -38l-58 -139q-7 -17 -15 -47t-8 -50q0 -10 1.5 -15t6.5 -5q12 0 57 32zM254 619l61 24q74 30 89 43q6 6 20 6q21 0 35 -14q3 -3 8 -10t5 -26q0 -15 -5 -25q-4 -7 -19 -15.5t-61 -22.5l-99 -30q-13 -4 -26 -4q-14 0 -22 5t-19 18t-11 20q0 10 6 17t15 7z
" />
    <glyph glyph-name="icircumflex" unicode="&#xee;" horiz-adv-x="220" 
d="M207 109q25 17 34.5 20t18.5 3q24 0 35.5 -8.5t11.5 -20.5q0 -16 -16 -31l-41 -38q-20 -17 -47 -32.5t-54 -15.5q-39 0 -67 32q-37 42 -37 96q0 35 16 81l17 49q71 165 78 181t17 36q8 17 24 23.5t33 6.5q29 0 46 -12q4 -3 7.5 -10.5t3.5 -14.5q0 -13 -9 -32.5
t-30.5 -50.5t-24.5 -38l-58 -139q-7 -17 -15 -47t-8 -50q0 -10 1.5 -15t6.5 -5q12 0 57 32zM293 605l-11 -3q-77 -34 -87 -44q-4 -4 -12 -4q-2 0 -8.5 1t-15.5 7t-10 7q-13 7 -13 32q0 8 1 15t5 11.5t5 5.5q6 9 58 27l88 31q11 3 20 3t19.5 -4t12.5 -8q1 -2 5 -5.5t7 -9.5
l59 -101q12 -21 12 -27q0 -4 -2 -7.5t-7.5 -8t-6.5 -5.5q-11 -13 -23 -13q-7 0 -17.5 5.5t-18.5 15.5l-54 74z" />
    <glyph glyph-name="idieresis" unicode="&#xef;" horiz-adv-x="220" 
d="M207 109q25 17 34.5 20t18.5 3q24 0 35.5 -8.5t11.5 -20.5q0 -16 -16 -31l-41 -38q-20 -17 -47 -32.5t-54 -15.5q-39 0 -67 32q-37 42 -37 96q0 35 16 81l17 49q71 165 78 181t17 36q8 17 24 23.5t33 6.5q29 0 46 -12q4 -3 7.5 -10.5t3.5 -14.5q0 -13 -9 -32.5
t-30.5 -50.5t-24.5 -38l-58 -139q-7 -17 -15 -47t-8 -50q0 -10 1.5 -15t6.5 -5q12 0 57 32zM251 691q11 -19 11 -35q0 -13 -10.5 -29t-10.5 -19q-1 -7 -16 -14t-32 -7q-13 0 -24 5t-19 16q-11 16 -11 24l1 18q1 7 5.5 22t7.5 19q12 20 44 20q13 0 30.5 -5t23.5 -15zM378 659
q15 0 33.5 -7t21.5 -20q1 -5 6.5 -17.5t5.5 -21.5q0 -10 -11 -27t-19 -21q-10 -5 -30 -5q-14 0 -27.5 6t-16.5 15q-1 4 -11 18.5t-10 27.5q0 9 5 23.5t14.5 22t19.5 7.5z" />
    <glyph glyph-name="eth" unicode="&#xf0;" horiz-adv-x="400" 
d="M237 482q-24 -17 -40 -17t-28 17q-10 14 -10 25q0 4 3 13t10 14q4 3 6.5 7t16.5 13l31 18q18 9 19 12q0 4 -8 14l-25 28q-2 2 -26.5 24.5t-29.5 30.5q-7 11 -7 22q0 10 6 17.5t14 9.5q5 1 16 7.5t19 6.5q10 0 44 -22q16 -10 23.5 -17.5t7.5 -15.5q0 -5 10 -15l26 -31
q13 -16 17 -16q2 0 27 15.5t38 21.5q8 4 18 4q21 0 42 -21q8 -8 8 -15t-9.5 -18t-9.5 -14q0 -5 -7.5 -11.5t-18.5 -13t-23.5 -13t-13.5 -6.5q-7 -3 -7 -6q0 -1 8 -21q16 -39 25.5 -81t9.5 -116q0 -39 -13 -96.5t-49.5 -122.5t-92.5 -110q-26 -21 -56 -21q-19 0 -32 2t-37 15
q-11 6 -29.5 14.5t-27 16t-16.5 25.5q-16 36 -16 85q0 55 19.5 113t48.5 93l39 52q18 25 44 39t48 14q8 0 20.5 -3t19.5 -6q6 -3 14 -8t10 -5l2 3q-3 19 -12 45q-11 33 -15 33q-5 0 -18 -7q-12 -6 -33 -21zM310 291q-8 5 -11 16l-15 54q-1 3 -4.5 9t-7.5 6q-6 0 -17 -8
t-18 -19q-36 -56 -52.5 -87.5t-25.5 -66.5t-9 -78q0 -25 7.5 -40t19.5 -15q14 0 35 21q50 50 79 122q8 19 15.5 45t7.5 35q0 3 -4 6z" />
    <glyph glyph-name="ntilde" unicode="&#xf1;" horiz-adv-x="420" 
d="M134 115q62 89 130 160q36 37 54.5 57.5t25.5 35.5q12 27 19.5 36.5t21.5 9.5q11 0 23 -4.5t15 -4.5q18 -2 26.5 -14t8.5 -23q0 -8 -10 -26q-48 -79 -68 -145q-4 -13 -8 -42.5t-4 -45.5q0 -13 7 -40q3 -12 31 -31q8 -5 13 -14t5 -17q0 -9 -8.5 -17t-24.5 -8
q-17 0 -37 4.5t-29 13.5q-5 5 -20.5 17t-20.5 19q-17 25 -17 68l1 26l-2 4q-4 -3 -14 -16l-52 -72q-10 -14 -22.5 -23.5t-17.5 -15.5q-12 -14 -37 -14q-7 0 -17 2.5t-15 5.5q-17 9 -35.5 22.5t-25.5 22.5q-3 4 -6 13t-3 16q0 12 5 33.5t6 28.5q1 5 3 13.5t7 23.5t12.5 32.5
t16 38t10.5 25.5q43 103 96 182q1 2 6.5 11t9.5 12q13 11 45 11q17 0 31.5 -6t19.5 -17q5 -10 5 -23q0 -18 -26 -48q-37 -40 -68 -99q-25 -46 -66 -153l-12 -34l1 -2q4 1 11 11zM361 576q-8 13 -17 13q-11 0 -33 -14q-7 -4 -20 -4q-15 0 -31 6.5t-16 17.5q0 4 -4 17.5
t-4 19.5q0 12 12 17l62 23q29 10 46 10q15 0 30 -8.5t37 -39.5q4 -5 11 -14t19 -9q11 0 30 8q6 3 21.5 6.5t24.5 3.5q28 0 33 -25l5 -21q0 -8 -11 -15q-47 -31 -63 -37t-26.5 -7.5t-18.5 -1.5q-33 0 -61 22q-10 8 -26 32z" />
    <glyph glyph-name="ograve" unicode="&#xf2;" horiz-adv-x="368" 
d="M354 455q11 -29 19 -37.5t25 -8.5q5 0 29.5 1.5t44.5 1.5q33 0 55.5 -11t22.5 -24q0 -11 -18 -18q-6 -2 -12.5 -6.5t-14.5 -6.5q-11 -2 -35.5 -8.5t-37.5 -8.5q-14 -2 -37 -2q-6 0 -9 -11q-20 -83 -49 -146.5t-73 -111.5q-33 -36 -55 -48.5t-43 -12.5q-6 0 -16.5 2.5
t-16.5 5.5q-67 33 -80 67q-15 38 -15 82q0 41 18 93.5t68 128.5l24 29q66 94 123 94q16 0 35 -6t33 -18q11 -10 15 -20zM270 403q-8 0 -17 -12q-32 -42 -62.5 -93t-45.5 -94t-15 -71q0 -15 5 -29q2 -6 7.5 -13.5t8.5 -7.5q11 0 25 21q10 16 27 41.5t38.5 63.5t32.5 78.5
t11 74.5q0 25 -4 28q-6 5 -8 10zM282 682l47 -35l85 -59q18 -13 23.5 -18.5t5.5 -11.5q0 -3 -3 -14t-3 -17t-7.5 -11.5t-15.5 -5.5q-21 0 -43 14l-100 64q-26 16 -50 26q-7 3 -13.5 9t-6.5 31q0 13 12.5 29.5t29.5 16.5q7 0 20 -6q9 -4 19 -12z" />
    <glyph glyph-name="oacute" unicode="&#xf3;" horiz-adv-x="368" 
d="M354 455q11 -29 19 -37.5t25 -8.5q5 0 29.5 1.5t44.5 1.5q33 0 55.5 -11t22.5 -24q0 -11 -18 -18q-6 -2 -12.5 -6.5t-14.5 -6.5q-11 -2 -35.5 -8.5t-37.5 -8.5q-14 -2 -37 -2q-6 0 -9 -11q-20 -83 -49 -146.5t-73 -111.5q-33 -36 -55 -48.5t-43 -12.5q-6 0 -16.5 2.5
t-16.5 5.5q-67 33 -80 67q-15 38 -15 82q0 41 18 93.5t68 128.5l24 29q66 94 123 94q16 0 35 -6t33 -18q11 -10 15 -20zM270 403q-8 0 -17 -12q-32 -42 -62.5 -93t-45.5 -94t-15 -71q0 -15 5 -29q2 -6 7.5 -13.5t8.5 -7.5q11 0 25 21q10 16 27 41.5t38.5 63.5t32.5 78.5
t11 74.5q0 25 -4 28q-6 5 -8 10zM286 621l61 24q74 30 89 43q6 6 20 6q21 0 35 -14q3 -3 8 -10t5 -26q0 -15 -5 -25q-4 -7 -19 -15.5t-61 -22.5l-99 -30q-13 -4 -26 -4q-14 0 -22 5t-19 18t-11 20q0 10 6 17t15 7z" />
    <glyph glyph-name="ocircumflex" unicode="&#xf4;" horiz-adv-x="368" 
d="M354 455q11 -29 19 -37.5t25 -8.5q5 0 29.5 1.5t44.5 1.5q33 0 55.5 -11t22.5 -24q0 -11 -18 -18q-6 -2 -12.5 -6.5t-14.5 -6.5q-11 -2 -35.5 -8.5t-37.5 -8.5q-14 -2 -37 -2q-6 0 -9 -11q-20 -83 -49 -146.5t-73 -111.5q-33 -36 -55 -48.5t-43 -12.5q-6 0 -16.5 2.5
t-16.5 5.5q-67 33 -80 67q-15 38 -15 82q0 41 18 93.5t68 128.5l24 29q66 94 123 94q16 0 35 -6t33 -18q11 -10 15 -20zM270 403q-8 0 -17 -12q-32 -42 -62.5 -93t-45.5 -94t-15 -71q0 -15 5 -29q2 -6 7.5 -13.5t8.5 -7.5q11 0 25 21q10 16 27 41.5t38.5 63.5t32.5 78.5
t11 74.5q0 25 -4 28q-6 5 -8 10zM333 607l-11 -3q-77 -34 -87 -44q-4 -4 -12 -4q-2 0 -8.5 1t-15.5 7t-10 7q-13 7 -13 32q0 8 1 15t5 11.5t5 5.5q6 9 58 27l88 31q11 3 20 3t19.5 -4t12.5 -8q1 -2 5 -5.5t7 -9.5l59 -101q12 -21 12 -27q0 -4 -2 -7.5t-7.5 -8t-6.5 -5.5
q-11 -13 -23 -13q-7 0 -17.5 5.5t-18.5 15.5l-54 74z" />
    <glyph glyph-name="otilde" unicode="&#xf5;" horiz-adv-x="368" 
d="M354 455q11 -29 19 -37.5t25 -8.5q5 0 29.5 1.5t44.5 1.5q33 0 55.5 -11t22.5 -24q0 -11 -18 -18q-6 -2 -12.5 -6.5t-14.5 -6.5q-11 -2 -35.5 -8.5t-37.5 -8.5q-14 -2 -37 -2q-6 0 -9 -11q-20 -83 -49 -146.5t-73 -111.5q-33 -36 -55 -48.5t-43 -12.5q-6 0 -16.5 2.5
t-16.5 5.5q-67 33 -80 67q-15 38 -15 82q0 41 18 93.5t68 128.5l24 29q66 94 123 94q16 0 35 -6t33 -18q11 -10 15 -20zM270 403q-8 0 -17 -12q-32 -42 -62.5 -93t-45.5 -94t-15 -71q0 -15 5 -29q2 -6 7.5 -13.5t8.5 -7.5q11 0 25 21q10 16 27 41.5t38.5 63.5t32.5 78.5
t11 74.5q0 25 -4 28q-6 5 -8 10zM319 588q-8 13 -17 13q-11 0 -33 -14q-7 -4 -20 -4q-15 0 -31 6.5t-16 17.5q0 4 -4 17.5t-4 19.5q0 12 12 17l62 23q29 10 46 10q15 0 30 -8.5t37 -39.5q4 -5 11 -14t19 -9q11 0 30 8q6 3 21.5 6.5t24.5 3.5q28 0 33 -25l5 -21q0 -8 -11 -15
q-47 -31 -63 -37t-26.5 -7.5t-18.5 -1.5q-33 0 -61 22q-10 8 -26 32z" />
    <glyph glyph-name="odieresis" unicode="&#xf6;" horiz-adv-x="368" 
d="M354 455q11 -29 19 -37.5t25 -8.5q5 0 29.5 1.5t44.5 1.5q33 0 55.5 -11t22.5 -24q0 -11 -18 -18q-6 -2 -12.5 -6.5t-14.5 -6.5q-11 -2 -35.5 -8.5t-37.5 -8.5q-14 -2 -37 -2q-6 0 -9 -11q-20 -83 -49 -146.5t-73 -111.5q-33 -36 -55 -48.5t-43 -12.5q-6 0 -16.5 2.5
t-16.5 5.5q-67 33 -80 67q-15 38 -15 82q0 41 18 93.5t68 128.5l24 29q66 94 123 94q16 0 35 -6t33 -18q11 -10 15 -20zM270 403q-8 0 -17 -12q-32 -42 -62.5 -93t-45.5 -94t-15 -71q0 -15 5 -29q2 -6 7.5 -13.5t8.5 -7.5q11 0 25 21q10 16 27 41.5t38.5 63.5t32.5 78.5
t11 74.5q0 25 -4 28q-6 5 -8 10zM317 689q11 -19 11 -35q0 -13 -10.5 -29t-10.5 -19q-1 -7 -16 -14t-32 -7q-13 0 -24 5t-19 16q-11 16 -11 24l1 18q1 7 5.5 22t7.5 19q12 20 44 20q13 0 30.5 -5t23.5 -15zM444 657q15 0 33.5 -7t21.5 -20q1 -5 6.5 -17.5t5.5 -21.5
q0 -10 -11 -27t-19 -21q-10 -5 -30 -5q-14 0 -27.5 6t-16.5 15q-1 4 -11 18.5t-10 27.5q0 9 5 23.5t14.5 22t19.5 7.5z" />
    <glyph glyph-name="divide" unicode="&#xf7;" horiz-adv-x="590" 
d="M560 295q0 -35 -8 -52q-2 -4 -8.5 -7.5t-33.5 -3.5h-8t-88.5 -3.5t-147.5 -3.5q-107 0 -127 10q-28 14 -28 69q0 8 11 13.5t29 5.5h5t47 -3.5t104 -3.5q30 0 71.5 2t62.5 2l60 5q39 0 55 -20q4 -5 4 -10zM355 511q21 0 50.5 -22.5t29.5 -33.5q0 -18 -7 -43.5t-21.5 -40
t-32.5 -14.5q-9 0 -33.5 8.5t-38 20.5t-13.5 25q0 5 1.5 18.5t13 38t14.5 31.5q5 12 37 12zM324 163q27 -26 31 -39t4 -22q0 -41 -17 -53t-45 -12t-40 13t-13 14q-3 3 -15.5 14.5t-12.5 26.5q0 11 7 33.5t20.5 36t29.5 13.5q25 0 51 -25z" />
    <glyph glyph-name="oslash" unicode="&#xf8;" horiz-adv-x="406" 
d="M398 456q20 20 38 20q9 0 21 -9q7 -6 13.5 -17.5t6.5 -19.5q0 -2 -1 -5.5t-12 -10.5t-17 -11q-17 -13 -17 -19q0 -1 1.5 -9t1.5 -16q0 -17 -3 -35q-7 -42 -24 -95t-42 -101t-48 -77q-22 -29 -53.5 -46.5t-60.5 -17.5q-21 0 -49.5 11.5t-42.5 21.5q-8 6 -10 6l-6 -3
q-13 -12 -27.5 -18.5t-23.5 -6.5t-17 9q-4 4 -17 40q0 5 4.5 10.5t17.5 13.5t16 10q10 8 10 10q-12 45 -12 72q0 88 82 199l36 46q37 49 67.5 71.5t61.5 22.5q17 0 39.5 -10.5t39.5 -27.5l13 -10l6 -3zM173 210l151 166q9 10 9 13l-3 3q-13 5 -20 18l-6 7q-9 0 -24 -19
q-51 -62 -78 -104t-45 -87l-3 -10l2 -2q4 1 17 15zM298 244l-118 -130l-16 -17q-8 -8 -8 -13t8 -11t13 -6q10 0 22.5 6t18.5 13q53 64 89 154l4 13l-2 2z" />
    <glyph glyph-name="ugrave" unicode="&#xf9;" horiz-adv-x="420" 
d="M251 50q-27 -28 -54 -48t-45 -20q-10 0 -32.5 6t-39.5 16q-20 12 -29.5 27.5t-9.5 51.5q0 35 23 113l16 62q5 13 20 61t26 75t23 48q8 14 21.5 22t28.5 8q12 0 29 -6.5t22 -17.5q0 -1 5.5 -11t5.5 -16q0 -7 -5.5 -16t-15.5 -16q-20 -14 -27 -43q-9 -34 -38.5 -124.5
t-35.5 -130.5l-2 -18l2 -5q5 0 16 11q18 18 28 31.5t16 19.5q105 112 146 219q1 4 5 10.5t15 12.5q14 8 25 8q2 0 8.5 -1t16 -6t11.5 -6q29 -11 29 -29q0 -14 -6 -26q-24 -48 -44 -107.5t-28 -113.5q-6 -43 -6 -57q0 -25 9 -47q10 -25 10 -35q0 -8 -5.5 -16t-22.5 -8
q-23 0 -52 19q-5 3 -14 7t-14 17q-10 24 -10 57l2 38l-3 3q-4 -2 -20 -19zM282 642l47 -35l85 -59q18 -13 23.5 -18.5t5.5 -11.5q0 -3 -3 -14t-3 -17t-7.5 -11.5t-15.5 -5.5q-21 0 -43 14l-100 64q-26 16 -50 26q-7 3 -13.5 9t-6.5 31q0 13 12.5 29.5t29.5 16.5q7 0 20 -6
q9 -4 19 -12z" />
    <glyph glyph-name="uacute" unicode="&#xfa;" horiz-adv-x="420" 
d="M251 50q-27 -28 -54 -48t-45 -20q-10 0 -32.5 6t-39.5 16q-20 12 -29.5 27.5t-9.5 51.5q0 35 23 113l16 62q5 13 20 61t26 75t23 48q8 14 21.5 22t28.5 8q12 0 29 -6.5t22 -17.5q0 -1 5.5 -11t5.5 -16q0 -7 -5.5 -16t-15.5 -16q-20 -14 -27 -43q-9 -34 -38.5 -124.5
t-35.5 -130.5l-2 -18l2 -5q5 0 16 11q18 18 28 31.5t16 19.5q105 112 146 219q1 4 5 10.5t15 12.5q14 8 25 8q2 0 8.5 -1t16 -6t11.5 -6q29 -11 29 -29q0 -14 -6 -26q-24 -48 -44 -107.5t-28 -113.5q-6 -43 -6 -57q0 -25 9 -47q10 -25 10 -35q0 -8 -5.5 -16t-22.5 -8
q-23 0 -52 19q-5 3 -14 7t-14 17q-10 24 -10 57l2 38l-3 3q-4 -2 -20 -19zM300 585l61 24q74 30 89 43q6 6 20 6q21 0 35 -14q3 -3 8 -10t5 -26q0 -15 -5 -25q-4 -7 -19 -15.5t-61 -22.5l-99 -30q-13 -4 -26 -4q-14 0 -22 5t-19 18t-11 20q0 10 6 17t15 7z" />
    <glyph glyph-name="ucircumflex" unicode="&#xfb;" horiz-adv-x="420" 
d="M251 50q-27 -28 -54 -48t-45 -20q-10 0 -32.5 6t-39.5 16q-20 12 -29.5 27.5t-9.5 51.5q0 35 23 113l16 62q5 13 20 61t26 75t23 48q8 14 21.5 22t28.5 8q12 0 29 -6.5t22 -17.5q0 -1 5.5 -11t5.5 -16q0 -7 -5.5 -16t-15.5 -16q-20 -14 -27 -43q-9 -34 -38.5 -124.5
t-35.5 -130.5l-2 -18l2 -5q5 0 16 11q18 18 28 31.5t16 19.5q105 112 146 219q1 4 5 10.5t15 12.5q14 8 25 8q2 0 8.5 -1t16 -6t11.5 -6q29 -11 29 -29q0 -14 -6 -26q-24 -48 -44 -107.5t-28 -113.5q-6 -43 -6 -57q0 -25 9 -47q10 -25 10 -35q0 -8 -5.5 -16t-22.5 -8
q-23 0 -52 19q-5 3 -14 7t-14 17q-10 24 -10 57l2 38l-3 3q-4 -2 -20 -19zM369 579l-11 -3q-77 -34 -87 -44q-4 -4 -12 -4q-2 0 -8.5 1t-15.5 7t-10 7q-13 7 -13 32q0 8 1 15t5 11.5t5 5.5q6 9 58 27l88 31q11 3 20 3t19.5 -4t12.5 -8q1 -2 5 -5.5t7 -9.5l59 -101
q12 -21 12 -27q0 -4 -2 -7.5t-7.5 -8t-6.5 -5.5q-11 -13 -23 -13q-7 0 -17.5 5.5t-18.5 15.5l-54 74z" />
    <glyph glyph-name="udieresis" unicode="&#xfc;" horiz-adv-x="420" 
d="M251 50q-27 -28 -54 -48t-45 -20q-10 0 -32.5 6t-39.5 16q-20 12 -29.5 27.5t-9.5 51.5q0 35 23 113l16 62q5 13 20 61t26 75t23 48q8 14 21.5 22t28.5 8q12 0 29 -6.5t22 -17.5q0 -1 5.5 -11t5.5 -16q0 -7 -5.5 -16t-15.5 -16q-20 -14 -27 -43q-9 -34 -38.5 -124.5
t-35.5 -130.5l-2 -18l2 -5q5 0 16 11q18 18 28 31.5t16 19.5q105 112 146 219q1 4 5 10.5t15 12.5q14 8 25 8q2 0 8.5 -1t16 -6t11.5 -6q29 -11 29 -29q0 -14 -6 -26q-24 -48 -44 -107.5t-28 -113.5q-6 -43 -6 -57q0 -25 9 -47q10 -25 10 -35q0 -8 -5.5 -16t-22.5 -8
q-23 0 -52 19q-5 3 -14 7t-14 17q-10 24 -10 57l2 38l-3 3q-4 -2 -20 -19zM351 663q11 -19 11 -35q0 -13 -10.5 -29t-10.5 -19q-1 -7 -16 -14t-32 -7q-13 0 -24 5t-19 16q-11 16 -11 24l1 18q1 7 5.5 22t7.5 19q12 20 44 20q13 0 30.5 -5t23.5 -15zM450 583q15 0 33.5 -7
t21.5 -20q1 -5 6.5 -17.5t5.5 -21.5q0 -10 -11 -27t-19 -21q-10 -5 -30 -5q-14 0 -27.5 6t-16.5 15q-1 4 -11 18.5t-10 27.5q0 9 5 23.5t14.5 22t19.5 7.5z" />
    <glyph glyph-name="yacute" unicode="&#xfd;" horiz-adv-x="436" 
d="M152 114q6 1 12 5q25 16 37 27.5t27 28.5l36 39q6 7 33.5 36t50 66.5t41.5 89.5q3 10 12 22t24 12q6 0 18 -4.5t22 -5.5q12 -1 20 -4t14 -13q7 -11 7 -21q0 -22 -19 -50l-24 -35q-30 -44 -59 -126l-54 -148l-8 -26q1 -4 6 -5q8 -2 15 -7.5t7 -14.5q0 -11 -8 -22
q-83 -111 -117 -276q-10 -51 -15.5 -67t-14.5 -27.5t-18.5 -16.5t-19.5 -6l-35 -3q-18 0 -32 9q-18 12 -18 41q0 30 19 73q41 93 84 168q6 30 62 207l5 18q0 3 -3 4q-3 0 -26 -18q-16 -13 -36 -24.5t-28 -11.5q-71 0 -111 46q-9 10 -9 35q0 28 11.5 78t27.5 96q4 11 29 75.5
t35 98.5q3 11 15 22t28 11l12 -1q37 -6 46 -13q2 -2 8 -9t6 -19q0 -16 -11 -36q-3 -6 -12.5 -18t-12.5 -19q-23 -51 -43.5 -118t-25.5 -82q-13 -41 -13 -57q0 -3 3 -4zM312 573l61 24q74 30 89 43q6 6 20 6q21 0 35 -14q3 -3 8 -10t5 -26q0 -15 -5 -25q-4 -7 -19 -15.5
t-61 -22.5l-99 -30q-13 -4 -26 -4q-14 0 -22 5t-19 18t-11 20q0 10 6 17t15 7z" />
    <glyph glyph-name="thorn" unicode="&#xfe;" horiz-adv-x="456" 
d="M263 380q28 28 49 46t45 30q16 8 30 8q32 0 87 -38q8 -6 14.5 -17.5t6.5 -32.5q0 -27 -9 -56q-1 -3 -2.5 -15.5t-5.5 -22.5q-81 -207 -163 -274q-10 -9 -30 -9q-28 0 -60 17q-17 9 -31 23t-27 35q-7 11 -10 12q-6 -7 -17 -27q-35 -67 -111 -283q-9 -48 -33 -48l-26 3
q-30 0 -40 13q-2 2 -9 9.5t-7 16.5q0 6 6 24q4 13 17 48.5t113.5 286.5t164.5 467q12 40 12 59q0 7 4 11.5t19 8t20 5.5q13 5 25 5q17 0 31 -8.5t14 -22.5q0 -21 -45 -156l-41 -113l-3 -10l2 -3zM257 86q4 0 11 9q23 28 52.5 89t51.5 139l8 32l-2 3q-5 0 -20 -12
q-33 -27 -68.5 -67.5t-58.5 -78.5q-4 -7 -4 -26q0 -17 5 -39t13 -37q7 -12 12 -12z" />
    <glyph glyph-name="ydieresis" unicode="&#xff;" horiz-adv-x="436" 
d="M152 114q6 1 12 5q25 16 37 27.5t27 28.5l36 39q6 7 33.5 36t50 66.5t41.5 89.5q3 10 12 22t24 12q6 0 18 -4.5t22 -5.5q12 -1 20 -4t14 -13q7 -11 7 -21q0 -22 -19 -50l-24 -35q-30 -44 -59 -126l-54 -148l-8 -26q1 -4 6 -5q8 -2 15 -7.5t7 -14.5q0 -11 -8 -22
q-83 -111 -117 -276q-10 -51 -15.5 -67t-14.5 -27.5t-18.5 -16.5t-19.5 -6l-35 -3q-18 0 -32 9q-18 12 -18 41q0 30 19 73q41 93 84 168q6 30 62 207l5 18q0 3 -3 4q-3 0 -26 -18q-16 -13 -36 -24.5t-28 -11.5q-71 0 -111 46q-9 10 -9 35q0 28 11.5 78t27.5 96q4 11 29 75.5
t35 98.5q3 11 15 22t28 11l12 -1q37 -6 46 -13q2 -2 8 -9t6 -19q0 -16 -11 -36q-3 -6 -12.5 -18t-12.5 -19q-23 -51 -43.5 -118t-25.5 -82q-13 -41 -13 -57q0 -3 3 -4zM347 649q11 -19 11 -35q0 -13 -10.5 -29t-10.5 -19q-1 -7 -16 -14t-32 -7q-13 0 -24 5t-19 16
q-11 16 -11 24l1 18q1 7 5.5 22t7.5 19q12 20 44 20q13 0 30.5 -5t23.5 -15zM474 617q15 0 33.5 -7t21.5 -20q1 -5 6.5 -17.5t5.5 -21.5q0 -10 -11 -27t-19 -21q-10 -5 -30 -5q-14 0 -27.5 6t-16.5 15q-1 4 -11 18.5t-10 27.5q0 9 5 23.5t14.5 22t19.5 7.5z" />
    <glyph glyph-name="Amacron" unicode="&#x100;" horiz-adv-x="510" 
d="M325 167q-19 -7 -68.5 -23t-86.5 -24q-3 -1 -6.5 -2.5t-6.5 -8.5q-10 -26 -12.5 -38.5t-3.5 -26.5t-1 -31l2 -29q0 -6 -7 -10q-2 -1 -11.5 -9t-16.5 -11t-13 -3q-9 0 -19 5l-12 6q-11 6 -20 15.5t-11.5 23t-2.5 35.5q0 30 9 71l2 12q-1 3 -6 6q-30 17 -30 33q0 10 3.5 26
t11.5 29q6 9 18 9q13 0 32 -10l8 -3q4 2 9 11q150 271 274 451q11 17 44 20q2 0 13 2t18.5 3t13.5 1q26 0 40 -11q3 -3 7.5 -11.5t4.5 -11.5q0 -8 -7 -48t-7 -46l-3 -32q-7 -40 -14 -125.5t-7 -99.5q0 -9 5 -9q16 3 31 3q22 0 44 -5.5t34 -19.5q8 -9 8 -16q0 -6 -5 -13
q-11 -14 -26 -21.5t-44 -7.5q-36 0 -48 -12q-4 -4 -6 -22q-6 -66 -6 -163q0 -20 3 -38.5t9.5 -33.5t6.5 -17q0 -13 -12 -25.5t-26 -12.5q-17 0 -36 5.5t-30 16.5q-8 8 -14 47t-6 75q0 22 2.5 70.5t2.5 50.5q0 9 -3 9q-8 0 -22 -6zM369 521q-84 -141 -154 -281q-7 -14 -7 -17
q2 -3 5 -3q4 0 29.5 7t38.5 12l64 24q8 3 8 12q0 8 14 123t14 122l-2 12q-4 -1 -10 -11zM336 834q9 0 46 -1.5t87 -1.5l128 3q8 0 14 -2.5t9.5 -9t5.5 -8.5q6 -6 6 -10l-2 -12q0 -21 -5 -31q-7 -12 -26 -12l-35 1l-131 -2q-88 0 -108 6q-31 9 -31 62q0 18 42 18z" />
    <glyph glyph-name="amacron" unicode="&#x101;" horiz-adv-x="468" 
d="M320 124l-11 -9l-42 -40q-42 -40 -80.5 -59.5t-60.5 -19.5q-14 0 -33 12q-18 12 -49 37q-12 10 -19 26t-7 32q0 30 23 84t71.5 113.5t108.5 102.5q79 56 159 78q15 4 27 4q19 0 39 -9.5t35 -24.5q11 -11 17 -23q4 -8 17 -11q36 -9 36 -27q0 -9 -4 -14q-93 -122 -114 -205
q-13 -52 -13 -84q0 -44 19 -72l3 -10q0 -7 -7.5 -12.5t-19.5 -6.5q-2 0 -9 -2t-13 -2q-16 0 -34 8t-24 20q-4 8 -9.5 27.5t-5.5 41.5q0 9 0.5 18t1.5 24zM423 407q-8 0 -20 -7q-141 -73 -219 -168q-2 -2 -21 -29t-35.5 -59t-16.5 -48q0 -14 6 -14q4 0 16 6.5t23 17.5
q19 18 113.5 99t128.5 145q11 19 28 36q6 6 6 12q0 9 -9 9zM370 656q9 0 46 -1.5t87 -1.5l128 3q8 0 14 -2.5t9.5 -9t5.5 -8.5q6 -6 6 -10l-2 -12q0 -21 -5 -31q-7 -12 -26 -12l-35 1l-131 -2q-88 0 -108 6q-31 9 -31 62q0 18 42 18z" />
    <glyph glyph-name="Abreve" unicode="&#x102;" horiz-adv-x="510" 
d="M325 167q-19 -7 -68.5 -23t-86.5 -24q-3 -1 -6.5 -2.5t-6.5 -8.5q-10 -26 -12.5 -38.5t-3.5 -26.5t-1 -31l2 -29q0 -6 -7 -10q-2 -1 -11.5 -9t-16.5 -11t-13 -3q-9 0 -19 5l-12 6q-11 6 -20 15.5t-11.5 23t-2.5 35.5q0 30 9 71l2 12q-1 3 -6 6q-30 17 -30 33q0 10 3.5 26
t11.5 29q6 9 18 9q13 0 32 -10l8 -3q5 2 10 11q43 77 96.5 163.5t170.5 256.5q11 17 44 20q3 0 20.5 3.5t28.5 3.5q29 -2 42 -12q3 -2 7.5 -10.5t4.5 -11.5q0 -8 -7 -48.5t-7 -45.5l-4 -31q-5 -32 -12.5 -104.5t-7.5 -91.5q0 -9 5 -9q16 3 31 3q22 0 44 -5.5t34 -19.5
q8 -9 8 -16q0 -6 -5 -13q-11 -14 -26 -21.5t-44 -7.5q-36 0 -48 -12q-4 -4 -6 -22q-6 -66 -6 -163q0 -20 3 -38.5t9.5 -33.5t6.5 -17q0 -13 -12 -25.5t-26 -12.5q-17 0 -36 5.5t-30 16.5q-8 8 -14 47t-6 75q0 22 2.5 70.5t2.5 50.5q0 9 -3 9q-8 0 -22 -6zM368 496
q-18 -31 -62.5 -101t-88.5 -153l-9 -19q2 -3 5 -3q4 0 29.5 7t38.5 12l64 24q9 3 9 12l26 220l-2 12q-4 -1 -10 -11zM407 868q7 -7 15.5 -24t8.5 -23q0 -17 10 -29q12 -15 29 -15q7 0 22 5.5t44 31.5t35 28l13 2q11 0 21 -6t11 -14q1 -6 6.5 -14.5t5.5 -13.5q0 -4 -5 -9
t-7 -8q-20 -29 -61 -53.5t-83 -24.5q-26 0 -54.5 10.5t-54 41.5t-34.5 70l-4 16q0 5 5 12q5 6 16.5 9.5t15.5 7.5q9 9 21 9q15 0 24 -9z" />
    <glyph glyph-name="abreve" unicode="&#x103;" horiz-adv-x="468" 
d="M320 124l-11 -9l-42 -40q-42 -40 -80.5 -59.5t-60.5 -19.5q-14 0 -33 12q-18 12 -49 37q-12 10 -19 26t-7 32q0 30 23 84t71.5 113.5t108.5 102.5q79 56 159 78q15 4 27 4q19 0 39 -9.5t35 -24.5q11 -11 17 -23q4 -8 17 -11q36 -9 36 -27q0 -9 -4 -14q-93 -122 -114 -205
q-13 -52 -13 -84q0 -44 19 -72l3 -10q0 -7 -7.5 -12.5t-19.5 -6.5q-2 0 -9 -2t-13 -2q-16 0 -34 8t-24 20q-4 8 -9.5 27.5t-5.5 41.5q0 9 0.5 18t1.5 24zM423 407q-8 0 -20 -7q-141 -73 -219 -168q-2 -2 -21 -29t-35.5 -59t-16.5 -48q0 -14 6 -14q4 0 16 6.5t23 17.5
q19 18 113.5 99t128.5 145q11 19 28 36q6 6 6 12q0 9 -9 9zM428 700q7 -7 15.5 -24t8.5 -23q0 -17 10 -29q12 -15 29 -15q7 0 22 5.5t44 31.5t35 28l13 2q11 0 21 -6t11 -14q1 -6 6.5 -14.5t5.5 -13.5q0 -4 -5 -9t-7 -8q-20 -29 -61 -53.5t-83 -24.5q-26 0 -54.5 10.5
t-54 41.5t-34.5 70l-4 16q0 5 5 12q5 6 16.5 9.5t15.5 7.5q9 9 21 9q15 0 24 -9z" />
    <glyph glyph-name="Aogonek" unicode="&#x104;" horiz-adv-x="510" 
d="M325 167q-19 -7 -68.5 -23t-86.5 -24q-3 -1 -6.5 -2.5t-6.5 -8.5q-10 -26 -12.5 -38.5t-3.5 -26.5t-1 -31l2 -29q0 -6 -7 -10q-2 -1 -11.5 -9t-16.5 -11t-13 -3q-9 0 -19 5l-12 6q-11 6 -20 15.5t-11.5 23t-2.5 35.5q0 30 9 71l2 12q-1 3 -6 6q-30 17 -30 33q0 10 3.5 26
t11.5 29q6 9 18 9q13 0 32 -10l8 -3q4 2 9 11q150 271 274 451q11 17 44 20q2 0 13 2t18.5 3t13.5 1q26 0 40 -11q3 -3 7.5 -11.5t4.5 -11.5q0 -8 -7 -48t-7 -46l-3 -32q-7 -40 -14 -125.5t-7 -99.5q0 -9 5 -9q16 3 31 3q22 0 44 -5.5t34 -19.5q8 -9 8 -16q0 -6 -5 -13
q-11 -14 -26 -21.5t-44 -7.5q-36 0 -48 -12q-4 -4 -6 -22q-2 -20 -4 -73t-2 -96q0 -7 -5 -17t-11 -14q-10 -7 -16.5 -25t-6.5 -33q0 -21 13 -21q7 0 17 4t28 4q21 0 31.5 -6t10.5 -14q0 -6 -5.5 -16t-6.5 -14q-3 -14 -5 -16q-13 -18 -66 -18t-78.5 25t-25.5 63q0 7 4 28.5
t21 51.5q-4 10 -4 41q0 22 2.5 70.5t2.5 50.5q0 9 -3 9q-8 0 -22 -6zM369 521q-84 -141 -154 -281q-7 -14 -7 -17q2 -3 5 -3q4 0 29.5 7t38.5 12l64 24q8 3 8 12q0 8 14 123t14 122l-2 12q-4 -1 -10 -11z" />
    <glyph glyph-name="aogonek" unicode="&#x105;" horiz-adv-x="468" 
d="M420 87l1 -53q0 -7 -8.5 -19.5t-10.5 -17.5q-3 -7 -6 -19t-3 -19q0 -21 13 -21q7 0 17 4t28 4q21 0 31.5 -6t10.5 -14q0 -6 -5.5 -16t-6.5 -14q-3 -14 -5 -16q-13 -18 -66 -18t-78.5 25t-25.5 63q0 37 20 77q-6 14 -6 37v21.5t0.5 18t1 12t0.5 5.5l-2 3l-11 -9l-42 -40
q-42 -40 -80.5 -59.5t-60.5 -19.5q-14 0 -33 12q-18 12 -49 37q-12 10 -19 26t-7 32q0 30 23 84t71.5 113.5t108.5 102.5q79 56 159 78q15 4 27 4q19 0 39 -9.5t35 -24.5q11 -11 17 -23q4 -8 17 -11q36 -9 36 -27q0 -9 -4 -14q-93 -122 -114 -205q-13 -52 -13 -84zM423 407
q-8 0 -20 -7q-141 -73 -219 -168q-2 -2 -21 -29t-35.5 -59t-16.5 -48q0 -14 6 -14q4 0 16 6.5t23 17.5q19 18 113.5 99t128.5 145q11 19 28 36q6 6 6 12q0 9 -9 9z" />
    <glyph glyph-name="Cacute" unicode="&#x106;" horiz-adv-x="472" 
d="M396 557q-22 -21 -38 -38.5t-71 -92.5q-77 -104 -124 -265q-4 -16 -4 -44q0 -31 11 -42q14 -14 20 -18t14 -4q17 0 45 14q20 10 46.5 30t61 52.5t36.5 34.5q4 3 12 7.5t36 4.5q35 0 51 -26q7 -11 7 -19q0 -4 -6 -9t-8 -7q-3 -3 -36 -38t-66 -61.5t-71 -43t-79 -16.5
q-19 0 -46 4.5t-42 11.5q-28 13 -54 36t-31 46q-6 28 -6 61q0 24 4.5 55t9.5 44q33 92 77 173.5t100.5 145.5t123.5 102q14 8 40 13.5t47 5.5q26 0 49 -9q3 -1 10.5 -4.5t13.5 -11t10 -11.5q39 -35 39 -61q0 -13 -17 -51q-20 -45 -27 -65q-8 -23 -39 -23l-18 2q-17 3 -25 6
t-18 11q-17 13 -17 29q0 14 17 38.5t18 35.5q1 6 7 18l5 12l-4 3q-6 0 -25.5 -9t-38.5 -27zM426 773l61 24q74 30 89 43q6 6 20 6q21 0 35 -14q3 -3 8 -10t5 -26q0 -15 -5 -25q-4 -7 -19 -15.5t-61 -22.5l-99 -30q-13 -4 -26 -4q-14 0 -22 5t-19 18t-11 20q0 10 6 17t15 7z
" />
    <glyph glyph-name="cacute" unicode="&#x107;" horiz-adv-x="346" 
d="M295 360l13 26q0 3 -4 3q-78 -91 -117 -160q-9 -16 -24.5 -48.5t-24 -59t-8.5 -39.5q0 -3 0.5 -7t9.5 -4q40 0 121 60q89 67 126 67q22 0 41 -20q9 -10 9 -18l-3 -9q0 -5 -2 -7.5t-9 -5.5q-27 -9 -107 -74q-91 -74 -152 -74q-21 0 -46.5 8.5t-46.5 24t-25 23.5
q-11 22 -11 47q0 30 17 75q1 2 4 16.5t7 22.5q15 32 47.5 87.5t68 100t63.5 64.5q24 17 49 17q15 0 41 -6.5t52 -21.5t30 -28q3 -10 3 -19q0 -7 -17 -48.5t-17 -54.5q0 -9 -8 -15t-18 -6q-20 0 -37 13l-23 18q-11 10 -11 22q0 14 9 30zM274 604l61 24q74 30 89 43q6 6 20 6
q21 0 35 -14q3 -3 8 -10t5 -26q0 -15 -5 -25q-4 -7 -19 -15.5t-61 -22.5l-99 -30q-13 -4 -26 -4q-14 0 -22 5t-19 18t-11 20q0 10 6 17t15 7z" />
    <glyph glyph-name="Ccircumflex" unicode="&#x108;" horiz-adv-x="472" 
d="M396 557q-22 -21 -38 -38.5t-71 -92.5q-77 -104 -124 -265q-4 -16 -4 -44q0 -31 11 -42q14 -14 20 -18t14 -4q17 0 45 14q20 10 46.5 30t61 52.5t36.5 34.5q4 3 12 7.5t36 4.5q35 0 51 -26q7 -11 7 -19q0 -4 -6 -9t-8 -7q-3 -3 -36 -38t-66 -61.5t-71 -43t-79 -16.5
q-19 0 -46 4.5t-42 11.5q-28 13 -54 36t-31 46q-6 28 -6 61q0 24 4.5 55t9.5 44q33 92 77 173.5t100.5 145.5t123.5 102q14 8 40 13.5t47 5.5q26 0 49 -9q3 -1 10.5 -4.5t13.5 -11t10 -11.5q39 -35 39 -61q0 -13 -17 -51q-20 -45 -27 -65q-8 -23 -39 -23l-18 2q-17 3 -25 6
t-18 11q-17 13 -17 29q0 14 17 38.5t18 35.5q1 6 7 18l5 12l-4 3q-6 0 -25.5 -9t-38.5 -27zM501 775l-11 -3q-77 -34 -87 -44q-4 -4 -12 -4q-2 0 -8.5 1t-15.5 7t-10 7q-13 7 -13 32q0 8 1 15t5 11.5t5 5.5q6 9 58 27l88 31q11 3 20 3t19.5 -4t12.5 -8q1 -2 5 -5.5t7 -9.5
l59 -101q12 -19 12 -27q0 -4 -2 -7.5t-7.5 -8t-6.5 -5.5q-11 -13 -23 -13q-7 0 -17.5 5.5t-18.5 15.5l-54 74z" />
    <glyph glyph-name="ccircumflex" unicode="&#x109;" horiz-adv-x="346" 
d="M295 360l13 26q0 3 -4 3q-78 -91 -117 -160q-9 -16 -24.5 -48.5t-24 -59t-8.5 -39.5q0 -3 0.5 -7t9.5 -4q40 0 121 60q89 67 126 67q22 0 41 -20q9 -10 9 -18l-3 -9q0 -5 -2 -7.5t-9 -5.5q-27 -9 -107 -74q-91 -74 -152 -74q-21 0 -46.5 8.5t-46.5 24t-25 23.5
q-11 22 -11 47q0 30 17 75q1 2 4 16.5t7 22.5q15 32 47.5 87.5t68 100t63.5 64.5q24 17 49 17q15 0 41 -6.5t52 -21.5t30 -28q3 -10 3 -19q0 -7 -17 -48.5t-17 -54.5q0 -9 -8 -15t-18 -6q-20 0 -37 13l-23 18q-11 10 -11 22q0 14 9 30zM353 578l-11 -3q-77 -34 -87 -44
q-4 -4 -12 -4q-2 0 -8.5 1t-15.5 7t-10 7q-13 7 -13 32q0 8 1 15t5 11.5t5 5.5q6 9 58 27l88 31q11 3 20 3t19.5 -4t12.5 -8q1 -2 5 -5.5t7 -9.5l59 -101q12 -21 12 -27q0 -4 -2 -7.5t-7.5 -8t-6.5 -5.5q-11 -13 -23 -13q-7 0 -17.5 5.5t-18.5 15.5l-54 74z" />
    <glyph glyph-name="Cdotaccent" unicode="&#x10a;" horiz-adv-x="472" 
d="M396 557q-22 -21 -38 -38.5t-71 -92.5q-77 -104 -124 -265q-4 -16 -4 -44q0 -31 11 -42q14 -14 20 -18t14 -4q17 0 45 14q20 10 46.5 30t61 52.5t36.5 34.5q4 3 12 7.5t36 4.5q35 0 51 -26q7 -11 7 -19q0 -4 -6 -9t-8 -7q-3 -3 -36 -38t-66 -61.5t-71 -43t-79 -16.5
q-19 0 -46 4.5t-42 11.5q-28 13 -54 36t-31 46q-6 28 -6 61q0 24 4.5 55t9.5 44q33 92 77 173.5t100.5 145.5t123.5 102q14 8 40 13.5t47 5.5q26 0 49 -9q3 -1 10.5 -4.5t13.5 -11t10 -11.5q39 -35 39 -61q0 -13 -17 -51q-20 -45 -27 -65q-8 -23 -39 -23l-18 2q-17 3 -25 6
t-18 11q-17 13 -17 29q0 14 17 38.5t18 35.5q1 6 7 18l5 12l-4 3q-6 0 -25.5 -9t-38.5 -27zM497 847q23 0 40 -7.5t24.5 -22t7.5 -27.5t-6 -20q-18 -21 -30 -31.5t-23 -15t-20 -4.5q-21 0 -36.5 9.5t-20.5 18.5q-8 16 -8 33q0 27 15 46q15 21 57 21z" />
    <glyph glyph-name="cdotaccent" unicode="&#x10b;" horiz-adv-x="346" 
d="M295 360l13 26q0 3 -4 3q-78 -91 -117 -160q-9 -16 -24.5 -48.5t-24 -59t-8.5 -39.5q0 -3 0.5 -7t9.5 -4q40 0 121 60q89 67 126 67q22 0 41 -20q9 -10 9 -18l-3 -9q0 -5 -2 -7.5t-9 -5.5q-27 -9 -107 -74q-91 -74 -152 -74q-21 0 -46.5 8.5t-46.5 24t-25 23.5
q-11 22 -11 47q0 30 17 75q1 2 4 16.5t7 22.5q15 32 47.5 87.5t68 100t63.5 64.5q24 17 49 17q15 0 41 -6.5t52 -21.5t30 -28q3 -10 3 -19q0 -7 -17 -48.5t-17 -54.5q0 -9 -8 -15t-18 -6q-20 0 -37 13l-23 18q-11 10 -11 22q0 14 9 30zM363 668q14 0 31.5 -5t26.5 -14
q13 -13 13 -35q0 -15 -6 -21q-1 -1 -13 -14.5t-26.5 -24.5t-30.5 -11q-21 0 -36.5 9.5t-19.5 17.5q-8 15 -8 36q0 27 13 43q8 9 23.5 14t32.5 5z" />
    <glyph glyph-name="Ccaron" unicode="&#x10c;" horiz-adv-x="472" 
d="M396 557q-22 -21 -38 -38.5t-71 -92.5q-77 -104 -124 -265q-4 -16 -4 -44q0 -31 11 -42q14 -14 20 -18t14 -4q17 0 45 14q20 10 46.5 30t61 52.5t36.5 34.5q4 3 12 7.5t36 4.5q35 0 51 -26q7 -11 7 -19q0 -4 -6 -9t-8 -7q-3 -3 -36 -38t-66 -61.5t-71 -43t-79 -16.5
q-19 0 -46 4.5t-42 11.5q-28 13 -54 36t-31 46q-6 28 -6 61q0 24 4.5 55t9.5 44q33 92 77 173.5t100.5 145.5t123.5 102q14 8 40 13.5t47 5.5q26 0 49 -9q3 -1 10.5 -4.5t13.5 -11t10 -11.5q39 -35 39 -61q0 -13 -17 -51q-20 -45 -27 -65q-8 -23 -39 -23l-18 2q-17 3 -25 6
t-18 11q-17 13 -17 29q0 14 17 38.5t18 35.5q1 6 7 18l5 12l-4 3q-6 0 -25.5 -9t-38.5 -27zM406 886l19 2q9 0 16.5 -3.5t8.5 -9.5q1 -4 9.5 -20t24.5 -40q6 -9 11 -9q8 0 32 13l63 33q14 7 23 7q11 0 18.5 -7.5t7.5 -18.5l1 -19q0 -8 -4.5 -15.5t-19.5 -16.5l-110 -68
q-5 -3 -9.5 -4t-5.5 -2q-6 -3 -12 -3q-4 0 -15 3.5t-19 13.5l-48 69q-22 32 -22 53q0 18 18 36q6 6 13 6z" />
    <glyph glyph-name="ccaron" unicode="&#x10d;" horiz-adv-x="346" 
d="M295 360l13 26q0 3 -4 3q-78 -91 -117 -160q-9 -16 -24.5 -48.5t-24 -59t-8.5 -39.5q0 -3 0.5 -7t9.5 -4q40 0 121 60q89 67 126 67q22 0 41 -20q9 -10 9 -18l-3 -9q0 -5 -2 -7.5t-9 -5.5q-27 -9 -107 -74q-91 -74 -152 -74q-21 0 -46.5 8.5t-46.5 24t-25 23.5
q-11 22 -11 47q0 30 17 75q1 2 4 16.5t7 22.5q15 32 47.5 87.5t68 100t63.5 64.5q24 17 49 17q15 0 41 -6.5t52 -21.5t30 -28q3 -10 3 -19q0 -7 -17 -48.5t-17 -54.5q0 -9 -8 -15t-18 -6q-20 0 -37 13l-23 18q-11 10 -11 22q0 14 9 30zM273 702l19 2q9 0 16.5 -3.5t8.5 -9.5
q1 -4 9.5 -20t24.5 -40q6 -9 11 -9q8 0 32 13l63 33q14 7 23 7q11 0 18.5 -7.5t7.5 -18.5l1 -19q0 -8 -4.5 -15.5t-19.5 -16.5l-110 -68q-5 -3 -9.5 -4t-5.5 -2q-6 -3 -12 -3q-4 0 -15 3.5t-19 13.5l-48 69q-22 32 -22 53q0 18 18 36q6 6 13 6z" />
    <glyph glyph-name="Dcaron" unicode="&#x10e;" horiz-adv-x="554" 
d="M93 124q29 119 91 277q8 21 8 26l-3 4l-18 -3q-14 0 -25.5 10.5t-11.5 32.5q0 27 10 40q5 7 12 13.5t51 36.5q44 31 102 53t111 22q36 0 68.5 -9.5t79.5 -44.5q38 -29 50.5 -55.5t12.5 -55.5q0 -26 -8.5 -55.5t-19.5 -51.5l-18 -41q-42 -89 -81.5 -152t-85.5 -109
t-101 -72q-17 -8 -30.5 -12.5t-33.5 -4.5q-12 0 -25.5 1.5t-41.5 7.5q-2 0 -7.5 -3t-26.5 -3q-20 0 -44 17q-10 7 -17 15.5t-15 11.5q-31 12 -55 31t-24 40q0 22 29 22l40 -3l15 -3q2 0 5 1t7 16zM366 536l1 -7q0 -5 -8.5 -15.5t-10.5 -13.5q-88 -194 -109 -253.5
t-31 -100.5q-18 -71 -18 -88q0 -2 1.5 -4t16.5 -2q9 0 21 3q36 7 65 36q125 125 201 318q11 29 17 46.5t6 31.5q0 32 -16 53.5t-48 21.5q-10 0 -25 -3t-36 -11t-22 -8q-4 -1 -5 -4zM401 865l19 2q9 0 16.5 -3.5t8.5 -9.5q1 -4 9.5 -20t24.5 -40q6 -9 11 -9q8 0 32 13l63 33
q14 7 23 7q11 0 18.5 -7.5t7.5 -18.5l1 -19q0 -8 -4.5 -15.5t-19.5 -16.5l-110 -68q-5 -3 -9.5 -4t-5.5 -2q-6 -3 -12 -3q-4 0 -15 3.5t-19 13.5l-48 69q-22 32 -22 53q0 18 18 36q6 6 13 6z" />
    <glyph glyph-name="dcaron" unicode="&#x10f;" horiz-adv-x="496" 
d="M407 423q18 19 47 56.5t86 137t93 149.5q3 4 9 9t21 5q22 0 43 -15t21 -29q0 -30 -19 -56q-4 -6 -11 -20t-12 -22q-1 -2 -73 -113t-91 -165l-15 -43q-74 -211 -74 -271q0 -21 4 -37t4 -17q0 -6 -6.5 -14t-12.5 -12q-10 -8 -23 -8q-17 0 -37 10t-22 18q-5 24 -5 57
q0 62 27 141l8 27l-2 2l-21 -23q-101 -128 -196 -183q-14 -8 -36 -8q-19 0 -50 14t-37 23q-16 27 -16 60q0 40 34 104q17 32 52.5 78t77.5 86.5t83.5 60.5t74.5 20q28 0 41 -7zM363 367q-2 5 -6 5q-5 0 -18 -5q-67 -35 -124.5 -99t-94.5 -142q-8 -17 -8 -26l3 -5q6 1 11 5
q43 34 93.5 87t124.5 150q19 22 19 30zM762 673l50 85q13 22 34 22q16 0 37 -25q16 -20 16 -31q0 -6 -3 -11l-48 -75q-4 -7 -13 -13.5t-19 -6.5l-31 6q-15 2 -22 12.5t-7 18.5t6 18z" />
    <glyph glyph-name="Dcroat" unicode="&#x110;" horiz-adv-x="572" 
d="M111 124q7 29 19.5 71.5t12.5 43.5l-3 3l-23 -2q-33 0 -33 20q0 43 25 65q10 9 40.5 13.5t32.5 10.5l20 52q8 21 8 26l-3 4l-18 -3q-14 0 -25.5 10.5t-11.5 32.5q0 27 10 40q5 7 12 13.5t51 36.5q44 31 102 53t111 22q36 0 68.5 -9.5t79.5 -44.5q38 -29 50.5 -55.5
t12.5 -55.5q0 -26 -8.5 -55.5t-19.5 -51.5l-18 -41q-42 -89 -81.5 -152t-85.5 -109t-101 -72q-17 -8 -30.5 -12.5t-33.5 -4.5q-12 0 -25.5 1.5t-41.5 7.5q-2 0 -7.5 -3t-26.5 -3q-19 0 -44 17q-10 7 -17 15.5t-15 11.5q-31 12 -55 31t-24 40q0 22 29 22l40 -3l15 -3q2 0 5 1
t7 16zM257 247q-18 -47 -31 -101q-18 -71 -18 -88q0 -2 1.5 -4t16.5 -2q20 0 44 10.5t42 28.5q125 125 201 318q11 29 17 46.5t6 31.5q0 32 -16 53.5t-48 21.5q-10 0 -25 -3t-36 -11t-22 -8q-4 -1 -5 -4l1 -7q0 -5 -9 -15.5t-10 -13.5l-53 -117l-9 -22l3 -3q3 0 24 2.5
t37 2.5q7 0 14 -10q10 -14 10 -31q0 -3 -1.5 -11t-10 -20.5t-8.5 -13.5q-4 -8 -32 -12l-70 -7q-3 0 -6.5 -1.5t-6.5 -9.5z" />
    <glyph glyph-name="dcroat" unicode="&#x111;" horiz-adv-x="496" 
d="M433 647q9 0 43.5 -1.5t78.5 -1.5q45 76 78 122q3 4 9 9t21 5q22 0 43 -15t21 -29q0 -30 -19 -56q-4 -5 -10 -17l-8 -16h4q8 0 14 -2.5t9.5 -9t5.5 -8.5q6 -6 6 -10l-2 -12q0 -21 -5 -31q-7 -12 -26 -12l-35 1l-25 -1q-93 -141 -115 -202l-15 -43q-74 -211 -74 -271
q0 -21 4 -37t4 -17q0 -6 -6.5 -14t-12.5 -12q-10 -8 -23 -8q-17 0 -37 10t-22 18q-5 24 -5 57q0 62 27 141l8 27l-2 2l-21 -23q-101 -128 -196 -183q-14 -8 -36 -8q-19 0 -50 14t-37 23q-16 27 -16 60q0 40 34 104q17 32 52.5 78t77.5 86.5t83.5 60.5t74.5 20q28 0 41 -7
l33 -15q50 54 101 138q-67 0 -86 6q-31 9 -31 62q0 18 42 18zM363 367q-2 5 -6 5q-5 0 -18 -5q-67 -35 -124.5 -99t-94.5 -142q-8 -17 -8 -26l3 -5q6 1 11 5q43 34 93.5 87t124.5 150q19 22 19 30z" />
    <glyph glyph-name="Emacron" unicode="&#x112;" horiz-adv-x="508" 
d="M332 416q47 18 92 18q51 0 89 -23q20 -12 20 -37q0 -6 -8.5 -11.5t-24.5 -9t-23 -3.5l-32 3q-20 0 -42.5 -4.5t-62 -19t-56.5 -19.5q-9 -2 -18 -5.5t-13 -12.5q-1 -1 -2.5 -5t-16 -37t-21 -49t-14.5 -38.5t-12.5 -42t-4.5 -35.5q0 -12 3.5 -20.5t8.5 -8.5q8 0 30.5 5.5
t38.5 12.5l65 27q2 1 7.5 3.5t62 36t93.5 33.5l14 -2q7 -2 15 -10q33 -26 33 -35q0 -3 -3.5 -7.5t-8.5 -6.5q-13 -5 -19 -11q-15 -15 -27 -21q-116 -62 -173.5 -78t-92.5 -19.5t-59 -3.5q-13 0 -45 14t-46 34q-10 14 -10 45q0 48 23 123q6 20 21 58.5t18 46.5q-5 6 -9 16
t-4 18q0 7 4.5 13t19.5 10q8 2 14 4.5t13 17.5q20 46 33 82l5 17l-3 4l-20 -2q-16 0 -32 13q-8 7 -16 21.5t-8 24.5q0 11 11 14l42.5 12.5t134.5 47.5q44 16 124.5 34t138.5 18q36 0 52 -8q24 -12 39.5 -29t15.5 -31q0 -19 -21 -20q-8 -1 -16 -4t-11 -3q-5 0 -21.5 6.5
t-34.5 6.5q-63 0 -220 -47q-8 -2 -11 -11l-32 -84q-11 -28 -11 -31l2 -2q3 0 22 7zM297 834q9 0 46 -1.5t87 -1.5l128 3q8 0 14 -2.5t9.5 -9t5.5 -8.5q6 -6 6 -10l-2 -12q0 -21 -5 -31q-7 -12 -26 -12l-35 1l-131 -2q-88 0 -108 6q-31 9 -31 62q0 18 42 18z" />
    <glyph glyph-name="emacron" unicode="&#x113;" horiz-adv-x="366" 
d="M411 98q-50 -46 -148 -102q-19 -11 -44 -11q-38 0 -109 37q-17 9 -31.5 29t-22.5 44q-13 37 -13 70q0 20 6 41q35 123 169 266q19 20 48.5 33.5t65.5 13.5q34 0 67 -12q16 -6 28 -22t12 -45q0 -27 -17 -63t-36 -60q-114 -140 -222 -205q-3 -2 -7 -4.5t-4 -7.5t6 -15.5
t12 -13.5q10 -5 19 -5q6 0 13 1.5t17 5t20 9t19 11.5t10 6q31 18 82 61.5t74 57.5q13 8 26 8q14 0 25.5 -9t11.5 -20q0 -8 -0.5 -15.5t-6.5 -13.5q-11 -10 -33.5 -33.5t-36.5 -36.5zM331 429q0 6 -5 6q-11 0 -42 -31q-33 -33 -61 -68.5t-50 -81.5q-11 -23 -11 -28l3 -3
q5 1 17 12q69 63 112 121q8 11 12.5 21t9.5 18q15 24 15 34zM277 697q9 0 46 -1.5t87 -1.5l128 3q8 0 14 -2.5t9.5 -9t5.5 -8.5q6 -6 6 -10l-2 -12q0 -21 -5 -31q-7 -12 -26 -12l-35 1l-131 -2q-88 0 -108 6q-31 9 -31 62q0 18 42 18z" />
    <glyph glyph-name="Ebreve" unicode="&#x114;" horiz-adv-x="508" 
d="M332 416q47 18 92 18q51 0 89 -23q20 -12 20 -37q0 -6 -8.5 -11.5t-24.5 -9t-23 -3.5l-32 3q-20 0 -42.5 -4.5t-62 -19t-56.5 -19.5q-9 -2 -18 -5.5t-13 -12.5q-1 -1 -2.5 -5t-16 -37t-21 -49t-14.5 -38.5t-12.5 -42t-4.5 -35.5q0 -12 3.5 -20.5t8.5 -8.5q8 0 30.5 5.5
t38.5 12.5l65 27q2 1 7.5 3.5t62 36t93.5 33.5l14 -2q7 -2 15 -10q33 -26 33 -35q0 -3 -3.5 -7.5t-8.5 -6.5q-13 -5 -19 -11q-15 -15 -27 -21q-116 -62 -173.5 -78t-92.5 -19.5t-59 -3.5q-13 0 -45 14t-46 34q-10 14 -10 45q0 48 23 123q6 20 21 58.5t18 46.5q-5 6 -9 16
t-4 18q0 7 4.5 13t19.5 10q8 2 14 4.5t13 17.5q20 46 33 82l5 17l-3 4l-20 -2q-16 0 -32 13q-8 7 -16 21.5t-8 24.5q0 11 11 14l42.5 12.5t134.5 47.5q44 16 124.5 34t138.5 18q36 0 52 -8q24 -12 39.5 -29t15.5 -31q0 -19 -21 -20q-8 -1 -16 -4t-11 -3q-5 0 -21.5 6.5
t-34.5 6.5q-63 0 -220 -47q-8 -2 -11 -11l-32 -84q-11 -28 -11 -31l2 -2q3 0 22 7zM354 855q7 -7 15.5 -24t8.5 -23q0 -17 10 -29q12 -15 29 -15q7 0 22 5.5t44 31.5t35 28l13 2q11 0 21 -6t11 -14q1 -6 6.5 -14.5t5.5 -13.5q0 -4 -5 -9t-7 -8q-20 -29 -61 -53.5t-83 -24.5
q-26 0 -54.5 10.5t-54 41.5t-34.5 70l-4 16q0 5 5 12q5 6 16.5 9.5t15.5 7.5q9 9 21 9q15 0 24 -9z" />
    <glyph glyph-name="ebreve" unicode="&#x115;" horiz-adv-x="366" 
d="M411 98q-50 -46 -148 -102q-19 -11 -44 -11q-38 0 -109 37q-17 9 -31.5 29t-22.5 44q-13 37 -13 70q0 20 6 41q35 123 169 266q19 20 48.5 33.5t65.5 13.5q34 0 67 -12q16 -6 28 -22t12 -45q0 -27 -17 -63t-36 -60q-114 -140 -222 -205q-3 -2 -7 -4.5t-4 -7.5t6 -15.5
t12 -13.5q10 -5 19 -5q6 0 13 1.5t17 5t20 9t19 11.5t10 6q31 18 82 61.5t74 57.5q13 8 26 8q14 0 25.5 -9t11.5 -20q0 -8 -0.5 -15.5t-6.5 -13.5q-11 -10 -33.5 -33.5t-36.5 -36.5zM331 429q0 6 -5 6q-11 0 -42 -31q-33 -33 -61 -68.5t-50 -81.5q-11 -23 -11 -28l3 -3
q5 1 17 12q69 63 112 121q8 11 12.5 21t9.5 18q15 24 15 34zM330 740q7 -7 15.5 -24t8.5 -23q0 -17 10 -29q12 -15 29 -15q7 0 22 5.5t44 31.5t35 28l13 2q11 0 21 -6t11 -14q1 -6 6.5 -14.5t5.5 -13.5q0 -4 -5 -9t-7 -8q-20 -29 -61 -53.5t-83 -24.5q-26 0 -54.5 10.5
t-54 41.5t-34.5 70l-4 16q0 5 5 12q5 6 16.5 9.5t15.5 7.5q9 9 21 9q15 0 24 -9z" />
    <glyph glyph-name="Edotaccent" unicode="&#x116;" horiz-adv-x="508" 
d="M332 416q47 18 92 18q51 0 89 -23q20 -12 20 -37q0 -6 -8.5 -11.5t-24.5 -9t-23 -3.5l-32 3q-20 0 -42.5 -4.5t-62 -19t-56.5 -19.5q-9 -2 -18 -5.5t-13 -12.5q-1 -1 -2.5 -5t-16 -37t-21 -49t-14.5 -38.5t-12.5 -42t-4.5 -35.5q0 -12 3.5 -20.5t8.5 -8.5q8 0 30.5 5.5
t38.5 12.5l65 27q2 1 7.5 3.5t62 36t93.5 33.5l14 -2q7 -2 15 -10q33 -26 33 -35q0 -3 -3.5 -7.5t-8.5 -6.5q-13 -5 -19 -11q-15 -15 -27 -21q-116 -62 -173.5 -78t-92.5 -19.5t-59 -3.5q-13 0 -45 14t-46 34q-10 14 -10 45q0 48 23 123q6 20 21 58.5t18 46.5q-5 6 -9 16
t-4 18q0 7 4.5 13t19.5 10q8 2 14 4.5t13 17.5q20 46 33 82l5 17l-3 4l-20 -2q-16 0 -32 13q-8 7 -16 21.5t-8 24.5q0 11 11 14l42.5 12.5t134.5 47.5q44 16 124.5 34t138.5 18q36 0 52 -8q24 -12 39.5 -29t15.5 -31q0 -19 -21 -20q-8 -1 -16 -4t-11 -3q-5 0 -21.5 6.5
t-34.5 6.5q-63 0 -220 -47q-8 -2 -11 -11l-32 -84q-11 -28 -11 -31l2 -2q3 0 22 7zM422 847q23 0 40 -7.5t24.5 -22t7.5 -27.5t-6 -20q-18 -21 -30 -31.5t-23 -15t-20 -4.5q-21 0 -36.5 9.5t-20.5 18.5q-8 16 -8 33q0 27 15 46q15 21 57 21z" />
    <glyph glyph-name="edotaccent" unicode="&#x117;" horiz-adv-x="366" 
d="M411 98q-50 -46 -148 -102q-19 -11 -44 -11q-38 0 -109 37q-17 9 -31.5 29t-22.5 44q-13 37 -13 70q0 20 6 41q35 123 169 266q19 20 48.5 33.5t65.5 13.5q34 0 67 -12q16 -6 28 -22t12 -45q0 -27 -17 -63t-36 -60q-114 -140 -222 -205q-3 -2 -7 -4.5t-4 -7.5t6 -15.5
t12 -13.5q10 -5 19 -5q6 0 13 1.5t17 5t20 9t19 11.5t10 6q31 18 82 61.5t74 57.5q13 8 26 8q14 0 25.5 -9t11.5 -20q0 -8 -0.5 -15.5t-6.5 -13.5q-11 -10 -33.5 -33.5t-36.5 -36.5zM331 429q0 6 -5 6q-11 0 -42 -31q-33 -33 -61 -68.5t-50 -81.5q-11 -23 -11 -28l3 -3
q5 1 17 12q69 63 112 121q8 11 12.5 21t9.5 18q15 24 15 34zM403 706q14 0 31.5 -5t26.5 -14q13 -13 13 -35q0 -15 -6 -21q-1 -1 -13 -14.5t-26.5 -24.5t-30.5 -11q-21 0 -36.5 9.5t-19.5 17.5q-8 15 -8 36q0 27 13 43q8 9 23.5 14t32.5 5z" />
    <glyph glyph-name="Eogonek" unicode="&#x118;" horiz-adv-x="508" 
d="M429 31q-50 -60 -50 -100q0 -21 13 -21q7 0 17 4t28 4q21 0 31.5 -6t10.5 -14q0 -6 -5.5 -16t-6.5 -14q-3 -14 -5 -16q-13 -18 -66 -18t-78.5 25t-25.5 63q0 36 21 78q-70 -20 -143 -20q-13 0 -45 14t-46 34q-10 14 -10 45q0 48 23 123q6 20 21 58.5t18 46.5q-5 6 -9 16
t-4 18q0 7 4.5 13t19.5 10q8 2 14 4.5t13 17.5q20 46 33 82l5 17l-3 4l-20 -2q-16 0 -32 13q-8 7 -16 21.5t-8 24.5q0 11 11 14l42.5 12.5t134.5 47.5q44 16 124.5 34t138.5 18q36 0 52 -8q24 -12 39.5 -29t15.5 -31q0 -19 -21 -20q-8 -1 -16 -4t-11 -3q-5 0 -21.5 6.5
t-34.5 6.5q-63 0 -220 -47q-8 -2 -11 -11l-32 -84q-11 -28 -11 -31l2 -2q3 0 22 7q47 18 92 18q51 0 89 -23q20 -12 20 -37q0 -6 -8.5 -11.5t-24.5 -9t-23 -3.5l-32 3q-20 0 -42.5 -4.5t-62 -19t-56.5 -19.5q-9 -2 -18 -5.5t-13 -12.5q-1 -1 -2.5 -5t-16 -37t-21 -49
t-14.5 -38.5t-12.5 -42t-4.5 -35.5q0 -12 3.5 -20.5t8.5 -8.5q8 0 30.5 5.5t38.5 12.5l65 27q2 1 7.5 3.5t62 36t93.5 33.5l14 -2q7 -2 15 -10q33 -26 33 -35q0 -3 -3.5 -7.5t-8.5 -6.5q-13 -5 -19 -11q-15 -15 -27 -21q-22 -11 -36.5 -22t-29.5 -28z" />
    <glyph glyph-name="eogonek" unicode="&#x119;" horiz-adv-x="366" 
d="M377 69q-27 -25 -41.5 -54.5t-14.5 -55.5q0 -21 13 -21q7 0 17 4t28 4q21 0 31.5 -6t10.5 -14q0 -6 -5.5 -16t-6.5 -14q-3 -14 -5 -16q-13 -18 -66 -18t-78.5 25t-25.5 63q0 15 5 37q-6 -2 -20 -2q-38 0 -109 37q-17 9 -31.5 29t-22.5 44q-13 37 -13 70q0 20 6 41
q35 123 169 266q19 20 48.5 33.5t65.5 13.5q34 0 67 -12q16 -6 28 -22t12 -45q0 -27 -17 -63t-36 -60q-114 -140 -222 -205q-3 -2 -7 -4.5t-4 -7.5t6 -15.5t12 -13.5q10 -5 19 -5q6 0 13 1.5t17 5t20 9t19 11.5t10 6q31 18 82 61.5t74 57.5q13 8 26 8q14 0 25.5 -9t11.5 -20
q0 -8 -0.5 -15.5t-6.5 -13.5q-11 -10 -33.5 -33.5t-36.5 -36.5zM331 429q0 6 -5 6q-11 0 -42 -31q-33 -33 -61 -68.5t-50 -81.5q-11 -23 -11 -28l3 -3q5 1 17 12q69 63 112 121q8 11 12.5 21t9.5 18q15 24 15 34z" />
    <glyph glyph-name="Ecaron" unicode="&#x11a;" horiz-adv-x="508" 
d="M332 416q47 18 92 18q51 0 89 -23q20 -12 20 -37q0 -6 -8.5 -11.5t-24.5 -9t-23 -3.5l-32 3q-20 0 -42.5 -4.5t-62 -19t-56.5 -19.5q-9 -2 -18 -5.5t-13 -12.5q-1 -1 -2.5 -5t-16 -37t-21 -49t-14.5 -38.5t-12.5 -42t-4.5 -35.5q0 -12 3.5 -20.5t8.5 -8.5q8 0 30.5 5.5
t38.5 12.5l65 27q2 1 7.5 3.5t62 36t93.5 33.5l14 -2q7 -2 15 -10q33 -26 33 -35q0 -3 -3.5 -7.5t-8.5 -6.5q-13 -5 -19 -11q-15 -15 -27 -21q-116 -62 -173.5 -78t-92.5 -19.5t-59 -3.5q-13 0 -45 14t-46 34q-10 14 -10 45q0 48 23 123q6 20 21 58.5t18 46.5q-5 6 -9 16
t-4 18q0 7 4.5 13t19.5 10q8 2 14 4.5t13 17.5q20 46 33 82l5 17l-3 4l-20 -2q-16 0 -32 13q-8 7 -16 21.5t-8 24.5q0 11 11 14l42.5 12.5t134.5 47.5q44 16 124.5 34t138.5 18q36 0 52 -8q24 -12 39.5 -29t15.5 -31q0 -19 -21 -20q-8 -1 -16 -4t-11 -3q-5 0 -21.5 6.5
t-34.5 6.5q-63 0 -220 -47q-8 -2 -11 -11l-32 -84q-11 -28 -11 -31l2 -2q3 0 22 7zM329 865l19 2q9 0 16.5 -3.5t8.5 -9.5q1 -4 9.5 -20t24.5 -40q6 -9 11 -9q8 0 32 13l63 33q14 7 23 7q11 0 18.5 -7.5t7.5 -18.5l1 -19q0 -8 -4.5 -15.5t-19.5 -16.5l-110 -68
q-5 -3 -9.5 -4t-5.5 -2q-6 -3 -12 -3q-4 0 -15 3.5t-19 13.5l-48 69q-22 32 -22 53q0 18 18 36q6 6 13 6z" />
    <glyph glyph-name="ecaron" unicode="&#x11b;" horiz-adv-x="366" 
d="M411 98q-50 -46 -148 -102q-19 -11 -44 -11q-38 0 -109 37q-17 9 -31.5 29t-22.5 44q-13 37 -13 70q0 20 6 41q35 123 169 266q19 20 48.5 33.5t65.5 13.5q34 0 67 -12q16 -6 28 -22t12 -45q0 -27 -17 -63t-36 -60q-114 -140 -222 -205q-3 -2 -7 -4.5t-4 -7.5t6 -15.5
t12 -13.5q10 -5 19 -5q6 0 13 1.5t17 5t20 9t19 11.5t10 6q31 18 82 61.5t74 57.5q13 8 26 8q14 0 25.5 -9t11.5 -20q0 -8 -0.5 -15.5t-6.5 -13.5q-11 -10 -33.5 -33.5t-36.5 -36.5zM331 429q0 6 -5 6q-11 0 -42 -31q-33 -33 -61 -68.5t-50 -81.5q-11 -23 -11 -28l3 -3
q5 1 17 12q69 63 112 121q8 11 12.5 21t9.5 18q15 24 15 34zM305 723l19 2q9 0 16.5 -3.5t8.5 -9.5q1 -4 9.5 -20t24.5 -40q6 -9 11 -9q8 0 32 13l63 33q14 7 23 7q11 0 18.5 -7.5t7.5 -18.5l1 -19q0 -8 -4.5 -15.5t-19.5 -16.5l-110 -68q-5 -3 -9.5 -4t-5.5 -2
q-6 -3 -12 -3q-4 0 -15 3.5t-19 13.5l-48 69q-22 32 -22 53q0 18 18 36q6 6 13 6z" />
    <glyph glyph-name="Gcircumflex" unicode="&#x11c;" horiz-adv-x="596" 
d="M545 425q-22 6 -32.5 18t-10.5 23q0 7 11 21t13 19q3 9 8.5 17.5t6.5 9.5q7 14 7 35q0 19 -14 19l-25 -3q-15 -3 -34 -12t-40 -26.5t-39.5 -36.5t-22.5 -23l-26 -25q-63 -61 -110.5 -147.5t-66.5 -170.5q-7 -35 -7 -51q0 -18 8 -34q2 -5 7 -12.5t17 -7.5q14 0 45.5 13
t54.5 34q54 49 98 84.5t50 41.5q7 7 20 23t13 19l-3 2l-13 -4q-32 -13 -57 -13q-9 0 -23.5 2.5t-22.5 8.5q-19 14 -24.5 20.5t-5.5 16.5q0 13 2.5 20t21.5 10l43 7q27 6 63.5 18t54.5 12q29 0 57 -27q25 -24 25 -44q0 -13 -15 -43q-18 -37 -34.5 -87t-24.5 -97.5t-8 -75.5
q0 -7 -16.5 -17t-32.5 -10q-8 0 -16.5 3t-9.5 3q-16 2 -25 6t-9 23q0 23 12 73l-2 3l-10 -8q-57 -55 -113 -76q-15 -6 -43.5 -12t-43.5 -6q-58 0 -101 43q-19 19 -33 39.5t-14 47.5q0 63 23 138t65.5 147t100.5 137q35 39 90 81t100 59q29 11 65 11q27 0 65 -13.5t57 -27.5
q33 -25 33 -68q0 -18 -5 -37.5t-12 -39t-8 -22.5q-2 -6 -11 -17.5t-20 -18t-21 -6.5q-7 0 -18.5 5.5t-13.5 5.5zM558 775l-11 -3q-77 -34 -87 -44q-4 -4 -12 -4q-2 0 -8.5 1t-15.5 7t-10 7q-13 7 -13 32q0 8 1 15t5 11.5t5 5.5q6 9 58 27l88 31q11 3 20 3t19.5 -4t12.5 -8
q1 -2 5 -5.5t7 -9.5l59 -101q12 -19 12 -27q0 -4 -2 -7.5t-7.5 -8t-6.5 -5.5q-11 -13 -23 -13q-7 0 -17.5 5.5t-18.5 15.5l-54 74z" />
    <glyph glyph-name="gcircumflex" unicode="&#x11d;" horiz-adv-x="422" 
d="M205 87q-15 -15 -41.5 -29t-49.5 -14q-20 0 -34 7q-18 9 -43 29t-28 32t-3 22q0 20 12 51.5t26 55.5q31 50 88 113q83 89 153 116q29 11 53 11q31 0 62.5 -16t43.5 -33q10 -14 10 -42q0 -25 -6 -35q-60 -105 -106 -198l-9 -21l1 -2q5 2 20 14q54 44 115 80q7 4 13.5 7.5
t17.5 3.5q22 0 35 -11.5t13 -22.5q0 -13 -9 -21q-143 -106 -216.5 -181t-109.5 -159q-12 -29 -43.5 -103.5t-38.5 -87.5q-11 -21 -26.5 -33.5t-57.5 -12.5q-20 0 -39.5 11t-24.5 27q-2 6 -2 17q0 23 13 53t53 86l87 123q7 10 21 32.5t59 117.5q8 16 9 25l-1 2zM116 141
q4 0 18 10q42 29 100 87t119 144l9 16q0 9 -11 9q-2 0 -7.5 -1.5t-29.5 -18.5q-6 -4 -19 -12t-22 -16q-43 -40 -90 -98.5t-64 -100.5l-5 -16zM397 617l-11 -3q-77 -34 -87 -44q-4 -4 -12 -4q-2 0 -8.5 1t-15.5 7t-10 7q-13 7 -13 32q0 8 1 15t5 11.5t5 5.5q6 9 58 27l88 31
q11 3 20 3t19.5 -4t12.5 -8q1 -2 5 -5.5t7 -9.5l59 -101q12 -21 12 -27q0 -4 -2 -7.5t-7.5 -8t-6.5 -5.5q-11 -13 -23 -13q-7 0 -17.5 5.5t-18.5 15.5l-54 74z" />
    <glyph glyph-name="Gbreve" unicode="&#x11e;" horiz-adv-x="596" 
d="M545 425q-22 6 -32.5 18t-10.5 23q0 7 11 21t13 19q3 9 8.5 17.5t6.5 9.5q7 14 7 35q0 19 -14 19l-25 -3q-15 -3 -34 -12t-40 -26.5t-39.5 -36.5t-22.5 -23l-26 -25q-63 -61 -110.5 -147.5t-66.5 -170.5q-7 -35 -7 -51q0 -18 8 -34q2 -5 7 -12.5t17 -7.5q14 0 45.5 13
t54.5 34q54 49 98 84.5t50 41.5q7 7 20 23t13 19l-3 2l-13 -4q-32 -13 -57 -13q-9 0 -23.5 2.5t-22.5 8.5q-19 14 -24.5 20.5t-5.5 16.5q0 13 2.5 20t21.5 10l43 7q27 6 63.5 18t54.5 12q29 0 57 -27q25 -24 25 -44q0 -13 -15 -43q-18 -37 -34.5 -87t-24.5 -97.5t-8 -75.5
q0 -7 -16.5 -17t-32.5 -10q-8 0 -16.5 3t-9.5 3q-16 2 -25 6t-9 23q0 23 12 73l-2 3l-10 -8q-57 -55 -113 -76q-15 -6 -43.5 -12t-43.5 -6q-58 0 -101 43q-19 19 -33 39.5t-14 47.5q0 63 23 138t65.5 147t100.5 137q35 39 90 81t100 59q29 11 65 11q27 0 65 -13.5t57 -27.5
q33 -25 33 -68q0 -18 -5 -37.5t-12 -39t-8 -22.5q-2 -6 -11 -17.5t-20 -18t-21 -6.5q-7 0 -18.5 5.5t-13.5 5.5zM512 875q7 -7 15.5 -24t8.5 -23q0 -17 10 -29q12 -15 29 -15q7 0 22 5.5t44 31.5t35 28l13 2q11 0 21 -6t11 -14q1 -6 6.5 -14.5t5.5 -13.5q0 -4 -5 -9t-7 -8
q-20 -29 -61 -53.5t-83 -24.5q-26 0 -54.5 10.5t-54 41.5t-34.5 70l-4 16q0 5 5 12q5 6 16.5 9.5t15.5 7.5q9 9 21 9q15 0 24 -9z" />
    <glyph glyph-name="gbreve" unicode="&#x11f;" horiz-adv-x="422" 
d="M205 87q-15 -15 -41.5 -29t-49.5 -14q-20 0 -34 7q-18 9 -43 29t-28 32t-3 22q0 20 12 51.5t26 55.5q31 50 88 113q83 89 153 116q29 11 53 11q31 0 62.5 -16t43.5 -33q10 -14 10 -42q0 -25 -6 -35q-60 -105 -106 -198l-9 -21l1 -2q5 2 20 14q54 44 115 80q7 4 13.5 7.5
t17.5 3.5q22 0 35 -11.5t13 -22.5q0 -13 -9 -21q-143 -106 -216.5 -181t-109.5 -159q-12 -29 -43.5 -103.5t-38.5 -87.5q-11 -21 -26.5 -33.5t-57.5 -12.5q-20 0 -39.5 11t-24.5 27q-2 6 -2 17q0 23 13 53t53 86l87 123q7 10 21 32.5t59 117.5q8 16 9 25l-1 2zM116 141
q4 0 18 10q42 29 100 87t119 144l9 16q0 9 -11 9q-2 0 -7.5 -1.5t-29.5 -18.5q-6 -4 -19 -12t-22 -16q-43 -40 -90 -98.5t-64 -100.5l-5 -16zM319 700q7 -7 15.5 -24t8.5 -23q0 -17 10 -29q12 -15 29 -15q7 0 22 5.5t44 31.5t35 28l13 2q11 0 21 -6t11 -14q1 -6 6.5 -14.5
t5.5 -13.5q0 -4 -5 -9t-7 -8q-20 -29 -61 -53.5t-83 -24.5q-26 0 -54.5 10.5t-54 41.5t-34.5 70l-4 16q0 5 5 12q5 6 16.5 9.5t15.5 7.5q9 9 21 9q15 0 24 -9z" />
    <glyph glyph-name="Gdotaccent" unicode="&#x120;" horiz-adv-x="596" 
d="M545 425q-22 6 -32.5 18t-10.5 23q0 7 11 21t13 19q3 9 8.5 17.5t6.5 9.5q7 14 7 35q0 19 -14 19l-25 -3q-15 -3 -34 -12t-40 -26.5t-39.5 -36.5t-22.5 -23l-26 -25q-63 -61 -110.5 -147.5t-66.5 -170.5q-7 -35 -7 -51q0 -18 8 -34q2 -5 7 -12.5t17 -7.5q14 0 45.5 13
t54.5 34q54 49 98 84.5t50 41.5q7 7 20 23t13 19l-3 2l-13 -4q-32 -13 -57 -13q-9 0 -23.5 2.5t-22.5 8.5q-19 14 -24.5 20.5t-5.5 16.5q0 13 2.5 20t21.5 10l43 7q27 6 63.5 18t54.5 12q29 0 57 -27q25 -24 25 -44q0 -13 -15 -43q-18 -37 -34.5 -87t-24.5 -97.5t-8 -75.5
q0 -7 -16.5 -17t-32.5 -10q-8 0 -16.5 3t-9.5 3q-16 2 -25 6t-9 23q0 23 12 73l-2 3l-10 -8q-57 -55 -113 -76q-15 -6 -43.5 -12t-43.5 -6q-58 0 -101 43q-19 19 -33 39.5t-14 47.5q0 63 23 138t65.5 147t100.5 137q35 39 90 81t100 59q29 11 65 11q27 0 65 -13.5t57 -27.5
q33 -25 33 -68q0 -18 -5 -37.5t-12 -39t-8 -22.5q-2 -6 -11 -17.5t-20 -18t-21 -6.5q-7 0 -18.5 5.5t-13.5 5.5zM568 847q23 0 40 -7.5t24.5 -22t7.5 -27.5t-6 -20q-18 -21 -30 -31.5t-23 -15t-20 -4.5q-21 0 -36.5 9.5t-20.5 18.5q-8 16 -8 33q0 27 15 46q15 21 57 21z" />
    <glyph glyph-name="gdotaccent" unicode="&#x121;" horiz-adv-x="422" 
d="M205 87q-15 -15 -41.5 -29t-49.5 -14q-20 0 -34 7q-18 9 -43 29t-28 32t-3 22q0 20 12 51.5t26 55.5q31 50 88 113q83 89 153 116q29 11 53 11q31 0 62.5 -16t43.5 -33q10 -14 10 -42q0 -25 -6 -35q-60 -105 -106 -198l-9 -21l1 -2q5 2 20 14q54 44 115 80q7 4 13.5 7.5
t17.5 3.5q22 0 35 -11.5t13 -22.5q0 -13 -9 -21q-143 -106 -216.5 -181t-109.5 -159q-12 -29 -43.5 -103.5t-38.5 -87.5q-11 -21 -26.5 -33.5t-57.5 -12.5q-20 0 -39.5 11t-24.5 27q-2 6 -2 17q0 23 13 53t53 86l87 123q7 10 21 32.5t59 117.5q8 16 9 25l-1 2zM116 141
q4 0 18 10q42 29 100 87t119 144l9 16q0 9 -11 9q-2 0 -7.5 -1.5t-29.5 -18.5q-6 -4 -19 -12t-22 -16q-43 -40 -90 -98.5t-64 -100.5l-5 -16zM400 686q14 0 31.5 -5t26.5 -14q13 -13 13 -35q0 -15 -6 -21q-1 -1 -13 -14.5t-26.5 -24.5t-30.5 -11q-21 0 -36.5 9.5t-19.5 17.5
q-8 15 -8 36q0 27 13 43q8 9 23.5 14t32.5 5z" />
    <glyph glyph-name="Gcommaaccent" unicode="&#x122;" horiz-adv-x="596" 
d="M545 425q-22 6 -32.5 18t-10.5 23q0 7 11 21t13 19q3 9 8.5 17.5t6.5 9.5q7 14 7 35q0 19 -14 19l-25 -3q-15 -3 -34 -12t-40 -26.5t-39.5 -36.5t-22.5 -23l-26 -25q-62 -59 -109 -139t-65 -156l-2 -42q0 -18 8 -34q2 -5 7 -12.5t17 -7.5q9 0 29 6t37.5 15t28.5 17
q52 39 95 68t50 35q7 7 20 23t13 19l-3 2l-13 -4q-32 -13 -57 -13q-9 0 -23.5 2.5t-22.5 8.5q-19 14 -24.5 20.5t-5.5 16.5q0 13 2.5 20t21.5 10l43 7q27 6 63.5 18t54.5 12q29 0 57 -27q25 -24 25 -44q0 -13 -15 -43q-18 -34 -34.5 -79t-24.5 -88t-8 -68q0 -10 -15 -18.5
t-34 -8.5q-8 0 -16.5 3t-9.5 3q-16 2 -25 6t-9 23q0 16 12 48l-2 3l-10 -8q-53 -38 -110 -53q-68 -18 -87 -18q-57 0 -101 43q-19 19 -33 39.5t-14 47.5q0 48 17 110.5t58 137.5t111 151q37 40 91.5 81.5t98.5 58.5q29 11 65 11q27 0 65 -13.5t57 -27.5q33 -25 33 -68
q0 -18 -5 -37.5t-12 -39t-8 -22.5q-2 -6 -11 -17.5t-20 -18t-21 -6.5q-7 0 -18.5 5.5t-13.5 5.5zM93 -133l50 85q13 22 34 22q16 0 37 -25q16 -19 16 -31q0 -6 -3 -11l-48 -75q-4 -7 -13 -13.5t-19 -6.5l-31 6q-15 2 -22 12.5t-7 18.5t6 18z" />
    <glyph glyph-name="gcommaaccent" unicode="&#x123;" horiz-adv-x="422" 
d="M205 87q-15 -15 -41.5 -29t-49.5 -14q-20 0 -34 7q-18 9 -43 29t-28 32t-3 22q0 20 12 51.5t26 55.5q31 50 88 113q83 89 153 116q29 11 53 11q31 0 62.5 -16t43.5 -33q10 -14 10 -42q0 -25 -6 -35q-60 -105 -106 -198l-9 -21l1 -2q5 2 20 14q54 44 115 80q7 4 13.5 7.5
t17.5 3.5q22 0 35 -11.5t13 -22.5q0 -13 -9 -21q-143 -106 -216.5 -181t-109.5 -159q-12 -29 -43.5 -103.5t-38.5 -87.5q-11 -21 -26.5 -33.5t-57.5 -12.5q-20 0 -39.5 11t-24.5 27q-2 6 -2 17q0 23 13 53t53 86l87 123q7 10 21 32.5t59 117.5q8 16 9 25l-1 2zM116 141
q4 0 18 10q42 29 100 87t119 144l9 16q0 9 -11 9q-2 0 -7.5 -1.5t-29.5 -18.5q-6 -4 -19 -12t-22 -16q-43 -40 -90 -98.5t-64 -100.5l-5 -16zM328 567l50 85q13 22 34 22q16 0 37 -25q16 -20 16 -31q0 -6 -3 -11l-48 -75q-4 -7 -13 -13.5t-19 -6.5l-31 6q-15 2 -22 12.5
t-7 18.5t6 18z" />
    <glyph glyph-name="Hcircumflex" unicode="&#x124;" horiz-adv-x="562" 
d="M343 237l-96 -18q-7 -1 -10 -7q-12 -22 -22 -70q-9 -44 -14 -56t-5 -21q0 -4 3 -20.5t3 -27.5q0 -14 -6.5 -22.5t-28.5 -8.5q-10 0 -21 3t-15 7q-3 3 -16.5 10t-15.5 11q-1 3 -6 4q-6 1 -8.5 6.5t-2.5 10.5q0 25 3 34l4 17l2 16l10 52l3 21q0 3 -3 4l-31 -2q-52 0 -77 29
q-4 5 -8 22t-4 24q0 9 6.5 14t16.5 5t30 -5l15 -4q5 0 34 5t45 8q6 1 9 8q8 17 20 58t18 57q27 67 61 140.5t65 130.5q4 8 16 11.5t18 3.5q18 0 31 -8q4 -3 20 -9.5t21 -13.5t5 -15q0 -9 -4 -14q-17 -24 -57.5 -105.5t-68.5 -148.5q-20 -47 -20 -56q0 -5 4 -5l20 3
q52 9 108 25q8 2 11 9q11 24 25.5 61t34 96t23.5 72q3 9 8 12q21 15 30 15q2 0 13 -2t23 -2q20 0 33 -11t13 -21q0 -9 -1 -17.5t-4.5 -17.5t-4.5 -12q-8 -25 -29 -73t-24 -55l-7 -19l3 -3l8 2q33 11 55 11q9 0 18.5 -1.5t15.5 -4.5t7 -3t6 -1t10 -3t11 -6t12 -12t12 -19
q4 -8 4 -16q0 -19 -18 -19q-21 0 -45.5 -3t-66 -12t-54.5 -11q-11 -2 -14 -8q-15 -29 -25 -65.5t-10 -37.5q-11 -30 -19 -68t-19 -131q-1 -8 -10 -12.5t-23 -4.5q-19 0 -46 10q-13 4 -21 19.5t-8 41.5q0 15 3 24q8 26 23 90.5t23 90.5l3 13q0 4 -6 4q-10 0 -24 -3zM512 775
l-11 -3q-77 -34 -87 -44q-4 -4 -12 -4q-2 0 -8.5 1t-15.5 7t-10 7q-13 7 -13 32q0 8 1 15t5 11.5t5 5.5q6 9 58 27l88 31q11 3 20 3t19.5 -4t12.5 -8q1 -2 5 -5.5t7 -9.5l59 -101q12 -19 12 -27q0 -4 -2 -7.5t-7.5 -8t-6.5 -5.5q-11 -13 -23 -13q-7 0 -17.5 5.5t-18.5 15.5
l-54 74z" />
    <glyph glyph-name="hcircumflex" unicode="&#x125;" horiz-adv-x="418" 
d="M287 229q-17 -23 -68 -98.5t-77 -105.5q-9 -10 -26 -18t-31 -8q-8 0 -17 3t-26 11.5t-23.5 18.5t-6.5 16q0 5 4.5 13.5t5.5 12.5q12 56 36.5 118.5t69 154.5t57.5 121q27 59 38 78q88 155 129 237q9 17 33 17l21 -2q17 -3 26 -7t18 -13q11 -13 11 -27q0 -23 -30 -58
q-15 -17 -37 -47t-59 -93.5t-147 -299.5q-9 -19 -9 -24l1 -2q7 3 12 10q34 48 80.5 106t81.5 93q24 24 29 25q20 6 29 6q8 0 23.5 -3t22.5 -6q11 -4 16.5 -13t5.5 -19q0 -23 -29 -74q-5 -8 -6.5 -11.5t-19.5 -47.5q-20 -48 -35 -105t-15 -105q0 -34 7 -46t19 -14
q29 -4 29 -17q0 -6 -5 -16q-4 -8 -24.5 -17t-34.5 -9q-20 0 -40 8q-56 23 -56 101q0 74 31 156l4 14l-2 3q-5 -3 -16 -17zM454 879l-11 -3q-77 -34 -87 -44q-4 -4 -12 -4q-2 0 -8.5 1t-15.5 7t-10 7q-13 7 -13 32q0 8 1 15t5 11.5t5 5.5q6 9 58 27l88 31q11 3 20 3t19.5 -4
t12.5 -8q1 -2 5 -5.5t7 -9.5l59 -101q12 -19 12 -27q0 -4 -2 -7.5t-7.5 -8t-6.5 -5.5q-11 -13 -23 -13q-7 0 -17.5 5.5t-18.5 15.5l-54 74z" />
    <glyph glyph-name="Hbar" unicode="&#x126;" horiz-adv-x="562" 
d="M343 237l-96 -18q-7 -1 -10 -7q-12 -22 -22 -70q-9 -44 -14 -56t-5 -21q0 -4 3 -20.5t3 -27.5q0 -14 -6.5 -22.5t-28.5 -8.5q-10 0 -21 3t-15 7q-3 3 -16.5 10t-15.5 11q-1 3 -6 4q-6 1 -8.5 6.5t-2.5 10.5q0 25 3 34l4 17l2 16l10 52l3 21q0 3 -3 4l-31 -2q-52 0 -77 29
q-4 5 -8 22t-4 24q0 9 6.5 14t16.5 5t30 -5l15 -4q5 0 34 5t45 8q6 1 9 8q11 24 23 76l-31 -2q-52 0 -77 29q-4 5 -8 22t-4 24q0 9 6.5 14t16.5 5t30 -5l15 -4q5 0 34 5t45 8l11 -1q58 132 103 215q4 8 16 11.5t18 3.5q18 0 31 -8q4 -3 20 -9.5t21 -13.5t5 -15q0 -9 -4 -14
q-23 -31 -72 -134l9 2q52 9 108 25l17 3l24 75q3 9 8 12q21 15 30 15q2 0 13 -2t23 -2q19 0 32.5 -11t13.5 -21q0 -22 -3 -34q31 10 52 10q9 0 18.5 -1.5t15.5 -4.5t7 -3t6 -1t10 -3t11 -6t12 -12t12 -19q4 -8 4 -16q0 -19 -18 -19q-33 0 -88 -13.5t-82 -13.5l-26 -59
l-7 -19l3 -3l8 2q33 11 55 11q9 0 18.5 -1.5t15.5 -4.5t7 -3t6 -1t10 -3t11 -6t12 -12t12 -19q4 -8 4 -16q0 -19 -18 -19q-21 0 -45.5 -3t-66 -12t-54.5 -11q-11 -2 -14 -8q-15 -29 -25 -65.5t-10 -37.5q-11 -30 -19 -68t-19 -131q-1 -8 -10 -12.5t-23 -4.5q-19 0 -46 10
q-13 4 -21 19.5t-8 41.5q0 15 3 24q8 26 23 90.5t23 90.5l3 13q0 4 -6 4q-10 0 -24 -3zM405 349l30 72l-9 -1q-10 0 -24 -3l-96 -18l-14 -2l-10 -24q-20 -47 -20 -56q0 -5 4 -5l20 3q52 9 108 25q8 2 11 9z" />
    <glyph glyph-name="hbar" unicode="&#x127;" horiz-adv-x="418" 
d="M211 647l68 -3q46 84 73 139q9 17 33 17l21 -2q17 -3 26 -7t18 -13q11 -13 11 -27q0 -23 -30 -58q-3 -3 -14 -15t-16.5 -20t-7.5 -14l79 3q8 0 14 -2.5t9.5 -9t5.5 -8.5q6 -6 6 -10l-2 -12q0 -21 -5 -31q-7 -12 -26 -12l-35 1l-99 -2q-12 -22 -27.5 -51t-36 -70.5
t-53 -111t-35.5 -75.5q-9 -19 -9 -24l1 -2q7 3 12 10q34 48 80.5 106t81.5 93q24 24 29 25q20 6 29 6q8 0 23.5 -3t22.5 -6q11 -4 16.5 -13t5.5 -19q0 -23 -29 -74q-5 -8 -6.5 -11.5t-19.5 -47.5q-20 -48 -35 -105t-15 -105q0 -34 7 -46t19 -14q29 -4 29 -17q0 -6 -5 -16
q-4 -8 -24.5 -17t-34.5 -9q-20 0 -40 8q-56 23 -56 101q0 74 31 156l4 14l-2 3q-5 -3 -16 -17q-17 -23 -68 -98.5t-77 -105.5q-9 -10 -26 -18t-31 -8q-8 0 -17 3t-26 11.5t-23.5 18.5t-6.5 16q0 5 4.5 13.5t5.5 12.5q12 56 36.5 118.5t69 154.5t57.5 121q27 59 38 78l9 16
q-23 2 -32 5q-31 9 -31 62q0 18 42 18z" />
    <glyph glyph-name="Itilde" unicode="&#x128;" horiz-adv-x="254" 
d="M132 -28q-3 0 -10.5 -9t-16.5 -9q-7 0 -14.5 5.5t-9.5 5.5t-6 1.5t-12.5 7.5t-10.5 7q-8 3 -11.5 6t-3.5 8q0 7 6 36t12 39q4 7 8 23q23 93 76 248.5t63 186.5q4 14 9.5 23.5t10 19.5t9.5 24l10 28q3 8 15 12t25 4q29 0 55.5 -11.5t26.5 -26.5q0 -18 -2.5 -28t-14 -22
t-18.5 -26l-9 -17q-35 -93 -94.5 -264.5t-59.5 -187.5l2 -15q0 -30 -10 -49t-25 -20zM309 716q-8 13 -17 13q-11 0 -33 -14q-7 -4 -20 -4q-15 0 -31 6.5t-16 17.5q0 4 -4 17.5t-4 19.5q0 12 12 17l62 23q29 10 46 10q15 0 30 -8.5t37 -39.5q4 -5 11 -14t19 -9q11 0 30 8
q6 3 21.5 6.5t24.5 3.5q28 0 33 -25l5 -21q0 -8 -11 -15q-47 -31 -63 -37t-26.5 -7.5t-18.5 -1.5q-33 0 -61 22q-10 8 -26 32z" />
    <glyph glyph-name="itilde" unicode="&#x129;" horiz-adv-x="220" 
d="M207 109q25 17 34.5 20t18.5 3q24 0 35.5 -8.5t11.5 -20.5q0 -16 -16 -31l-41 -38q-20 -17 -47 -32.5t-54 -15.5q-39 0 -67 32q-37 42 -37 96q0 35 16 81l17 49q71 165 78 181t17 36q8 17 24 23.5t33 6.5q29 0 46 -12q4 -3 7.5 -10.5t3.5 -14.5q0 -13 -9 -32.5
t-30.5 -50.5t-24.5 -38l-58 -139q-7 -17 -15 -47t-8 -50q0 -10 1.5 -15t6.5 -5q12 0 57 32zM254 600q-8 13 -17 13q-11 0 -33 -14q-7 -4 -20 -4q-15 0 -31 6.5t-16 17.5q0 4 -4 17.5t-4 19.5q0 12 12 17l62 23q29 10 46 10q15 0 30 -8.5t37 -39.5q4 -5 11 -14t19 -9
q11 0 30 8q6 3 21.5 6.5t24.5 3.5q28 0 33 -25l5 -21q0 -8 -11 -15q-47 -31 -63 -37t-26.5 -7.5t-18.5 -1.5q-33 0 -61 22q-10 8 -26 32z" />
    <glyph glyph-name="Imacron" unicode="&#x12a;" horiz-adv-x="254" 
d="M132 -28q-3 0 -10.5 -9t-16.5 -9q-7 0 -14.5 5.5t-9.5 5.5t-6 1.5t-12.5 7.5t-10.5 7q-8 3 -11.5 6t-3.5 8q0 7 6 36t12 39q4 7 8 23q23 93 76 248.5t63 186.5q4 14 9.5 23.5t10 19.5t9.5 24l10 28q3 8 15 12t25 4q29 0 55.5 -11.5t26.5 -26.5q0 -18 -2.5 -28t-14 -22
t-18.5 -26l-9 -17q-35 -93 -94.5 -264.5t-59.5 -187.5l2 -15q0 -30 -10 -49t-25 -20zM228 834q9 0 46 -1.5t87 -1.5l128 3q8 0 14 -2.5t9.5 -9t5.5 -8.5q6 -6 6 -10l-2 -12q0 -21 -5 -31q-7 -12 -26 -12l-35 1l-131 -2q-88 0 -108 6q-31 9 -31 62q0 18 42 18z" />
    <glyph glyph-name="imacron" unicode="&#x12b;" horiz-adv-x="220" 
d="M207 109q25 17 34.5 20t18.5 3q24 0 35.5 -8.5t11.5 -20.5q0 -16 -16 -31l-41 -38q-20 -17 -47 -32.5t-54 -15.5q-39 0 -67 32q-37 42 -37 96q0 35 16 81l17 49q71 165 78 181t17 36q8 17 24 23.5t33 6.5q29 0 46 -12q4 -3 7.5 -10.5t3.5 -14.5q0 -13 -9 -32.5
t-30.5 -50.5t-24.5 -38l-58 -139q-7 -17 -15 -47t-8 -50q0 -10 1.5 -15t6.5 -5q12 0 57 32zM158 667q9 0 46 -1.5t87 -1.5l128 3q8 0 14 -2.5t9.5 -9t5.5 -8.5q6 -6 6 -10l-2 -12q0 -21 -5 -31q-7 -12 -26 -12l-35 1l-131 -2q-88 0 -108 6q-31 9 -31 62q0 18 42 18z" />
    <glyph glyph-name="Ibreve" unicode="&#x12c;" horiz-adv-x="254" 
d="M132 -28q-3 0 -10.5 -9t-16.5 -9q-7 0 -14.5 5.5t-9.5 5.5t-6 1.5t-12.5 7.5t-10.5 7q-8 3 -11.5 6t-3.5 8q0 7 6 36t12 39q4 7 8 23q23 93 76 248.5t63 186.5q4 14 9.5 23.5t10 19.5t9.5 24l10 28q3 8 15 12t25 4q29 0 55.5 -11.5t26.5 -26.5q0 -18 -2.5 -28t-14 -22
t-18.5 -26l-9 -17q-35 -93 -94.5 -264.5t-59.5 -187.5l2 -15q0 -30 -10 -49t-25 -20zM279 872q7 -7 15.5 -24t8.5 -23q0 -17 10 -29q12 -15 29 -15q7 0 22 5.5t44 31.5t35 28l13 2q11 0 21 -6t11 -14q1 -6 6.5 -14.5t5.5 -13.5q0 -4 -5 -9t-7 -8q-20 -29 -61 -53.5
t-83 -24.5q-26 0 -54.5 10.5t-54 41.5t-34.5 70l-4 16q0 5 5 12q5 6 16.5 9.5t15.5 7.5q9 9 21 9q15 0 24 -9z" />
    <glyph glyph-name="ibreve" unicode="&#x12d;" horiz-adv-x="220" 
d="M207 109q25 17 34.5 20t18.5 3q24 0 35.5 -8.5t11.5 -20.5q0 -16 -16 -31l-41 -38q-20 -17 -47 -32.5t-54 -15.5q-39 0 -67 32q-37 42 -37 96q0 35 16 81l17 49q71 165 78 181t17 36q8 17 24 23.5t33 6.5q29 0 46 -12q4 -3 7.5 -10.5t3.5 -14.5q0 -13 -9 -32.5
t-30.5 -50.5t-24.5 -38l-58 -139q-7 -17 -15 -47t-8 -50q0 -10 1.5 -15t6.5 -5q12 0 57 32zM222 713q7 -7 15.5 -24t8.5 -23q0 -17 10 -29q12 -15 29 -15q7 0 22 5.5t44 31.5t35 28l13 2q11 0 21 -6t11 -14q1 -6 6.5 -14.5t5.5 -13.5q0 -4 -5 -9t-7 -8q-20 -29 -61 -53.5
t-83 -24.5q-26 0 -54.5 10.5t-54 41.5t-34.5 70l-4 16q0 5 5 12q5 6 16.5 9.5t15.5 7.5q9 9 21 9q15 0 24 -9z" />
    <glyph glyph-name="Iogonek" unicode="&#x12e;" horiz-adv-x="254" 
d="M134 -1q-14 -9 -22 -23q-12 -24 -12 -45t13 -21q7 0 17 4t28 4q21 0 31.5 -6t10.5 -14q0 -6 -5.5 -16t-6.5 -14q-3 -14 -5 -16q-13 -18 -66 -18t-78.5 25t-25.5 63q0 20 8.5 46t21.5 49q0 7 6 36t12 39q4 7 8 23q5 21 19.5 72t60 183t53.5 158q4 14 9.5 23.5t10 19.5
t9.5 24l10 28q3 8 15 12t25 4q29 0 55.5 -11.5t26.5 -26.5q0 -18 -2.5 -28t-14 -22t-18.5 -26l-9 -17q-40 -106 -94 -260t-54 -170q0 -55 -37 -79z" />
    <glyph glyph-name="iogonek" unicode="&#x12f;" horiz-adv-x="220" 
d="M207 109q25 17 34.5 20t18.5 3q24 0 35.5 -8.5t11.5 -20.5q0 -16 -16 -31l-41 -38l-46 -38q-15 -12 -15 -37q0 -21 13 -21q7 0 17 4t28 4q21 0 31.5 -6t10.5 -14q0 -6 -5.5 -16t-6.5 -14q-3 -14 -5 -16q-13 -18 -66 -18t-78.5 25t-25.5 63q0 20 8 46q-15 6 -28 22
q-37 42 -37 96q0 35 16 81l17 49q71 165 78 181t17 36q8 17 24 23.5t33 6.5q29 0 46 -12q4 -3 7.5 -10.5t3.5 -14.5q0 -13 -9 -32.5t-30.5 -50.5t-24.5 -38l-58 -139q-7 -17 -15 -47t-8 -50q0 -10 1.5 -15t6.5 -5q12 0 57 32zM317 704q14 0 31.5 -5t26.5 -14q13 -13 13 -35
q0 -15 -6 -21q-1 -1 -13 -14.5t-26.5 -24.5t-30.5 -11q-21 0 -36.5 9.5t-19.5 17.5q-8 15 -8 36q0 27 13 43q8 9 23.5 14t32.5 5z" />
    <glyph glyph-name="Idotaccent" unicode="&#x130;" horiz-adv-x="254" 
d="M132 -28q-3 0 -10.5 -9t-16.5 -9q-7 0 -14.5 5.5t-9.5 5.5t-6 1.5t-12.5 7.5t-10.5 7q-8 3 -11.5 6t-3.5 8q0 7 6 36t12 39q4 7 8 23q23 93 76 248.5t63 186.5q4 14 9.5 23.5t10 19.5t9.5 24l10 28q3 8 15 12t25 4q29 0 55.5 -11.5t26.5 -26.5q0 -18 -2.5 -28t-14 -22
t-18.5 -26l-9 -17q-35 -93 -94.5 -264.5t-59.5 -187.5l2 -15q0 -30 -10 -49t-25 -20zM353 847q23 0 40 -7.5t24.5 -22t7.5 -27.5t-6 -20q-18 -21 -30 -31.5t-23 -15t-20 -4.5q-21 0 -36.5 9.5t-20.5 18.5q-8 16 -8 33q0 27 15 46q15 21 57 21z" />
    <glyph glyph-name="dotlessi" unicode="&#x131;" horiz-adv-x="220" 
d="M207 109q25 17 34.5 20t18.5 3q24 0 35.5 -8.5t11.5 -20.5q0 -16 -16 -31l-41 -38q-20 -17 -47 -32.5t-54 -15.5q-39 0 -67 32q-37 42 -37 96q0 35 16 81l17 49q71 165 78 181t17 36q8 17 24 23.5t33 6.5q29 0 46 -12q4 -3 7.5 -10.5t3.5 -14.5q0 -13 -9 -32.5
t-30.5 -50.5t-24.5 -38l-58 -139q-7 -17 -15 -47t-8 -50q0 -10 1.5 -15t6.5 -5q12 0 57 32z" />
    <glyph glyph-name="IJ" unicode="&#x132;" horiz-adv-x="654" 
d="M132 -28q-3 0 -10.5 -9t-16.5 -9q-7 0 -14.5 5.5t-9.5 5.5t-6 1.5t-12.5 7.5t-10.5 7q-8 3 -11.5 6t-3.5 8q0 7 6 36t12 39q4 7 8 23q23 93 76 248.5t63 186.5q4 14 9.5 23.5t10 19.5t9.5 24l10 28q3 8 15 12t25 4q29 0 55.5 -11.5t26.5 -26.5q0 -18 -2.5 -28t-14 -22
t-18.5 -26l-9 -17q-35 -93 -94.5 -264.5t-59.5 -187.5l2 -15q0 -30 -10 -49t-25 -20zM750 544q-106 -225 -161 -404q-8 -28 -25.5 -66.5t-30.5 -59.5q-19 -30 -44 -54.5t-47.5 -34.5t-39.5 -10q-22 0 -46 12.5t-28 13.5q-23 7 -42 28t-28.5 59t-9.5 79q0 51 8 85q5 23 18 40
t26 17q10 0 19.5 -2t14.5 -2q10 0 21 -6t19 -18t8 -21t-8.5 -25.5t-10.5 -23.5q-2 -10 -7.5 -20.5t-5.5 -42.5q0 -36 9 -60t17 -24q26 0 58 52q14 21 25.5 45t34.5 89q5 13 16.5 47t39 110t81.5 194q15 34 15 35q0 4 -5 4l-73 -18l-14 -7q-23 -14 -67 -14q-30 0 -44.5 6.5
t-17.5 18.5q0 2 -5.5 7.5t-5.5 13.5q0 2 0.5 7.5t3 16.5t3.5 14q2 12 19 12q36 0 123 19q111 24 147 24q14 0 26.5 -4t32.5 -18q25 -18 25 -31t-4.5 -24t-19.5 -30t-20 -29z" />
    <glyph glyph-name="ij" unicode="&#x133;" horiz-adv-x="478" 
d="M210 102q61 33 70.5 39.5t10.5 8.5q9 24 36 93.5t41.5 111.5t24.5 73q3 10 19 24q3 3 10.5 6.5t33.5 3.5q31 0 41 -11q13 -15 13 -26q0 -4 -9 -22q-26 -54 -69 -155q-8 -19 -8 -26l2 -3q5 0 20 14q34 31 59 47q23 13 36 13q16 0 26 -4.5t10 -17.5q0 -23 -13 -35l-33 -29
q-81 -70 -180 -210q-19 -26 -32 -56q-19 -47 -54 -144.5t-57 -151.5q-5 -13 -17.5 -26t-30.5 -13q-8 0 -21.5 4.5t-14.5 4.5q-14 4 -25 16.5t-11 34.5q0 12 5 27q21 56 79 168.5t78 172.5q-20 -17 -47 -32.5t-54 -15.5q-39 0 -67 32q-37 42 -37 96q0 35 16 81l17 49
q71 165 78 181t17 36q8 17 24 23.5t33 6.5q29 0 46 -12q4 -3 7.5 -10.5t3.5 -14.5q0 -13 -9 -32.5t-30.5 -50.5t-24.5 -38l-58 -139q-7 -17 -15 -47t-8 -50q0 -10 1.5 -15t6.5 -5q14 0 60 25zM621 640q0 -20 -14.5 -33t-16.5 -20q-4 -12 -10.5 -18.5t-24.5 -6.5t-40.5 10.5
t-32.5 28.5q-2 3 -5.5 15.5t-3.5 28.5q0 2 2 7.5t5 8.5q10 11 27 20t35 9q30 0 59 -24q20 -17 20 -26zM317 704q14 0 31.5 -5t26.5 -14q13 -13 13 -35q0 -15 -6 -21q-1 -1 -13 -14.5t-26.5 -24.5t-30.5 -11q-21 0 -36.5 9.5t-19.5 17.5q-8 15 -8 36q0 27 13 43q8 9 23.5 14
t32.5 5z" />
    <glyph glyph-name="Jcircumflex" unicode="&#x134;" horiz-adv-x="400" 
d="M496 544q-106 -225 -161 -404q-8 -28 -25.5 -66.5t-30.5 -59.5q-19 -30 -44 -54.5t-47.5 -34.5t-39.5 -10q-22 0 -46 12.5t-28 13.5q-23 7 -42 28t-28.5 59t-9.5 79q0 51 8 85q5 23 18 40t26 17q10 0 19.5 -2t14.5 -2q10 0 21 -6t19 -18t8 -21t-8.5 -25.5t-10.5 -23.5
q-2 -10 -7.5 -20.5t-5.5 -42.5q0 -36 9 -60t17 -24q26 0 58 52q14 21 25.5 45t34.5 89q5 13 16.5 47t39 110t81.5 194q15 34 15 35q0 4 -5 4l-73 -18l-14 -7q-23 -14 -67 -14q-30 0 -44.5 6.5t-17.5 18.5q0 2 -5.5 7.5t-5.5 13.5q0 2 0.5 7.5t3 16.5t3.5 14q2 12 19 12
q36 0 123 19q111 24 147 24q14 0 26.5 -4t32.5 -18q25 -18 25 -31t-4.5 -24t-19.5 -30t-20 -29zM527 775l-11 -3q-77 -34 -87 -44q-4 -4 -12 -4q-2 0 -8.5 1t-15.5 7t-10 7q-13 7 -13 32q0 8 1 15t5 11.5t5 5.5q6 9 58 27l88 31q11 3 20 3t19.5 -4t12.5 -8q1 -2 5 -5.5
t7 -9.5l59 -101q12 -19 12 -27q0 -4 -2 -7.5t-7.5 -8t-6.5 -5.5q-11 -13 -23 -13q-7 0 -17.5 5.5t-18.5 15.5l-54 74z" />
    <glyph glyph-name="jcircumflex" unicode="&#x135;" horiz-adv-x="238" 
d="M206 233q34 31 59 47q23 13 36 13q16 0 26 -4.5t10 -17.5q0 -23 -13 -35l-33 -29q-81 -70 -180 -210q-19 -26 -32 -56q-19 -47 -54 -144.5t-57 -151.5q-5 -13 -17.5 -26t-30.5 -13q-8 0 -21.5 4.5t-14.5 4.5q-14 4 -25 16.5t-11 34.5q0 12 5 27q21 54 75.5 161t70.5 149
t21 59q2 8 23 64q1 2 46.5 122.5t63.5 179.5q3 10 19 24q3 3 10.5 6.5t33.5 3.5q31 0 41 -11q13 -15 13 -26q0 -4 -9 -22q-26 -54 -69 -155q-8 -19 -8 -26l2 -3q5 0 20 14zM282 598l-11 -3q-77 -34 -87 -44q-4 -4 -12 -4q-2 0 -8.5 1t-15.5 7t-10 7q-13 7 -13 32q0 8 1 15
t5 11.5t5 5.5q6 9 58 27l88 31q11 3 20 3t19.5 -4t12.5 -8q1 -2 5 -5.5t7 -9.5l59 -101q12 -21 12 -27q0 -4 -2 -7.5t-7.5 -8t-6.5 -5.5q-11 -13 -23 -13q-7 0 -17.5 5.5t-18.5 15.5l-54 74z" />
    <glyph glyph-name="Kcommaaccent" unicode="&#x136;" horiz-adv-x="532" 
d="M297 396l19 7q71 35 114.5 62.5t81 60t118.5 115.5q5 5 16 5q7 0 20 -3.5t19 -6.5l27 -15q8 -2 14 -8.5t6 -12.5q0 -5 -10 -17q-94 -115 -231 -196q-32 -19 -59.5 -33.5t-53.5 -27.5l-34 -17q-11 -5 -11 -16q0 -8 7 -22q6 -11 10 -25.5t7 -20.5q24 -49 77.5 -122
t97.5 -111q6 -5 25 -16.5t25.5 -20t6.5 -17.5t-5.5 -16t-15.5 -8q-6 0 -11.5 -3.5t-17.5 -3.5q-29 0 -62.5 17t-64.5 54q-1 1 -3.5 4t-24.5 27t-38 44q-61 78 -99 171q-6 14 -8.5 20.5t-5.5 6.5q-1 0 -2.5 -1.5t-12.5 -24.5q-49 -107 -68 -210q-2 -13 -21 -24q-14 -8 -22 -8
q-14 0 -24 10q-7 7 -14 10q-16 6 -26.5 14t-10.5 20q0 4 4.5 16t5.5 16q33 106 91.5 249t133.5 288q7 13 12.5 16.5t6.5 5.5q7 9 19.5 17t23.5 8q10 0 20 -5q4 -2 8 -7t7 -6q4 -1 12.5 -3.5t15.5 -9.5q8 -8 8 -19q0 -10 -7 -21q-57 -89 -88 -156l-11 -26zM164 -133l50 85
q13 22 34 22q16 0 37 -25q16 -19 16 -31q0 -6 -3 -11l-48 -75q-4 -7 -13 -13.5t-19 -6.5l-31 6q-15 2 -22 12.5t-7 18.5t6 18z" />
    <glyph glyph-name="kcommaaccent" unicode="&#x137;" horiz-adv-x="376" 
d="M263 373q66 49 88.5 75t33.5 43q7 11 21 23t34 12q16 0 41 -14q23 -13 23 -23q0 -12 -16.5 -36t-28.5 -33q-9 -7 -16.5 -16t-11.5 -13q-81 -66 -157 -112q-6 -4 -6 -11q0 -3 2.5 -9t2.5 -7l16 -50q4 -14 27 -61t29 -55q13 -17 25 -29t34 -23q12 -6 20 -6q10 0 15 -6
t5 -13q0 -13 -10 -20l-15 -13q-10 -10 -32 -10q-52 0 -100 48q-2 2 -8 6.5t-9.5 9t-6.5 9.5q-45 81 -73 162q-1 4 -3.5 10.5t-5.5 6.5q-4 0 -11 -20q-22 -62 -33 -112q-1 -3 -4 -22t-7 -30q-11 -34 -34 -34l-28 -3q-19 0 -32 11q-16 11 -16 31q0 13 10 44q9 28 39.5 112.5
t109 264t96.5 222.5l13 34q1 4 4.5 9t18.5 5l34 -3q51 -7 51 -41q0 -25 -22 -56q-22 -30 -33 -49q-20 -34 -56 -116t-36 -83q-8 -17 -8 -21l2 -2q5 0 24 14zM110 -133l50 85q13 22 34 22q24 0 37 -25q16 -20 16 -31q0 -6 -3 -11l-48 -75q-4 -7 -13 -13.5t-19 -6.5l-31 6
q-15 2 -22 12.5t-7 18.5t6 18z" />
    <glyph glyph-name="Lacute" unicode="&#x139;" horiz-adv-x="450" 
d="M247 73q83 24 166 59q8 3 17 3q12 0 31 -6t36 -18.5t17 -22.5l5 -19q0 -9 -4 -14q-6 -9 -31 -10.5t-32 -3.5q-18 -4 -110 -35t-130 -35t-53 -4q-51 0 -96 63q-5 6 -5 18q0 13 9.5 39.5t10.5 32.5q3 16 9 35q19 55 50 129.5t91 201t76 162.5q2 5 12.5 9.5t21.5 4.5
q13 0 25 -6.5t13 -6.5q40 -10 40 -34q0 -8 -6 -22t-6 -15q0 -2 -1 -8t-8 -12q-25 -22 -48 -83q-3 -8 -12.5 -25t-14.5 -29q-61 -133 -129 -321q-8 -22 -8 -31t6 -9q18 1 58 13zM379 764l61 24q74 30 89 43q6 6 20 6q21 0 35 -14q3 -3 8 -10t5 -26q0 -15 -5 -25
q-4 -7 -19 -15.5t-61 -22.5l-99 -30q-13 -4 -26 -4q-14 0 -22 5t-19 18t-11 20q0 10 6 17t15 7z" />
    <glyph glyph-name="lacute" unicode="&#x13a;" horiz-adv-x="232" 
d="M142 61l8 3q22 15 55.5 50.5t51.5 47.5t36 12q13 0 28.5 -7t18.5 -14.5t3 -10.5q0 -11 -9 -19.5t-10 -9.5q-57 -70 -79 -89t-43.5 -30.5t-44.5 -11.5l-18 2q-20 4 -42.5 14.5t-40.5 29.5q-14 14 -19 29t-5 38q0 27 7 55t34 97q58 146 205 395q0 1 1.5 3t12 31t24.5 41
t30 12l34 1q14 0 26.5 -5.5t15.5 -11.5q9 -20 9 -31q0 -19 -11 -36q-22 -34 -85.5 -130.5t-101.5 -164t-63 -132.5q-3 -8 -15 -36t-17 -50.5t-5 -49.5q0 -22 9 -22zM390 824l61 24q74 30 89 43q6 6 20 6q21 0 35 -14q3 -3 8 -10t5 -26q0 -15 -5 -25q-4 -7 -19 -15.5
t-61 -22.5l-99 -30q-13 -4 -26 -4q-14 0 -22 5t-19 18t-11 20q0 10 6 17t15 7z" />
    <glyph glyph-name="Lcommaaccent" unicode="&#x13b;" horiz-adv-x="450" 
d="M247 73q83 24 166 59q8 3 17 3q12 0 31 -6t36 -18.5t17 -22.5l5 -19q0 -9 -4 -14q-6 -9 -31 -10.5t-32 -3.5q-18 -4 -110 -35t-130 -35t-53 -4q-51 0 -96 63q-5 6 -5 18q0 13 9.5 39.5t10.5 32.5q3 16 9 35q19 55 50 129.5t91 201t76 162.5q2 5 12.5 9.5t21.5 4.5
q13 0 25 -6.5t13 -6.5q40 -10 40 -34q0 -8 -6 -22t-6 -15q0 -2 -1 -8t-8 -12q-25 -22 -48 -83q-3 -8 -12.5 -25t-14.5 -29q-61 -133 -129 -321q-8 -22 -8 -31t6 -9q18 1 58 13zM186 -133l50 85q13 22 34 22q16 0 37 -25q16 -19 16 -31q0 -6 -3 -11l-48 -75q-4 -7 -13 -13.5
t-19 -6.5l-31 6q-15 2 -22 12.5t-7 18.5t6 18z" />
    <glyph glyph-name="lcommaaccent" unicode="&#x13c;" horiz-adv-x="232" 
d="M142 61l8 3q22 15 55.5 50.5t51.5 47.5t36 12q13 0 28.5 -7t18.5 -14.5t3 -10.5q0 -11 -9 -19.5t-10 -9.5q-57 -70 -79 -89t-43.5 -30.5t-44.5 -11.5l-18 2q-20 4 -42.5 14.5t-40.5 29.5q-14 14 -19 29t-5 38q0 27 7 55t34 97q58 146 205 395q0 1 1.5 3t12 31t24.5 41
t30 12l34 1q14 0 26.5 -5.5t15.5 -11.5q9 -20 9 -31q0 -19 -11 -36q-22 -34 -85.5 -130.5t-101.5 -164t-63 -132.5q-3 -8 -15 -36t-17 -50.5t-5 -49.5q0 -22 9 -22zM-68 -133l50 85q13 22 34 22q24 0 37 -25q16 -20 16 -31q0 -6 -3 -11l-48 -75q-4 -7 -13 -13.5t-19 -6.5
l-31 6q-15 2 -22 12.5t-7 18.5t6 18z" />
    <glyph glyph-name="Lcaron" unicode="&#x13d;" horiz-adv-x="450" 
d="M247 73q83 24 166 59q8 3 17 3q12 0 31 -6t36 -18.5t17 -22.5l5 -19q0 -9 -4 -14q-6 -9 -31 -10.5t-32 -3.5q-18 -4 -110 -35t-130 -35t-53 -4q-51 0 -96 63q-5 6 -5 18q0 13 9.5 39.5t10.5 32.5q3 16 9 35q19 55 50 129.5t91 201t76 162.5q2 5 12.5 9.5t21.5 4.5
q13 0 25 -6.5t13 -6.5q40 -10 40 -34q0 -8 -6 -22t-6 -15q0 -2 -1 -8t-8 -12q-25 -22 -48 -83q-3 -8 -12.5 -25t-14.5 -29q-61 -133 -129 -321q-8 -22 -8 -31t6 -9q18 1 58 13zM472 555l50 85q13 22 34 22q16 0 37 -25q16 -20 16 -31q0 -6 -3 -11l-48 -75q-4 -7 -13 -13.5
t-19 -6.5l-31 6q-15 2 -22 12.5t-7 18.5t6 18z" />
    <glyph glyph-name="lcaron" unicode="&#x13e;" horiz-adv-x="232" 
d="M142 61l8 3q22 15 55.5 50.5t51.5 47.5t36 12q13 0 28.5 -7t18.5 -14.5t3 -10.5q0 -11 -9 -19.5t-10 -9.5q-57 -70 -79 -89t-43.5 -30.5t-44.5 -11.5l-18 2q-20 4 -42.5 14.5t-40.5 29.5q-14 14 -19 29t-5 38q0 27 7 55t34 97q58 146 205 395q0 1 1.5 3t12 31t24.5 41
t30 12l34 1q14 0 26.5 -5.5t15.5 -11.5q9 -20 9 -31q0 -19 -11 -36q-22 -34 -85.5 -130.5t-101.5 -164t-63 -132.5q-3 -8 -15 -36t-17 -50.5t-5 -49.5q0 -22 9 -22zM459 623l50 85q13 22 34 22q16 0 37 -25q16 -20 16 -31q0 -6 -3 -11l-48 -75q-4 -7 -13 -13.5t-19 -6.5
l-31 6q-15 2 -22 12.5t-7 18.5t6 18z" />
    <glyph glyph-name="Ldot" unicode="&#x13f;" horiz-adv-x="450" 
d="M247 73q83 24 166 59q8 3 17 3q12 0 31 -6t36 -18.5t17 -22.5l5 -19q0 -9 -4 -14q-6 -9 -31 -10.5t-32 -3.5q-18 -4 -110 -35t-130 -35t-53 -4q-51 0 -96 63q-5 6 -5 18q0 13 9.5 39.5t10.5 32.5q3 16 9 35q19 55 50 129.5t91 201t76 162.5q2 5 12.5 9.5t21.5 4.5
q13 0 25 -6.5t13 -6.5q40 -10 40 -34q0 -8 -6 -22t-6 -15q0 -2 -1 -8t-8 -12q-25 -22 -48 -83q-3 -8 -12.5 -25t-14.5 -29q-61 -133 -129 -321q-8 -22 -8 -31t6 -9q18 1 58 13zM506 383q11 -19 11 -35q0 -13 -10.5 -29t-10.5 -19q-1 -7 -16 -14t-32 -7q-13 0 -24 5t-19 16
q-11 16 -11 24l1 18q1 7 5.5 22t7.5 19q12 20 44 20q13 0 30.5 -5t23.5 -15z" />
    <glyph glyph-name="ldot" unicode="&#x140;" horiz-adv-x="445" 
d="M142 61l8 3q22 15 55.5 50.5t51.5 47.5t36 12q13 0 28.5 -7t18.5 -14.5t3 -10.5q0 -11 -9 -19.5t-10 -9.5q-57 -70 -79 -89t-43.5 -30.5t-44.5 -11.5l-18 2q-20 4 -42.5 14.5t-40.5 29.5q-14 14 -19 29t-5 38q0 27 7 55t34 97q58 146 205 395q0 1 1.5 3t12 31t24.5 41
t30 12l34 1q14 0 26.5 -5.5t15.5 -11.5q9 -20 9 -31q0 -19 -11 -36q-22 -34 -85.5 -130.5t-101.5 -164t-63 -132.5q-3 -8 -15 -36t-17 -50.5t-5 -49.5q0 -22 9 -22zM447 381q11 -19 11 -35q0 -13 -10.5 -29t-10.5 -19q-1 -7 -16 -14t-32 -7q-13 0 -24 5t-19 16
q-11 16 -11 24l1 18q1 7 5.5 22t7.5 19q12 20 44 20q13 0 30.5 -5t23.5 -15z" />
    <glyph glyph-name="Lslash" unicode="&#x141;" horiz-adv-x="450" 
d="M466 619q-3 0 -16 -1t-45 -7t-33 -6h-4q-154 -14 -217 -40q-17 -7 -30 -19t-17 -14l-6 -1h-5l-17 -3q-4 -2 -11 -2q-11 0 -16 12l-2 12q0 13 8.5 31t21.5 34q12 13 46 27q40 16 118.5 32.5t144.5 19.5q9 0 48 1t73 3.5t68 6.5q9 0 13 -9q2 -5 2 -17q0 -23 -7 -34
q-9 -18 -25 -25q-15 -5 -21 -5zM247 73q83 24 166 59q8 3 17 3q12 0 31 -6t36 -18.5t17 -22.5l5 -19q0 -9 -4 -14q-6 -9 -31 -10.5t-32 -3.5q-18 -4 -110 -35t-130 -35t-53 -4q-51 0 -96 63q-5 6 -5 18q0 13 9.5 39.5t10.5 32.5q3 16 9 35q15 44 39 103t71 161t60 131
q2 5 12.5 9.5t21.5 4.5q12 0 23 -6t15 -7q40 -11 40 -34q0 -8 -6 -22t-6 -15q0 -2 -1 -8t-8 -12q-18 -15 -49 -82q-11 -24 -48 -119t-60 -159q-8 -22 -8 -31t6 -9q18 1 58 13z" />
    <glyph glyph-name="lslash" unicode="&#x142;" horiz-adv-x="232" 
d="M518 717q-3 0 -16 -1t-45 -7t-33 -6h-4q-154 -14 -217 -40q-17 -7 -30 -19t-17 -14l-6 -1h-5l-17 -3q-4 -2 -11 -2q-11 0 -16 12l-2 12q0 13 8.5 31t21.5 34q12 13 46 27q40 16 118.5 32.5t144.5 19.5q9 0 48 1t73 3.5t68 6.5q9 0 13 -9q2 -5 2 -17q0 -23 -7 -34
q-9 -18 -25 -25q-15 -5 -21 -5zM142 61l8 3q22 15 55.5 50.5t51.5 47.5t36 12q13 0 28.5 -7t18.5 -14.5t3 -10.5q0 -11 -9 -19.5t-10 -9.5q-57 -70 -79 -89t-43.5 -30.5t-44.5 -11.5l-18 2q-20 4 -42.5 14.5t-40.5 29.5q-14 14 -19 29t-5 38q0 27 7 55t34 97q46 119 162 324
q1 4 9.5 28.5t22 41.5t36.5 17l34 1q13 0 25.5 -5.5t16.5 -11.5q9 -18 9 -31q0 -19 -11 -36q-17 -27 -70 -107t-84.5 -137.5t-52.5 -111.5q-3 -8 -15 -36t-17 -50.5t-5 -49.5q0 -22 9 -22z" />
    </font>
</defs>
</svg>
